<?xml version="1.0" standalone="no"?>
<!DOCTYPE svg PUBLIC "-//W3C//DTD SVG 20010904//EN"
 "http://www.w3.org/TR/2001/REC-SVG-20010904/DTD/svg10.dtd">
<svg version="1.0" xmlns="http://www.w3.org/2000/svg"
 width="282.000000pt" height="174.000000pt" viewBox="0 0 282.000000 174.000000"
 preserveAspectRatio="xMidYMid meet">

<g transform="translate(0.000000,174.000000) scale(0.100000,-0.100000)"
fill="#000000" stroke="none">
<path d="M914 1484 c-18 -14 -18 -15 4 -4 12 6 22 13 22 15 0 8 -5 6 -26 -11z"/>
<path d="M858 1454 c-38 -20 -36 -28 2 -9 17 9 30 18 30 20 0 7 -1 6 -32 -11z"/>
<path d="M794 1414 c-18 -14 -18 -15 4 -4 12 6 22 13 22 15 0 8 -5 6 -26 -11z"/>
<path d="M724 1374 c-18 -14 -18 -15 4 -4 12 6 22 13 22 15 0 8 -5 6 -26 -11z"/>
<path d="M654 1334 c-18 -14 -18 -15 4 -4 12 6 22 13 22 15 0 8 -5 6 -26 -11z"/>
<path d="M598 1304 c-38 -20 -36 -28 2 -9 17 9 30 18 30 20 0 7 -1 6 -32 -11z"/>
<path d="M534 1264 c-18 -14 -18 -15 4 -4 12 6 22 13 22 15 0 8 -5 6 -26 -11z"/>
<path d="M464 1224 c-18 -14 -18 -15 4 -4 12 6 22 13 22 15 0 8 -5 6 -26 -11z"/>
<path d="M394 1184 c-18 -14 -18 -15 4 -4 12 6 22 13 22 15 0 8 -5 6 -26 -11z"/>
<path d="M1671 1170 c-13 -11 -19 -20 -14 -20 6 0 18 9 28 20 23 25 17 25 -14
0z"/>
<path d="M612 1010 c-35 -15 -52 -68 -52 -166 0 -102 17 -148 61 -163 38 -13
72 0 96 35 14 22 18 48 18 123 0 108 -17 155 -61 171 -30 12 -32 12 -62 0z
m56 -72 c19 -19 16 -173 -3 -192 -9 -8 -22 -13 -30 -10 -29 11 -33 165 -5 199
15 18 22 19 38 3z"/>
<path d="M817 1013 c-4 -3 -7 -82 -7 -174 0 -158 1 -169 20 -179 33 -18 42 26
38 193 -2 118 -6 150 -18 157 -18 12 -24 12 -33 3z"/>
<path d="M1253 1013 c-10 -3 -13 -46 -13 -168 0 -134 3 -165 15 -175 10 -8 19
-10 25 -4 5 5 10 81 11 168 1 161 -5 191 -38 179z"/>
<path d="M1167 1004 c-4 -4 -7 -34 -7 -66 0 -51 -2 -58 -20 -58 -17 0 -20 7
-20 41 0 69 -11 79 -88 79 -78 0 -102 -11 -86 -37 7 -12 28 -20 60 -23 l49 -5
5 -125 c4 -112 7 -125 24 -128 27 -6 36 15 36 81 0 50 2 57 20 57 18 0 20 -7
20 -69 0 -50 4 -72 15 -81 30 -25 36 3 33 171 -3 138 -5 164 -18 167 -9 1 -19
0 -23 -4z"/>
<path d="M1995 1000 c-11 -18 15 -40 46 -40 42 0 38 -35 -7 -81 -23 -24 -34
-43 -31 -53 10 -24 33 -19 72 15 l36 32 32 -32 c35 -33 67 -41 67 -16 0 8 -16
30 -35 49 -22 22 -35 45 -35 61 0 22 4 25 34 25 39 0 53 14 36 35 -15 18 -205
22 -215 5z"/>
<path d="M2270 917 c0 -96 10 -125 38 -108 9 5 12 34 10 102 -3 89 -4 94 -25
97 -22 3 -23 1 -23 -91z"/>
<path d="M1385 980 c-4 -6 -9 -68 -12 -138 -6 -137 1 -172 37 -172 19 0 20 7
20 100 0 55 3 100 8 100 4 0 20 -18 35 -40 16 -22 35 -40 43 -40 7 0 24 16 36
35 13 19 26 35 30 35 4 0 9 -42 10 -92 3 -82 5 -93 22 -96 10 -2 22 2 27 10
10 15 10 180 1 253 -10 72 -35 69 -87 -12 -22 -34 -42 -62 -45 -62 -3 -1 -14
16 -25 36 -41 76 -83 111 -100 83z"/>
<path d="M2063 775 c-43 -18 -46 -63 -7 -94 23 -18 41 -21 121 -21 52 0 103 5
114 11 45 23 40 86 -8 108 -34 16 -181 13 -220 -4z m184 -36 c27 -10 27 -11 9
-25 -31 -22 -166 -16 -166 7 0 26 106 38 157 18z"/>
<path d="M942 540 c-1 -36 1 -41 8 -22 12 27 30 29 30 2 0 -11 5 -20 10 -20 6
0 10 18 10 40 0 22 -4 40 -10 40 -5 0 -10 -7 -10 -15 0 -21 -28 -19 -33 3 -3
9 -5 -3 -5 -28z"/>
<path d="M1247 573 c-11 -11 -8 -48 5 -61 15 -15 48 -16 48 -2 0 6 -8 10 -17
8 -13 -2 -18 4 -18 22 0 18 5 25 17 24 10 -1 15 2 12 7 -6 11 -38 12 -47 2z"/>
<path d="M1310 540 c0 -43 16 -55 23 -17 4 22 4 22 15 -3 11 -25 11 -25 11 -2
1 12 -6 25 -14 28 -8 4 -15 12 -15 20 0 8 -4 14 -10 14 -5 0 -10 -18 -10 -40z"/>
<path d="M1482 543 c4 -42 36 -58 36 -17 0 13 -4 24 -9 24 -5 0 -9 7 -9 15 0
8 -5 15 -11 15 -6 0 -9 -16 -7 -37z"/>
<path d="M1570 560 c0 -14 7 -20 21 -20 12 0 19 -5 16 -12 -2 -7 -12 -12 -22
-11 -11 1 -14 -2 -7 -9 14 -14 47 -6 47 12 0 8 -10 19 -22 25 -28 12 -30 29
-3 22 11 -3 20 -1 20 4 0 5 -11 9 -25 9 -18 0 -25 -5 -25 -20z"/>
<path d="M1021 550 c-20 -12 -8 -45 17 -48 18 -3 22 1 22 21 0 27 -19 40 -39
27z m29 -18 c0 -13 -12 -22 -22 -16 -10 6 -1 24 13 24 5 0 9 -4 9 -8z"/>
<path d="M1701 527 c0 -29 1 -30 9 -9 5 12 17 22 26 22 22 0 13 9 -15 15 -18
3 -21 -1 -20 -28z"/>
<path d="M1822 530 c0 -19 2 -27 5 -17 2 9 2 25 0 35 -3 9 -5 1 -5 -18z"/>
<path d="M1070 531 c0 -25 20 -39 21 -14 0 16 1 16 9 -2 7 -17 9 -17 9 -2 1 9
5 17 10 17 5 0 12 -8 15 -17 3 -11 4 -7 3 7 -2 20 -8 26 -34 28 -27 3 -33 0
-33 -17z"/>
<path d="M1152 528 c4 -33 46 -38 44 -6 -1 16 -8 24 -24 26 -20 3 -23 0 -20
-20z"/>
<path d="M1372 528 c4 -33 46 -38 44 -6 -1 16 -8 24 -24 26 -20 3 -23 0 -20
-20z"/>
<path d="M1432 528 c2 -14 11 -24 23 -26 19 -3 19 -2 1 9 -19 12 -19 12 -1 25
18 13 18 14 -4 14 -17 0 -22 -5 -19 -22z"/>
<path d="M1642 528 c4 -33 46 -38 44 -6 -1 16 -8 24 -24 26 -20 3 -23 0 -20
-20z"/>
<path d="M1760 543 c0 -5 6 -18 14 -28 13 -18 14 -18 25 4 7 13 9 26 5 29 -4
4 -9 1 -11 -6 -4 -10 -8 -10 -19 -1 -8 6 -14 7 -14 2z"/>
<path d="M1847 536 c-7 -18 17 -40 35 -33 8 4 7 6 -4 6 -10 1 -18 7 -18 15 0
8 8 17 18 19 13 4 12 5 -4 6 -12 0 -24 -5 -27 -13z"/>
<path d="M1902 528 c4 -33 46 -38 44 -6 -1 16 -8 24 -24 26 -20 3 -23 0 -20
-20z"/>
<path d="M2474 295 c-3 -8 -15 -17 -26 -21 -11 -3 -17 -8 -15 -11 8 -8 44 15
51 32 3 8 3 15 0 15 -2 0 -7 -7 -10 -15z"/>
</g>
</svg>
