<?xml version="1.0" standalone="no"?>
<!DOCTYPE svg PUBLIC "-//W3C//DTD SVG 20010904//EN"
 "http://www.w3.org/TR/2001/REC-SVG-20010904/DTD/svg10.dtd">
<svg version="1.0" xmlns="http://www.w3.org/2000/svg"
 width="893.000000pt" height="593.000000pt" viewBox="0 0 893.000000 593.000000"
 preserveAspectRatio="xMidYMid meet">

<g transform="translate(0.000000,593.000000) scale(0.100000,-0.100000)"
fill="#000000" stroke="none">
<path d="M8875 5220 c-3 -5 3 -10 14 -10 12 0 21 5 21 10 0 6 -6 10 -14 10 -8
0 -18 -4 -21 -10z"/>
<path d="M6555 4450 c-3 -5 -1 -10 4 -10 6 0 11 5 11 10 0 6 -2 10 -4 10 -3 0
-8 -4 -11 -10z"/>
<path d="M6446 4441 c-3 -4 7 -6 22 -3 26 4 27 4 7 -13 -18 -15 -18 -16 -2
-11 11 3 30 9 44 12 18 5 21 9 11 15 -17 11 -75 11 -82 0z"/>
<path d="M6390 4416 c0 -2 9 -6 20 -9 11 -3 18 -1 14 4 -5 9 -34 13 -34 5z"/>
<path d="M6290 4390 c-11 -7 -6 -8 18 -4 21 4 32 3 32 -5 0 -6 -7 -11 -17 -11
-9 0 -14 -3 -10 -6 7 -8 75 14 82 27 8 12 -86 11 -105 -1z"/>
<path d="M7257 3904 c3 -9 9 -12 12 -7 3 4 10 11 15 16 5 4 0 7 -12 7 -15 0
-20 -4 -15 -16z"/>
<path d="M6190 3704 c0 -28 15 -25 23 6 3 13 0 20 -9 20 -8 0 -14 -10 -14 -26z"/>
<path d="M5990 3680 c-22 -7 -21 -8 12 -9 20 -1 40 4 43 9 7 12 -19 12 -55 0z"/>
<path d="M5928 3663 c6 -2 18 -2 25 0 6 3 1 5 -13 5 -14 0 -19 -2 -12 -5z"/>
<path d="M5815 3645 l-50 -14 55 4 c30 3 56 5 58 5 1 0 2 5 2 10 0 12 -1 12
-65 -5z"/>
<path d="M5630 3602 c0 -10 5 -10 23 -1 33 17 33 19 4 17 -15 -1 -27 -8 -27
-16z"/>
<path d="M6201 3110 c-2 -206 -3 -543 -1 -749 l3 -374 -22 6 c-25 6 -76 -17
-76 -35 0 -17 22 -26 61 -27 17 -1 34 -4 38 -8 4 -5 26 -13 49 -20 l42 -11
-37 -1 c-20 -1 -40 -6 -44 -13 -5 -8 3 -9 32 -3 55 11 206 13 191 2 -8 -6 -6
-7 6 -3 10 3 24 6 30 7 7 0 1 5 -12 10 -13 5 -40 7 -60 3 -24 -3 -31 -2 -23 4
11 7 10 10 -3 16 -26 9 -43 6 -20 -5 14 -6 6 -7 -25 -3 -25 3 -49 10 -54 15
-6 5 -21 9 -35 9 -15 0 -33 5 -41 10 -26 16 98 3 220 -24 63 -13 205 -44 315
-67 207 -44 285 -69 285 -91 0 -8 -3 -9 -8 -3 -4 6 -29 11 -57 12 l-50 2 56
-18 c31 -10 72 -20 91 -24 35 -5 36 -4 29 20 -5 17 -15 27 -31 30 -14 2 -28
10 -33 18 -4 8 -15 15 -23 15 -8 0 -22 4 -32 10 -9 5 -65 18 -124 30 -58 11
-130 27 -160 36 -29 8 -80 19 -113 24 -33 6 -107 22 -165 36 -58 14 -123 30
-145 35 l-40 10 -3 284 c-4 283 -3 285 17 285 12 0 21 5 21 10 0 6 -4 10 -10
10 -16 0 -11 32 8 46 16 13 16 15 0 28 -31 23 -22 46 18 46 41 0 37 15 -6 25
-25 5 -30 12 -30 35 0 16 6 31 13 33 6 3 2 6 -10 6 l-23 1 -3 343 -2 342 -4
-375z"/>
<path d="M7262 3430 c0 -14 2 -19 5 -12 2 6 2 18 0 25 -3 6 -5 1 -5 -13z"/>
<path d="M5633 3360 c0 -25 2 -35 4 -22 2 12 2 32 0 45 -2 12 -4 2 -4 -23z"/>
<path d="M7261 3384 c0 -11 3 -14 6 -6 3 7 2 16 -1 19 -3 4 -6 -2 -5 -13z"/>
<path d="M6162 3340 c0 -14 2 -19 5 -12 2 6 2 18 0 25 -3 6 -5 1 -5 -13z"/>
<path d="M5978 3312 c-21 -2 -38 -6 -38 -10 0 -10 93 -2 104 8 5 5 1 8 -10 7
-10 -1 -36 -3 -56 -5z"/>
<path d="M5863 3293 c9 -2 25 -2 35 0 9 3 1 5 -18 5 -19 0 -27 -2 -17 -5z"/>
<path d="M5633 3255 c0 -22 2 -30 4 -17 2 12 2 30 0 40 -3 9 -5 -1 -4 -23z"/>
<path d="M5632 3185 c0 -16 2 -22 5 -12 2 9 2 23 0 30 -3 6 -5 -1 -5 -18z"/>
<path d="M7258 3049 c-3 -99 5 -345 11 -324 1 6 5 53 7 105 6 100 12 116 47
123 12 2 8 4 -10 3 -28 -2 -32 1 -36 34 -3 19 -6 62 -7 95 -2 95 -8 76 -12
-36z"/>
<path d="M2150 3090 c-9 -6 -10 -10 -3 -10 6 0 15 5 18 10 8 12 4 12 -15 0z"/>
<path d="M5852 3045 c0 -16 2 -22 5 -12 2 9 2 23 0 30 -3 6 -5 -1 -5 -18z"/>
<path d="M2040 3038 c0 -15 6 -29 13 -31 10 -4 10 -6 0 -6 -18 -1 -16 -21 1
-21 7 0 20 -10 29 -22 16 -24 15 -29 5 89 -1 9 -5 9 -13 3 -7 -6 -16 -5 -23 2
-9 9 -12 6 -12 -14z m35 -8 c-3 -5 -12 -10 -18 -10 -7 0 -6 4 3 10 19 12 23
12 15 0z"/>
<path d="M2116 3008 c3 -5 10 -6 15 -3 13 9 11 12 -6 12 -8 0 -12 -4 -9 -9z"/>
<path d="M2170 3005 c0 -8 2 -15 4 -15 2 0 6 7 10 15 3 8 1 15 -4 15 -6 0 -10
-7 -10 -15z"/>
<path d="M2363 2989 c-2 -23 3 -25 10 -4 4 8 3 16 -1 19 -4 3 -9 -4 -9 -15z"/>
<path d="M5851 2978 c-1 -27 -3 -28 -58 -29 -32 -1 -63 -1 -70 0 -6 1 -14 -2
-17 -7 -6 -10 202 -7 212 2 3 3 -9 6 -26 6 -26 0 -31 4 -35 28 l-4 27 -2 -27z"/>
<path d="M7706 2983 c5 -20 1 -23 -23 -24 -23 -2 -24 -2 -5 -6 20 -4 22 -10
23 -81 1 -42 3 -69 6 -59 2 9 8 17 12 17 9 0 6 74 -5 92 -4 7 -4 10 1 6 4 -4
13 -1 19 7 8 11 39 15 127 16 64 1 123 5 130 10 8 5 -42 8 -123 8 -100 0 -138
-3 -138 -12 -1 -7 -7 2 -15 18 -10 19 -13 22 -9 8z"/>
<path d="M7578 2963 c7 -3 16 -2 19 1 4 3 -2 6 -13 5 -11 0 -14 -3 -6 -6z"/>
<path d="M5630 2928 c0 -25 3 -29 10 -18 13 20 13 50 0 50 -5 0 -10 -15 -10
-32z"/>
<path d="M7378 2953 c7 -3 16 -2 19 1 4 3 -2 6 -13 5 -11 0 -14 -3 -6 -6z"/>
<path d="M7423 2953 c9 -2 23 -2 30 0 6 3 -1 5 -18 5 -16 0 -22 -2 -12 -5z"/>
<path d="M5930 2943 c0 -5 27 -8 60 -8 33 0 60 3 60 8 0 4 -27 7 -60 7 -33 0
-60 -3 -60 -7z"/>
<path d="M7970 2900 c0 -16 2 -30 4 -30 2 0 6 14 8 30 3 17 1 30 -4 30 -4 0
-8 -13 -8 -30z"/>
<path d="M5852 2895 c0 -16 2 -22 5 -12 2 9 2 23 0 30 -3 6 -5 -1 -5 -18z"/>
<path d="M1653 2903 c-18 -6 -16 -30 2 -30 8 0 12 4 9 8 -2 4 1 9 8 11 7 3 8
7 3 10 -6 3 -16 3 -22 1z"/>
<path d="M1856 2895 c5 -11 1 -14 -12 -9 -18 5 -18 5 -1 -6 14 -9 22 -9 33 0
20 17 18 30 -6 30 -13 0 -18 -5 -14 -15z"/>
<path d="M2045 2900 c-6 -9 1 -14 17 -11 10 1 20 -37 13 -49 -3 -5 -1 -10 4
-10 6 0 11 -7 11 -15 0 -8 -4 -15 -10 -15 -5 0 -10 -4 -10 -10 0 -12 22 -9 32
5 5 6 8 3 8 -7 0 -9 -6 -18 -12 -21 -10 -3 -10 -7 0 -19 7 -9 10 -22 6 -31 -6
-16 11 -57 30 -69 16 -11 28 -10 21 2 -4 6 -2 17 4 24 9 10 7 15 -5 20 -10 4
-21 1 -26 -6 -5 -9 -8 -4 -8 15 0 29 9 34 27 16 8 -8 14 -5 23 12 11 19 10 25
-6 37 -17 13 -17 14 -1 9 11 -4 17 -1 17 8 0 9 -10 15 -26 15 -26 0 -26 1 -10
25 11 16 12 25 5 25 -8 0 -8 4 1 15 10 12 9 15 -6 15 -13 1 -10 5 10 13 28 12
26 13 -37 15 -37 2 -68 -2 -72 -8z m69 -26 c3 -8 2 -12 -4 -9 -6 3 -10 10 -10
16 0 14 7 11 14 -7z m21 -34 c3 -5 1 -10 -4 -10 -6 0 -11 5 -11 10 0 6 2 10 4
10 3 0 8 -4 11 -10z m4 -68 c7 -13 6 -19 -2 -19 -7 0 -13 9 -13 19 0 10 1 18
3 18 1 0 7 -8 12 -18z"/>
<path d="M2196 2902 c-3 -5 1 -9 9 -9 8 0 15 4 15 9 0 4 -4 8 -9 8 -6 0 -12
-4 -15 -8z"/>
<path d="M2235 2900 c-3 -5 -1 -10 4 -10 6 0 11 5 11 10 0 6 -2 10 -4 10 -3 0
-8 -4 -11 -10z"/>
<path d="M2415 2900 c4 -6 11 -8 16 -5 14 9 11 15 -7 15 -8 0 -12 -5 -9 -10z"/>
<path d="M2480 2901 c0 -5 7 -11 15 -15 9 -3 15 0 15 9 0 8 -7 15 -15 15 -8 0
-15 -4 -15 -9z"/>
<path d="M6910 2900 c0 -5 5 -10 10 -10 6 0 10 5 10 10 0 6 -4 10 -10 10 -5 0
-10 -4 -10 -10z"/>
<path d="M7360 2890 c12 -8 11 -12 -8 -30 -12 -11 -22 -26 -22 -33 0 -6 12 0
26 15 27 26 28 58 2 58 -9 0 -9 -3 2 -10z"/>
<path d="M6951 2864 c0 -11 3 -14 6 -6 3 7 2 16 -1 19 -3 4 -6 -2 -5 -13z"/>
<path d="M1761 2861 c-1 -8 -8 -11 -20 -8 -10 2 -26 0 -35 -5 -10 -6 -16 -5
-16 2 0 17 -16 11 -17 -7 -1 -10 -4 -30 -7 -46 -6 -27 -6 -27 12 -10 13 12 16
22 9 30 -7 10 -2 12 21 7 17 -4 32 -1 36 5 4 6 12 11 17 11 6 0 7 -4 4 -10 -3
-5 1 -10 9 -10 9 0 16 5 16 10 0 6 -4 10 -9 10 -5 0 -12 8 -14 18 -3 9 -5 11
-6 3z"/>
<path d="M2046 2861 c-9 -13 -3 -199 6 -213 4 -8 8 6 8 34 0 42 2 46 21 41 19
-5 20 -3 11 14 -6 11 -18 25 -27 33 -9 8 -12 17 -6 24 10 14 11 76 0 76 -4 0
-10 -4 -13 -9z"/>
<path d="M5815 2845 c5 -22 4 -26 -4 -15 -14 20 -20 10 -10 -17 11 -30 54 -33
46 -3 -3 11 -1 23 4 26 5 3 9 11 9 17 0 7 -4 6 -10 -3 -9 -13 -12 -12 -26 5
-15 19 -15 19 -9 -10z"/>
<path d="M5930 2852 c0 -10 13 -25 28 -34 l29 -17 0 29 c0 20 -5 30 -15 30
-10 0 -13 -7 -9 -21 4 -16 3 -18 -8 -9 -8 6 -11 18 -8 26 3 8 0 14 -6 14 -6 0
-11 -8 -11 -18z"/>
<path d="M6504 2845 c-3 -8 -4 -20 -2 -27 3 -7 7 -1 10 15 6 29 1 36 -8 12z"/>
<path d="M7437 2846 c-3 -8 1 -20 9 -26 12 -10 14 -8 14 14 0 28 -14 35 -23
12z"/>
<path d="M7380 2825 c-16 -17 -19 -25 -9 -25 21 0 42 16 45 34 3 23 -9 20 -36
-9z"/>
<path d="M1630 2759 c0 -71 3 -88 16 -93 13 -5 14 -3 7 6 -13 17 -16 71 -3 63
5 -3 5 7 -1 25 -6 17 -9 36 -6 44 3 7 1 19 -4 27 -5 9 -9 -18 -9 -72z"/>
<path d="M6536 2823 c-6 -14 -5 -15 5 -6 7 7 10 15 7 18 -3 3 -9 -2 -12 -12z"/>
<path d="M1795 2820 c-3 -5 -3 -10 2 -10 12 0 -20 -20 -32 -20 -5 0 -3 5 5 10
9 6 10 10 3 10 -6 0 -14 -4 -17 -8 -10 -17 11 -30 47 -29 36 1 37 2 20 15 -17
14 -17 14 5 9 12 -3 20 -1 17 3 -3 5 1 11 7 14 7 3 0 2 -16 -1 -20 -4 -27 -3
-22 6 4 6 3 11 -3 11 -5 0 -13 -4 -16 -10z"/>
<path d="M6994 2765 c1 -85 16 -85 16 0 0 36 -4 65 -9 65 -4 0 -8 -29 -7 -65z"/>
<path d="M6405 2810 c3 -5 8 -10 11 -10 2 0 4 5 4 10 0 6 -5 10 -11 10 -5 0
-7 -4 -4 -10z"/>
<path d="M6471 2804 c0 -11 3 -14 6 -6 3 7 2 16 -1 19 -3 4 -6 -2 -5 -13z"/>
<path d="M7398 2787 c-16 -6 -28 -14 -28 -18 0 -10 58 10 66 22 6 11 -3 10
-38 -4z"/>
<path d="M1854 2762 c-5 -4 -14 -14 -21 -22 -9 -13 -6 -15 21 -16 24 0 32 4
33 17 2 19 -18 31 -33 21z"/>
<path d="M2320 2760 c0 -5 5 -10 10 -10 6 0 10 5 10 10 0 6 -4 10 -10 10 -5 0
-10 -4 -10 -10z"/>
<path d="M5853 2730 c0 -25 2 -35 4 -22 2 12 2 32 0 45 -2 12 -4 2 -4 -23z"/>
<path d="M1778 2753 c7 -3 16 -2 19 1 4 3 -2 6 -13 5 -11 0 -14 -3 -6 -6z"/>
<path d="M1735 2720 c11 -5 14 -9 8 -9 -7 -1 -13 -5 -13 -10 0 -4 16 -3 35 3
33 10 34 12 13 18 -13 3 -32 6 -43 6 l-20 1 20 -9z"/>
<path d="M2191 2711 c-9 -15 -7 -20 9 -24 16 -4 20 0 20 19 0 29 -15 31 -29 5z"/>
<path d="M2240 2679 c0 -28 1 -29 16 -14 9 8 13 22 10 30 -10 26 -26 16 -26
-16z"/>
<path d="M1830 2683 c-31 -12 -37 -35 -14 -57 21 -22 34 -20 34 4 0 11 -5 20
-11 20 -5 0 -8 4 -4 10 3 5 13 6 23 3 15 -6 15 -5 3 10 -7 9 -14 17 -15 16 0
0 -8 -3 -16 -6z"/>
<path d="M1705 2670 c-12 -4 -27 -16 -35 -26 -8 -10 -10 -15 -3 -11 6 4 13 2
15 -5 2 -6 10 -8 16 -4 16 10 15 29 0 20 -8 -4 -9 -3 -5 2 5 5 16 9 24 9 9 0
18 6 20 13 5 14 -3 14 -32 2z"/>
<path d="M1765 2656 c-9 -14 -24 -26 -33 -28 -11 -3 -7 -6 11 -10 21 -4 27 -2
23 8 -3 7 4 20 15 28 12 8 16 16 10 20 -5 4 -17 -4 -26 -18z"/>
<path d="M2074 2664 c3 -9 6 -18 6 -20 0 -2 4 -4 9 -4 5 0 7 9 4 20 -3 11 -10
20 -15 20 -6 0 -7 -7 -4 -16z"/>
<path d="M2490 2669 c0 -5 5 -7 10 -4 6 3 10 8 10 11 0 2 -4 4 -10 4 -5 0 -10
-5 -10 -11z"/>
<path d="M7207 2646 c-3 -8 -2 -27 3 -43 8 -26 8 -25 9 15 1 43 -3 52 -12 28z"/>
<path d="M5840 2600 c-13 -8 -12 -10 3 -10 9 0 17 5 17 10 0 12 -1 12 -20 0z"/>
<path d="M5728 2578 c6 -6 18 -8 28 -6 14 3 12 5 -9 10 -19 3 -25 2 -19 -4z"/>
<path d="M5798 2543 c6 -2 18 -2 25 0 6 3 1 5 -13 5 -14 0 -19 -2 -12 -5z"/>
<path d="M6028 2523 c6 -2 18 -2 25 0 6 3 1 5 -13 5 -14 0 -19 -2 -12 -5z"/>
<path d="M6321 2461 c-17 -11 18 -17 111 -20 83 -2 120 -9 130 -25 5 -7 8 -5
8 6 0 22 -16 26 -130 34 -52 3 -97 8 -100 9 -3 2 -12 0 -19 -4z"/>
<path d="M7671 2456 c11 -9 69 -14 69 -6 0 6 -16 10 -37 10 -20 0 -34 -2 -32
-4z"/>
<path d="M6160 2400 c0 -11 5 -20 10 -20 6 0 10 9 10 20 0 11 -4 20 -10 20 -5
0 -10 -9 -10 -20z"/>
<path d="M7780 2411 c0 -11 52 -21 99 -20 l36 1 -30 8 c-51 14 -105 19 -105
11z"/>
<path d="M7925 2410 c11 -5 27 -9 35 -9 9 0 8 4 -5 9 -11 5 -27 9 -35 9 -9 0
-8 -4 5 -9z"/>
<path d="M6850 2360 c0 -5 7 -10 16 -10 8 0 12 5 9 10 -3 6 -10 10 -16 10 -5
0 -9 -4 -9 -10z"/>
<path d="M2965 2145 c-9 -3 -215 -32 -392 -54 -29 -4 -56 -11 -60 -15 -4 -5
16 -5 45 -1 35 5 52 3 52 -4 0 -6 -12 -11 -27 -11 -48 0 -18 -9 47 -15 44 -3
60 -2 50 5 -8 5 -11 10 -6 10 5 0 2 8 -5 17 -12 15 -12 16 4 10 10 -4 23 -7
28 -7 6 0 8 -4 5 -9 -9 -14 35 -21 56 -10 11 6 33 7 50 4 21 -5 33 -3 39 6 6
11 13 9 32 -9 16 -16 26 -19 34 -11 8 8 13 8 17 0 10 -16 45 -13 63 4 8 8 19
12 25 9 6 -4 24 -7 39 -8 16 -1 29 -5 28 -10 0 -11 51 -38 66 -34 12 3 -140
124 -166 132 -8 2 -18 3 -24 1z m-320 -75 c3 -5 -1 -10 -10 -10 -9 0 -13 5
-10 10 3 6 8 10 10 10 2 0 7 -4 10 -10z"/>
<path d="M5090 2119 c-74 -15 -166 -33 -204 -39 -37 -5 -71 -12 -75 -14 -13
-8 -571 -112 -730 -137 -35 -5 -107 -18 -160 -28 -53 -11 -145 -29 -206 -41
-60 -12 -118 -23 -127 -26 -38 -11 -14 -20 58 -21 42 -1 97 -6 123 -12 25 -6
88 -15 138 -20 82 -9 96 -13 121 -39 15 -15 33 -27 40 -24 7 2 19 -2 27 -8 11
-9 15 -9 15 -1 0 12 62 15 74 4 4 -5 34 -6 66 -5 39 3 68 -1 88 -12 34 -18
112 -22 112 -6 0 16 73 12 98 -6 13 -9 26 -13 29 -10 9 8 -27 46 -44 46 -21 0
-64 31 -57 41 7 11 54 12 54 1 0 -11 61 -32 92 -32 50 0 87 -12 81 -26 -4 -10
4 -14 26 -14 17 0 31 4 31 9 0 14 -50 51 -69 51 -10 0 -26 7 -37 15 -18 13
-17 14 17 15 57 0 99 -11 99 -27 0 -8 4 -12 9 -8 5 3 16 -1 24 -9 8 -8 32 -18
53 -22 21 -3 51 -13 65 -22 19 -11 34 -12 54 -5 23 7 32 5 52 -13 13 -12 37
-24 54 -28 17 -3 44 -15 60 -27 19 -13 29 -16 29 -8 0 8 9 4 23 -8 35 -32 62
-43 109 -43 24 0 49 -4 57 -9 9 -6 19 -4 28 4 32 33 8 45 -79 41 -40 -2 -58 0
-58 9 0 6 -11 18 -25 25 -19 10 -25 21 -25 46 0 18 -6 35 -12 37 -9 4 -8 6 2
7 23 1 -59 38 -102 45 -21 4 -40 11 -44 16 -11 19 76 8 130 -16 31 -14 67 -25
81 -25 13 0 27 -4 30 -10 3 -5 16 -10 28 -10 21 1 21 1 3 15 -18 13 -17 14 9
21 15 4 52 4 84 1 64 -7 87 2 77 29 -4 10 -4 15 0 11 4 -4 12 3 18 16 6 12 22
23 34 25 13 2 26 10 29 18 4 11 9 12 19 3 7 -6 26 -10 41 -8 15 1 39 -1 53 -5
44 -12 123 -14 154 -4 17 5 38 12 46 14 10 4 11 7 3 12 -6 4 9 7 33 7 28 0 48
5 54 14 7 12 11 12 24 2 12 -10 19 -10 38 3 12 9 30 16 40 16 10 0 18 6 18 14
0 25 -28 37 -84 39 -31 1 -56 4 -56 8 0 9 -90 33 -259 69 -78 17 -214 48 -302
70 -87 22 -159 40 -161 39 -2 -1 -64 -14 -138 -30z m975 -178 c3 -5 1 -12 -5
-16 -5 -3 -10 1 -10 9 0 18 6 21 15 7z m-495 -31 c0 -5 -2 -10 -4 -10 -3 0 -8
5 -11 10 -3 6 -1 10 4 10 6 0 11 -4 11 -10z m-152 -20 c7 -12 8 -20 2 -20 -5
0 -10 4 -10 8 0 5 -12 13 -27 19 l-28 11 25 1 c15 1 30 -7 38 -19z m-242 -57
c-3 -4 -6 -1 -6 5 0 7 -8 12 -17 12 -15 0 -16 2 -3 10 10 6 17 4 23 -6 5 -9 6
-18 3 -21z m291 11 c-3 -3 -12 -4 -19 -1 -8 3 -5 6 6 6 11 1 17 -2 13 -5z
m-852 -40 c12 -5 14 -9 4 -14 -14 -9 -39 -2 -39 11 0 11 12 11 35 3z m715 -4
c0 -6 -11 -8 -27 -4 -40 10 -41 14 -5 14 18 0 32 -5 32 -10z m130 6 c0 -8 -48
-12 -66 -6 -13 5 -5 8 24 8 23 0 42 -1 42 -2z m-254 -15 c5 -5 18 -11 29 -14
16 -4 15 -5 -5 -5 -14 -1 -38 5 -55 13 -30 13 -30 13 -4 14 14 1 29 -3 35 -8z
m-1006 -51 c11 -7 3 -10 -30 -10 -33 0 -41 3 -30 10 8 5 22 10 30 10 8 0 22
-5 30 -10z m834 -2 c-6 -10 -101 -11 -107 0 -3 4 21 7 53 8 33 0 57 -3 54 -8z
m-154 -14 c0 -2 -7 -4 -15 -4 -8 0 -15 4 -15 10 0 5 7 7 15 4 8 -4 15 -8 15
-10z m210 -9 c0 -26 -9 -32 -25 -16 -6 5 -23 11 -40 14 -27 4 -26 4 8 6 23 0
36 5 32 11 -3 6 1 10 9 10 10 0 16 -9 16 -25z m-163 -1 c-3 -3 -12 -4 -19 -1
-8 3 -5 6 6 6 11 1 17 -2 13 -5z m243 -30 c0 -9 -7 -14 -17 -12 -25 5 -28 28
-4 28 12 0 21 -6 21 -16z"/>
<path d="M2425 2070 c-27 -7 -25 -8 18 -9 26 0 47 4 47 9 0 11 -21 11 -65 0z"/>
<path d="M2348 2053 c7 -3 16 -2 19 1 4 3 -2 6 -13 5 -11 0 -14 -3 -6 -6z"/>
<path d="M2495 2000 c3 -5 13 -10 21 -10 8 0 14 5 14 10 0 6 -9 10 -21 10 -11
0 -17 -4 -14 -10z"/>
<path d="M6298 1923 c6 -2 18 -2 25 0 6 3 1 5 -13 5 -14 0 -19 -2 -12 -5z"/>
<path d="M5567 1843 c-3 -5 -2 -15 2 -22 5 -7 11 -9 14 -4 3 5 2 15 -2 22 -5
7 -11 9 -14 4z"/>
<path d="M6177 1836 c-6 -17 3 -36 18 -36 7 0 15 -9 18 -21 3 -12 10 -18 17
-14 8 5 8 11 1 19 -6 7 -8 16 -4 19 3 4 1 7 -5 7 -7 0 -12 5 -12 10 0 6 7 10
15 10 8 0 15 4 15 9 0 13 -58 10 -63 -3z"/>
<path d="M6550 1846 c0 -2 14 -6 30 -8 17 -3 30 -1 30 4 0 4 -13 8 -30 8 -16
0 -30 -2 -30 -4z"/>
<path d="M5650 1830 c0 -5 5 -10 11 -10 5 0 7 5 4 10 -3 6 -8 10 -11 10 -2 0
-4 -4 -4 -10z"/>
<path d="M3616 1801 c-4 -5 3 -7 14 -4 23 6 26 13 6 13 -8 0 -17 -4 -20 -9z"/>
<path d="M5698 1803 c6 -2 18 -2 25 0 6 3 1 5 -13 5 -14 0 -19 -2 -12 -5z"/>
<path d="M6910 1796 c0 -2 7 -7 16 -10 8 -3 12 -2 9 4 -6 10 -25 14 -25 6z"/>
<path d="M6193 1755 c0 -22 2 -30 4 -17 2 12 2 30 0 40 -3 9 -5 -1 -4 -23z"/>
<path d="M6968 1773 c7 -3 16 -2 19 1 4 3 -2 6 -13 5 -11 0 -14 -3 -6 -6z"/>
<path d="M5430 1730 c-11 -7 -6 -10 20 -10 26 0 31 3 20 10 -8 5 -17 10 -20
10 -3 0 -12 -5 -20 -10z"/>
<path d="M4618 1713 c6 -2 18 -2 25 0 6 3 1 5 -13 5 -14 0 -19 -2 -12 -5z"/>
<path d="M5233 1713 c-19 -7 -17 -73 2 -73 8 0 15 9 15 20 0 11 3 20 8 20 4 0
15 -9 25 -20 13 -16 29 -20 72 -20 30 0 55 5 55 10 0 6 -18 10 -40 10 -22 0
-40 4 -40 8 0 4 -17 14 -37 21 -21 8 -40 17 -43 21 -3 4 -11 5 -17 3z"/>
<path d="M7128 1701 c12 -11 22 -26 22 -35 0 -10 9 -16 23 -17 17 -1 15 -3 -8
-8 l-30 -6 33 -23 c17 -13 32 -30 32 -38 0 -8 5 -14 10 -14 6 0 9 -6 8 -12 -2
-8 21 -19 59 -28 46 -12 69 -24 91 -49 22 -25 34 -32 49 -27 13 4 34 -1 56
-14 20 -12 48 -23 64 -26 15 -3 30 -9 31 -15 2 -5 12 -9 23 -9 11 0 27 -4 37
-9 9 -5 26 -13 37 -16 13 -5 15 -9 8 -12 -22 -8 -14 -21 17 -28 45 -10 45 -22
0 -27 -22 -2 -40 0 -40 4 0 5 -9 8 -20 8 -11 0 -20 5 -20 10 0 6 -12 10 -26
10 -14 0 -23 -4 -19 -10 3 -5 14 -10 24 -10 10 0 24 -7 31 -15 7 -8 27 -15 45
-15 40 0 67 -9 60 -20 -8 -13 33 -23 61 -16 19 5 24 3 24 -14 0 -11 6 -20 14
-20 8 0 22 -8 31 -17 12 -12 31 -16 66 -14 39 2 48 -1 43 -13 -8 -21 23 -34
100 -42 71 -7 87 -20 34 -27 -19 -2 -14 -3 10 -2 40 2 56 -8 30 -18 -7 -3 7
-6 32 -7 25 -1 39 -4 33 -7 -23 -9 -14 -24 11 -17 14 3 37 -1 54 -10 17 -9 40
-16 52 -16 11 0 20 -4 20 -10 0 -5 7 -10 15 -10 8 0 15 -4 15 -10 0 -5 18 -10
40 -10 23 0 40 -5 40 -11 0 -14 -61 -4 -107 17 -17 9 -37 14 -45 13 -22 -4
-88 13 -88 22 0 5 -19 9 -42 8 -43 -1 -43 -1 -13 -11 17 -6 33 -16 37 -22 6
-8 8 -8 8 1 0 15 40 4 47 -13 3 -8 15 -14 28 -14 19 0 22 -4 17 -22 -4 -17 -2
-20 11 -15 10 4 24 10 34 14 11 4 14 3 9 -5 -4 -7 -2 -12 5 -12 7 0 5 -8 -6
-20 -17 -19 -17 -21 -1 -39 10 -11 15 -24 12 -29 -3 -5 15 -17 39 -27 41 -15
60 -35 35 -35 -5 0 -10 -4 -10 -10 0 -5 7 -10 15 -10 8 0 15 9 15 20 0 23 1
24 35 8 24 -11 25 -13 8 -20 -13 -6 -9 -7 13 -5 23 2 31 0 27 -10 -3 -7 -17
-13 -32 -14 -26 0 -26 -1 -4 -11 18 -8 28 -7 50 7 23 15 26 16 15 2 -12 -14
-10 -19 18 -35 17 -11 50 -23 73 -28 l42 -8 -35 -4 c-56 -6 -63 -25 -7 -20 49
3 59 -4 30 -21 -10 -6 -12 -11 -5 -11 6 0 12 -6 12 -14 0 -13 -4 -13 -27 0
-36 18 -49 18 -57 -2 -4 -10 -2 -13 6 -8 7 5 8 3 3 -5 -5 -8 -19 -11 -39 -7
-50 10 -101 5 -118 -12 -14 -14 30 -72 54 -72 10 0 18 -4 18 -10 0 -5 11 -10
24 -10 13 0 27 -7 30 -16 5 -14 0 -16 -36 -11 l-43 6 40 -19 c47 -23 66 -25
60 -7 -7 17 5 32 43 51 38 20 58 12 28 -10 -17 -12 -18 -14 -3 -14 9 0 17 5
17 10 0 6 7 10 15 10 8 0 15 -4 15 -10 0 -5 15 -10 33 -10 24 0 35 -6 42 -22
6 -13 19 -25 29 -27 20 -3 54 -31 39 -32 -91 -6 -93 -5 -93 13 0 21 -4 22 -31
8 -14 -8 -27 -6 -50 5 -17 9 -38 14 -47 10 -15 -6 -15 -8 2 -21 11 -8 30 -14
42 -14 12 0 42 -11 65 -25 24 -14 52 -25 62 -25 9 0 17 -4 17 -10 0 -5 -7 -10
-16 -10 -19 0 -117 41 -125 53 -3 4 -24 7 -45 5 l-39 -3 42 -13 c55 -16 70
-37 20 -28 -20 4 -54 2 -74 -4 -37 -11 -38 -12 -34 -56 2 -35 0 -44 -13 -44
-9 0 -16 7 -16 15 0 11 -13 15 -54 15 -33 0 -56 5 -58 12 -2 6 -17 13 -34 14
-16 1 -37 5 -46 9 -12 5 -18 2 -18 -8 0 -8 10 -17 21 -20 15 -4 20 -11 16 -21
-4 -10 -1 -16 7 -16 8 0 21 -11 30 -24 8 -14 25 -27 36 -31 23 -7 27 -25 6
-25 -8 0 -24 -16 -36 -37 -17 -29 -18 -38 -8 -44 10 -7 9 -9 -4 -9 -26 0 -22
-17 5 -24 12 -3 138 -6 279 -6 l258 0 0 659 0 658 -62 11 c-35 7 -81 16 -103
21 -22 5 -105 23 -185 41 -80 18 -212 48 -295 67 -82 20 -181 42 -220 49 -38
6 -106 21 -150 33 -44 11 -120 29 -170 40 -49 11 -160 35 -245 54 -85 19 -198
43 -250 52 -52 10 -99 22 -104 26 -6 5 -17 9 -25 9 -12 -1 -10 -5 7 -19z m157
-161 c3 -5 -3 -10 -14 -10 -12 0 -21 5 -21 10 0 6 6 10 14 10 8 0 18 -4 21
-10z m484 -226 c10 -9 -35 -3 -49 6 -11 8 -7 9 15 4 17 -4 32 -8 34 -10z m151
-34 c12 -8 12 -10 -5 -10 -11 0 -27 5 -35 10 -12 8 -12 10 5 10 11 0 27 -5 35
-10z m160 -46 c0 -2 -7 -4 -15 -4 -8 0 -15 4 -15 10 0 5 7 7 15 4 8 -4 15 -8
15 -10z m323 -311 c-7 -2 -19 -2 -25 0 -7 3 -2 5 12 5 14 0 19 -2 13 -5z m28
-45 c1 -7 1 -18 0 -25 -1 -6 8 -14 19 -18 11 -3 20 -11 20 -17 0 -6 -7 -7 -17
-3 -10 5 -33 13 -50 19 -24 8 -33 17 -33 33 0 19 6 23 30 23 17 0 31 -6 31
-12z m112 -45 c-7 -2 -21 -2 -30 0 -10 3 -4 5 12 5 17 0 24 -2 18 -5z m207
-253 c0 -13 -7 -20 -20 -20 -13 0 -20 7 -20 20 0 13 7 20 20 20 13 0 20 -7 20
-20z m-80 -30 c0 -5 -6 -10 -14 -10 -8 0 -18 5 -21 10 -3 6 3 10 14 10 12 0
21 -4 21 -10z m16 -37 c-10 -10 -19 5 -10 18 6 11 8 11 12 0 2 -7 1 -15 -2
-18z m144 -173 c0 -5 -6 -10 -14 -10 -8 0 -18 5 -21 10 -3 6 3 10 14 10 12 0
21 -4 21 -10z m-187 -57 c-7 -2 -19 -2 -25 0 -7 3 -2 5 12 5 14 0 19 -2 13 -5z
m131 -9 c5 -13 3 -14 -6 -6 -7 5 -22 12 -33 15 -16 4 -14 5 6 6 17 1 29 -5 33
-15z m111 6 c13 -5 14 -9 5 -9 -8 0 -24 4 -35 9 -13 5 -14 9 -5 9 8 0 24 -4
35 -9z m-246 -107 c2 -2 -3 -3 -11 -3 -9 0 -19 7 -22 16 -6 15 -4 15 11 3 10
-7 20 -15 22 -16z"/>
<path d="M4770 1690 c0 -5 18 -10 40 -10 22 0 40 5 40 10 0 6 -18 10 -40 10
-22 0 -40 -4 -40 -10z"/>
<path d="M4618 1663 c7 -3 16 -2 19 1 4 3 -2 6 -13 5 -11 0 -14 -3 -6 -6z"/>
<path d="M4913 1663 c9 -2 17 -9 17 -14 0 -5 8 -9 17 -9 15 0 14 2 -3 15 -10
8 -26 14 -34 14 -11 -1 -10 -3 3 -6z"/>
<path d="M5635 1660 c3 -5 8 -10 11 -10 2 0 4 5 4 10 0 6 -5 10 -11 10 -5 0
-7 -4 -4 -10z"/>
<path d="M4690 1629 c0 -5 5 -7 10 -4 6 3 10 8 10 11 0 2 -4 4 -10 4 -5 0 -10
-5 -10 -11z"/>
<path d="M6168 1623 c7 -3 16 -2 19 1 4 3 -2 6 -13 5 -11 0 -14 -3 -6 -6z"/>
<path d="M5490 1610 c0 -5 5 -10 10 -10 6 0 10 5 10 10 0 6 -4 10 -10 10 -5 0
-10 -4 -10 -10z"/>
<path d="M5550 1591 c0 -12 28 -22 35 -12 3 5 -2 12 -11 15 -21 8 -24 8 -24
-3z"/>
<path d="M4385 1580 c11 -5 27 -9 35 -9 9 0 8 4 -5 9 -11 5 -27 9 -35 9 -9 0
-8 -4 5 -9z"/>
<path d="M6175 1580 c-3 -5 1 -10 10 -10 9 0 13 5 10 10 -3 6 -8 10 -10 10 -2
0 -7 -4 -10 -10z"/>
<path d="M4260 1499 c-34 -12 -70 -18 -94 -15 -24 3 -35 1 -26 -4 9 -6 -21
-19 -93 -41 -59 -18 -105 -34 -103 -36 4 -4 96 20 156 41 25 9 62 16 83 16 20
0 37 4 37 9 0 5 21 14 48 20 51 13 90 31 62 30 -8 0 -40 -9 -70 -20z"/>
<path d="M4825 1510 c3 -5 10 -10 16 -10 5 0 9 5 9 10 0 6 -7 10 -16 10 -8 0
-12 -4 -9 -10z"/>
<path d="M7470 1388 c-21 -9 -22 -12 -8 -15 10 -3 25 3 34 11 18 18 10 19 -26
4z"/>
<path d="M3788 1373 c14 -3 22 -10 19 -17 -4 -9 2 -11 18 -8 12 2 26 -1 29 -7
4 -6 16 -11 27 -11 11 0 17 5 14 10 -3 6 -15 10 -27 10 -12 0 -18 5 -15 13 3
8 -9 12 -42 13 -25 0 -36 -1 -23 -3z"/>
<path d="M3628 1353 c6 -2 12 -12 12 -21 0 -14 2 -15 9 -2 12 18 5 30 -17 29
-11 0 -12 -3 -4 -6z"/>
<path d="M7395 1350 c3 -5 16 -10 28 -9 21 0 21 1 2 9 -28 12 -37 12 -30 0z"/>
<path d="M3935 1300 c-5 -7 -19 -10 -37 -6 -38 8 -27 -10 12 -19 17 -4 30 -10
30 -14 0 -13 96 -40 122 -35 12 2 16 1 8 -2 -25 -12 -41 -32 -30 -39 5 -3 10
-1 10 4 0 6 9 11 21 11 23 0 79 -30 79 -42 0 -13 -9 -9 -32 12 -22 20 -48 27
-48 12 0 -5 17 -16 38 -25 55 -24 179 -72 245 -96 32 -12 86 -34 120 -50 34
-15 85 -36 112 -45 100 -34 218 -92 233 -113 13 -21 12 -23 -14 -35 -16 -7
-31 -13 -33 -15 -7 -4 64 -63 77 -63 8 0 12 -6 9 -12 -2 -7 -14 -12 -25 -10
-15 2 -22 -2 -22 -12 0 -11 8 -15 25 -14 14 1 25 8 25 15 0 17 17 17 27 0 4
-8 17 -19 28 -25 15 -8 16 -11 5 -12 -9 0 -21 5 -27 11 -18 18 -46 2 -40 -22
5 -18 2 -20 -26 -13 -18 3 -38 11 -44 16 -10 8 -13 3 -13 -18 0 -28 -2 -29
-47 -30 -27 0 -61 -3 -78 -6 -16 -3 -24 -3 -17 -1 21 8 13 23 -13 23 -25 0
-54 22 -72 55 -9 16 -14 16 -55 -9 -48 -28 -82 -32 -137 -16 -32 9 -33 8 -17
-9 18 -20 21 -41 6 -41 -16 0 -205 -92 -208 -101 -2 -5 -12 -9 -22 -9 -10 0
-22 -4 -25 -10 -8 -12 -8 -12 32 -1 29 8 36 6 69 -24 24 -22 34 -39 31 -52 -4
-15 -5 -14 -6 5 -1 24 -21 31 -21 7 0 -10 -10 -15 -30 -15 -34 0 -38 -7 -13
-26 26 -18 7 -30 -22 -14 -23 12 -27 11 -47 -9 -18 -21 -22 -21 -30 -7 -5 9
-16 16 -24 16 -8 0 -13 -4 -10 -8 3 -5 -6 -26 -19 -48 -24 -38 -24 -38 -25
-11 0 27 0 27 -65 25 -48 -1 -69 3 -83 15 -18 16 -18 16 -15 -16 2 -17 0 -26
-3 -19 -3 6 -12 12 -19 12 -8 0 -39 31 -69 69 -57 72 -87 100 -68 65 6 -11 19
-28 29 -39 11 -11 22 -27 26 -35 4 -8 19 -33 32 -55 14 -22 28 -48 32 -57 3
-10 9 -15 14 -12 5 3 9 -2 9 -10 0 -26 -20 -29 -41 -5 -10 12 -19 17 -19 11 0
-6 -12 -12 -27 -14 -17 -2 -29 -10 -31 -20 -3 -14 4 -18 30 -19 18 -1 25 -3
16 -6 -13 -3 -18 -15 -18 -39 0 -30 3 -34 25 -34 22 0 25 -4 25 -35 0 -22 6
-38 15 -41 11 -5 12 -11 4 -25 -9 -19 11 -19 1022 -19 568 0 1030 1 1028 3 -2
2 -24 19 -49 37 -30 24 -42 29 -37 17 4 -11 3 -16 -4 -12 -5 4 -7 15 -4 26 5
15 1 19 -15 19 -11 0 -23 7 -26 15 -4 8 -11 15 -18 15 -6 1 -33 21 -60 45 -26
25 -40 42 -30 38 11 -4 25 -13 33 -21 8 -7 33 -25 55 -39 23 -14 43 -29 46
-33 3 -4 40 -30 82 -59 l76 -51 127 0 c123 0 125 0 115 20 -8 15 -8 20 1 20 6
0 13 -9 16 -20 5 -20 43 -29 43 -10 0 6 9 10 20 10 11 0 20 -4 20 -10 0 -5 11
-10 25 -10 23 0 24 2 13 20 -7 11 -18 20 -25 20 -18 0 -16 11 4 25 15 11 15
13 -7 25 -14 8 -41 10 -71 7 -32 -4 -53 -1 -65 8 -18 13 -17 14 14 15 31 0 32
2 32 39 0 32 -4 40 -22 45 -34 9 -36 8 -68 -26 l-30 -31 -22 23 c-15 16 -18
25 -10 28 7 2 12 21 12 42 0 21 3 41 8 43 4 3 5 -15 3 -39 -3 -39 -1 -44 18
-44 18 0 21 6 22 43 0 23 3 36 6 29 2 -6 9 -9 15 -6 5 3 -4 15 -22 25 -17 11
-35 17 -41 14 -5 -4 -12 1 -15 10 -5 13 -9 14 -14 4 -6 -9 -12 -8 -25 4 -9 10
-25 17 -36 17 -10 0 -19 5 -19 10 0 6 5 10 11 10 5 0 7 5 3 11 -4 7 -9 7 -13
2 -9 -14 -47 -33 -65 -33 -9 0 -16 9 -16 20 0 11 7 20 15 20 8 0 15 5 15 10 0
6 -7 13 -15 16 -8 4 -15 12 -15 20 0 8 -6 14 -13 14 -7 0 -26 14 -42 30 -16
17 -37 30 -47 30 -10 0 -18 5 -18 10 0 6 -8 10 -19 10 -10 0 -21 9 -24 20 -3
11 -17 24 -31 30 -14 5 -27 15 -27 22 -5 51 -19 70 -45 64 -17 -5 -22 -3 -18
7 3 9 -6 19 -25 27 -17 7 -31 16 -31 21 0 5 -7 9 -15 9 -8 0 -23 8 -33 18 -37
35 -76 49 -124 44 -27 -2 -48 -8 -48 -13 0 -5 -13 5 -30 23 -16 17 -30 35 -30
39 0 5 -9 9 -20 9 -12 0 -32 7 -45 16 -24 16 -55 15 -97 -1 -13 -5 -18 -2 -18
9 0 9 8 16 20 16 11 0 20 4 20 9 0 14 -48 41 -63 36 -7 -3 -27 1 -43 10 -16 8
-37 15 -46 15 -9 0 -20 5 -23 10 -3 6 -10 10 -16 10 -5 0 -9 -4 -9 -10 0 -5 7
-10 15 -10 17 0 20 -16 4 -26 -13 -8 -29 7 -33 30 -3 22 -37 39 -166 86 -58
20 -114 41 -125 45 -16 5 -17 5 -5 -4 11 -8 5 -9 -25 -4 -44 6 -80 22 -71 30
3 3 12 0 20 -6 8 -7 25 -11 38 -9 15 2 -17 19 -100 52 -67 27 -125 46 -129 42
-3 -3 -1 -6 6 -6 7 0 9 -5 5 -12 -4 -7 -3 -8 4 -4 7 4 12 2 12 -3 0 -13 -6
-13 -38 -4 -16 4 -20 8 -12 13 7 5 -14 14 -51 23 -35 9 -47 14 -26 11 20 -3
37 -1 37 5 0 11 -55 25 -68 17 -4 -2 -14 -1 -22 5 -12 7 -11 9 5 10 l20 0 -20
9 c-11 5 -27 9 -35 9 -13 1 -13 0 0 -9 27 -17 -53 -5 -86 13 -17 9 -35 13 -39
9 -5 -4 -5 -1 -1 6 5 7 17 10 34 6 18 -5 24 -3 17 4 -16 16 -72 25 -80 12z
m295 -164 c0 -3 -4 -8 -10 -11 -5 -3 -10 -1 -10 4 0 6 5 11 10 11 6 0 10 -2
10 -4z m150 -51 c-7 -8 -17 -15 -22 -15 -11 0 14 29 26 30 5 0 3 -7 -4 -15z
m54 -17 c-5 -7 -2 -9 9 -5 11 4 14 2 10 -9 -7 -18 -13 -18 -43 6 l-25 20 28 0
c19 0 26 -4 21 -12z m217 -39 c21 -11 16 -34 -6 -25 -7 2 -12 -2 -11 -11 1
-20 -28 -25 -59 -9 -26 14 -19 41 8 30 9 -3 14 -10 11 -15 -3 -5 2 -9 11 -9
13 0 16 6 11 25 -7 27 3 31 35 14z m326 -195 c-3 -3 -12 -4 -19 -1 -8 3 -5 6
6 6 11 1 17 -2 13 -5z m-127 -14 c0 -5 -5 -10 -11 -10 -5 0 -7 5 -4 10 3 6 8
10 11 10 2 0 4 -4 4 -10z m493 -67 c-7 -2 -19 -2 -25 0 -7 3 -2 5 12 5 14 0
19 -2 13 -5z m77 -43 c0 -5 -4 -10 -10 -10 -5 0 -10 5 -10 10 0 6 5 10 10 10
6 0 10 -4 10 -10z m45 -30 c3 -5 -1 -10 -9 -10 -8 0 -18 5 -21 10 -3 6 1 10 9
10 8 0 18 -4 21 -10z m-945 -24 c0 -3 -4 -8 -10 -11 -5 -3 -10 -1 -10 4 0 6 5
11 10 11 6 0 10 -2 10 -4z m1050 -32 c0 -14 -3 -14 -15 -4 -8 7 -15 14 -15 16
0 2 7 4 15 4 8 0 15 -7 15 -16z m-772 -41 c-5 -25 -28 -28 -28 -4 0 12 6 21
16 21 9 0 14 -7 12 -17z m-68 -23 c0 -5 -4 -10 -10 -10 -5 0 -10 5 -10 10 0 6
5 10 10 10 6 0 10 -4 10 -10z m390 -36 c0 -2 -7 -4 -15 -4 -8 0 -15 4 -15 10
0 5 7 7 15 4 8 -4 15 -8 15 -10z m-330 -18 c0 -8 -4 -18 -10 -21 -5 -3 -10 3
-10 14 0 12 5 21 10 21 6 0 10 -6 10 -14z m940 -41 c0 -8 -4 -15 -9 -15 -13 0
-22 16 -14 24 11 11 23 6 23 -9z m150 -155 c12 -8 9 -10 -12 -10 -16 0 -28 5
-28 10 0 13 20 13 40 0z m70 -20 c0 -5 -9 -10 -21 -10 -11 0 -17 5 -14 10 3 6
13 10 21 10 8 0 14 -4 14 -10z m-420 -50 c14 -11 21 -20 15 -20 -5 0 -21 9
-35 20 -14 11 -20 20 -15 20 6 0 21 -9 35 -20z m-1776 -33 c7 -6 6 -7 -4 -4
-8 2 -16 12 -17 23 -2 13 -1 15 4 4 3 -8 11 -19 17 -23z m120 -92 c4 -15 10
-25 13 -21 3 3 13 -3 21 -15 8 -11 11 -23 8 -26 -3 -3 -8 1 -12 10 -3 9 -12
13 -19 11 -16 -7 -39 32 -29 48 5 8 2 9 -10 5 -12 -5 -16 -2 -14 11 2 9 -2 16
-9 15 -7 -2 -10 4 -7 12 4 9 0 15 -9 15 -20 0 -27 20 -15 43 8 15 14 11 42
-32 18 -27 36 -61 40 -76z m1710 19 c3 -8 2 -12 -4 -9 -6 3 -10 10 -10 16 0
14 7 11 14 -7z"/>
<path d="M4908 1233 c7 -3 16 -2 19 1 4 3 -2 6 -13 5 -11 0 -14 -3 -6 -6z"/>
<path d="M3190 1210 c0 -5 4 -10 9 -10 6 0 13 5 16 10 3 6 -1 10 -9 10 -9 0
-16 -4 -16 -10z"/>
<path d="M3230 1210 c0 -5 7 -10 15 -10 8 0 15 5 15 10 0 6 -7 10 -15 10 -8 0
-15 -4 -15 -10z"/>
<path d="M5007 1199 c7 -7 15 -10 18 -7 3 3 -2 9 -12 12 -14 6 -15 5 -6 -5z"/>
<path d="M8050 1040 c0 -5 9 -10 20 -10 11 0 20 5 20 10 0 6 -9 10 -20 10 -11
0 -20 -4 -20 -10z"/>
<path d="M5401 954 c2 -30 15 -41 37 -33 24 9 30 29 8 29 -8 0 -21 3 -30 6 -9
3 -16 2 -15 -2z"/>
<path d="M3760 946 c0 -2 7 -7 16 -10 8 -3 12 -2 9 4 -6 10 -25 14 -25 6z"/>
<path d="M5325 940 c3 -5 8 -10 11 -10 2 0 4 5 4 10 0 6 -5 10 -11 10 -5 0 -7
-4 -4 -10z"/>
<path d="M3801 926 c10 -9 89 -46 89 -41 0 5 -75 45 -86 45 -4 0 -5 -2 -3 -4z"/>
<path d="M5486 912 c-3 -5 -2 -12 2 -18 10 -13 112 -67 118 -61 6 5 -73 70
-97 79 -10 4 -20 4 -23 0z"/>
<path d="M8218 913 c7 -3 16 -2 19 1 4 3 -2 6 -13 5 -11 0 -14 -3 -6 -6z"/>
<path d="M8268 893 c24 -5 30 -28 10 -36 -7 -2 -10 -8 -6 -11 3 -4 16 2 28 14
18 18 20 24 9 31 -8 5 -25 8 -39 7 -23 -1 -24 -1 -2 -5z"/>
<path d="M3940 855 c25 -13 50 -24 55 -24 6 0 -10 11 -35 24 -25 13 -49 24
-55 24 -5 0 10 -11 35 -24z"/>
<path d="M5445 865 c22 -8 41 -15 43 -15 1 0 2 -9 2 -21 0 -14 6 -19 18 -17 9
1 30 -6 45 -16 15 -10 31 -15 35 -11 4 4 1 10 -5 12 -7 3 -13 13 -13 24 0 14
-7 19 -25 19 -14 0 -43 9 -65 20 -22 11 -47 20 -57 20 -10 -1 0 -7 22 -15z"/>
<path d="M8215 870 c-4 -6 6 -10 22 -10 22 0 25 2 13 10 -19 12 -27 12 -35 0z"/>
<path d="M5380 831 c0 -5 7 -11 15 -15 8 -3 15 -17 15 -31 0 -22 4 -25 37 -25
35 0 36 0 18 20 -10 11 -26 22 -36 25 -11 4 -19 13 -19 21 0 8 -7 14 -15 14
-8 0 -15 -4 -15 -9z"/>
<path d="M4050 805 c0 -7 61 -37 66 -33 2 3 -12 12 -31 21 -19 9 -35 15 -35
12z"/>
<path d="M4144 756 c11 -9 24 -16 30 -16 12 0 7 5 -24 19 -24 11 -24 11 -6 -3z"/>
<path d="M5490 741 c0 -10 30 -24 37 -17 3 2 -5 9 -16 16 -12 6 -21 7 -21 1z"/>
<path d="M8508 683 c7 -3 16 -2 19 1 4 3 -2 6 -13 5 -11 0 -14 -3 -6 -6z"/>
<path d="M8468 623 c12 -2 32 -2 45 0 12 2 2 4 -23 4 -25 0 -35 -2 -22 -4z"/>
<path d="M8548 593 c6 -2 18 -2 25 0 6 3 1 5 -13 5 -14 0 -19 -2 -12 -5z"/>
<path d="M8425 560 c3 -5 10 -10 16 -10 5 0 9 5 9 10 0 6 -7 10 -16 10 -8 0
-12 -4 -9 -10z"/>
<path d="M3795 380 c3 -5 8 -10 11 -10 2 0 4 5 4 10 0 6 -5 10 -11 10 -5 0 -7
-4 -4 -10z"/>
<path d="M8518 383 c7 -3 16 -2 19 1 4 3 -2 6 -13 5 -11 0 -14 -3 -6 -6z"/>
<path d="M8513 296 c-4 -8 -26 -16 -48 -19 -36 -3 -35 -4 13 -5 46 -2 52 0 52
18 0 24 -6 26 -17 6z"/>
<path d="M3078 193 c-10 -2 -18 -9 -18 -14 0 -14 20 -11 36 6 16 15 13 16 -18
8z"/>
<path d="M6210 151 c0 -8 -7 -10 -20 -6 -14 5 -20 2 -20 -9 0 -21 36 -21 44 0
4 9 4 19 1 22 -3 3 -5 0 -5 -7z"/>
<path d="M2400 130 c0 -5 7 -10 16 -10 8 0 12 5 9 10 -3 6 -10 10 -16 10 -5 0
-9 -4 -9 -10z"/>
<path d="M3300 114 c0 -7 7 -25 15 -40 8 -16 15 -22 15 -14 -1 18 -29 70 -30
54z"/>
<path d="M3570 112 c0 -4 9 -13 20 -20 11 -7 20 -21 20 -32 0 -11 7 -20 15
-20 8 0 15 -9 15 -20 0 -17 7 -20 45 -20 45 0 45 0 45 35 0 19 -5 35 -11 35
-7 0 -8 -11 -4 -30 5 -23 3 -30 -9 -30 -9 0 -16 7 -16 15 0 8 -4 15 -10 15 -5
0 -10 6 -10 13 0 7 -9 19 -20 27 -11 8 -20 20 -20 27 0 8 -12 13 -30 13 -16 0
-30 -3 -30 -8z"/>
<path d="M8218 103 c6 -2 18 -2 25 0 6 3 1 5 -13 5 -14 0 -19 -2 -12 -5z"/>
<path d="M8268 93 c7 -3 16 -2 19 1 4 3 -2 6 -13 5 -11 0 -14 -3 -6 -6z"/>
<path d="M2685 66 c-26 -28 -29 -39 -7 -34 12 3 23 1 26 -6 2 -6 3 1 2 17 -3
33 -8 38 -21 23z"/>
<path d="M8278 73 c-43 -11 -4 -33 60 -33 25 0 32 4 32 20 0 17 -6 20 -37 19
-21 -1 -46 -3 -55 -6z"/>
<path d="M3330 29 c0 -5 5 -7 10 -4 6 3 10 8 10 11 0 2 -4 4 -10 4 -5 0 -10
-5 -10 -11z"/>
<path d="M3591 24 c0 -11 3 -14 6 -6 3 7 2 16 -1 19 -3 4 -6 -2 -5 -13z"/>
</g>
</svg>
