<?xml version="1.0" standalone="no"?>
<!DOCTYPE svg PUBLIC "-//W3C//DTD SVG 20010904//EN"
 "http://www.w3.org/TR/2001/REC-SVG-20010904/DTD/svg10.dtd">
<svg version="1.0" xmlns="http://www.w3.org/2000/svg"
 width="1280.000000pt" height="854.000000pt" viewBox="0 0 1280.000000 854.000000"
 preserveAspectRatio="xMidYMid meet">

<g transform="translate(0.000000,854.000000) scale(0.100000,-0.100000)"
fill="#000000" stroke="none">
<path d="M3908 6643 c6 -2 18 -2 25 0 6 3 1 5 -13 5 -14 0 -19 -2 -12 -5z"/>
<path d="M10540 6312 c-39 -6 -49 -22 -13 -22 18 0 35 5 38 11 9 14 5 16 -25
11z"/>
<path d="M3150 5961 c13 -9 12 -11 -3 -11 -12 0 -17 -6 -15 -17 2 -12 20 -22
51 -30 57 -14 70 -10 85 22 13 28 9 31 -74 40 -43 5 -55 3 -44 -4z"/>
<path d="M11370 5890 c-13 -8 -13 -10 2 -10 16 0 18 -16 21 -152 l3 -153 2
163 c1 89 -1 162 -5 162 -5 0 -15 -5 -23 -10z"/>
<path d="M2681 5846 c7 -7 167 -32 254 -40 76 -7 220 -25 320 -41 122 -20 247
-29 218 -16 -12 6 -167 29 -345 51 -355 46 -456 56 -447 46z"/>
<path d="M10928 5823 c6 -2 18 -2 25 0 6 3 1 5 -13 5 -14 0 -19 -2 -12 -5z"/>
<path d="M10868 5813 c7 -3 16 -2 19 1 4 3 -2 6 -13 5 -11 0 -14 -3 -6 -6z"/>
<path d="M10803 5803 c9 -2 23 -2 30 0 6 3 -1 5 -18 5 -16 0 -22 -2 -12 -5z"/>
<path d="M10743 5793 c9 -2 23 -2 30 0 6 3 -1 5 -18 5 -16 0 -22 -2 -12 -5z"/>
<path d="M10656 5782 c-3 -5 8 -6 25 -4 16 2 29 6 29 8 0 8 -49 4 -54 -4z"/>
<path d="M10280 5734 c-173 -23 -340 -43 -370 -44 -42 0 -51 -3 -37 -11 15 -9
17 -30 18 -192 1 -176 14 -440 17 -366 2 32 30 77 33 53 1 -5 4 2 8 16 4 14
10 -94 14 -240 9 -354 7 -2160 -3 -2230 -4 -30 -8 -43 -9 -27 0 15 -5 27 -11
27 -5 0 -10 9 -10 20 0 11 -6 20 -12 20 -8 0 -9 3 -3 8 6 4 9 16 9 27 -1 11
-2 36 -3 55 -1 26 -4 31 -11 20 -6 -9 -10 -112 -10 -241 0 -124 -3 -347 -7
-495 l-6 -270 -34 -24 c-18 -14 -46 -36 -62 -50 -81 -70 -205 -165 -518 -401
-125 -93 -160 -124 -112 -99 15 9 24 8 35 -1 18 -15 19 -53 0 -46 -10 4 -12 0
-9 -14 4 -15 8 -17 19 -8 8 7 17 10 19 7 3 -2 -27 -29 -66 -59 -163 -124 -315
-244 -329 -258 -8 -8 -49 -39 -90 -70 -41 -30 -116 -88 -167 -127 -50 -39
-102 -79 -114 -88 -25 -17 -24 -20 10 -31 17 -5 21 -4 16 5 -6 9 -2 9 15 0 13
-7 35 -16 49 -20 14 -4 35 -11 45 -16 16 -6 18 -4 13 10 -6 16 -4 16 26 -2 43
-27 82 -38 72 -22 -6 10 2 11 31 6 22 -4 49 -7 61 -7 13 -1 20 -5 17 -10 -9
-15 13 -10 26 6 7 8 18 15 24 15 6 0 4 -5 -4 -10 -13 -9 -13 -10 0 -11 27 -2
43 2 57 17 8 8 19 14 24 14 5 0 4 9 -3 20 -9 14 -19 18 -32 14 -19 -6 -19 -6
-3 10 18 18 39 12 72 -21 14 -14 18 -14 26 -2 13 20 11 27 -8 32 -16 4 -16 5
-1 6 9 0 37 -8 61 -18 25 -11 55 -17 67 -14 16 4 21 2 18 -11 -2 -12 22 -30
90 -66 51 -28 96 -50 99 -50 3 0 -7 12 -23 27 -16 15 -35 26 -42 25 -19 -4
-47 14 -33 22 6 4 11 2 11 -5 0 -6 8 -9 20 -6 11 3 23 1 26 -4 3 -5 12 -9 20
-9 11 0 13 6 9 20 -4 11 -2 20 4 20 6 0 11 -3 11 -8 0 -8 73 -47 108 -57 12
-3 22 -2 22 3 0 5 15 4 34 -2 19 -6 32 -14 30 -18 -3 -4 3 -9 13 -9 83 -5 113
-10 144 -21 21 -8 57 -12 80 -10 38 4 41 6 21 13 -13 5 -33 7 -45 4 -12 -3
-41 1 -65 9 -23 8 -50 12 -59 9 -10 -4 -14 -2 -10 4 4 6 0 14 -9 17 -9 4 -14
9 -10 13 3 4 -6 15 -21 25 -31 20 -27 23 11 8 14 -5 26 -16 26 -23 0 -11 39
-37 55 -37 15 0 1 19 -17 25 -20 6 -20 8 -5 12 12 3 -1 14 -43 35 -33 16 -58
34 -55 38 3 5 26 -2 52 -15 25 -14 54 -25 63 -25 10 0 21 -7 24 -16 4 -10 14
-14 26 -11 13 3 18 1 13 -6 -4 -7 0 -8 11 -4 10 4 15 3 11 -3 -3 -5 7 -12 22
-16 15 -4 45 -15 65 -25 33 -17 38 -17 52 -4 9 10 17 11 21 5 4 -6 10 -8 14
-6 4 3 8 -5 8 -16 3 -31 43 -53 43 -23 0 7 -8 19 -17 24 -10 6 -14 11 -9 11
10 0 84 -39 106 -56 8 -6 32 -14 53 -18 30 -6 37 -4 37 9 0 8 -7 15 -15 15 -8
0 -15 4 -15 10 0 5 -3 9 -7 9 -15 -3 -73 23 -73 32 0 5 -5 9 -12 9 -19 0 -88
33 -88 43 0 4 -4 5 -10 2 -5 -3 -10 -2 -10 4 0 17 20 23 26 8 3 -8 13 -13 22
-10 20 5 118 -34 109 -44 -10 -10 45 -35 65 -30 10 3 16 1 13 -3 -3 -5 -1 -11
5 -15 5 -3 10 -1 10 4 0 6 5 11 10 11 6 0 10 -6 10 -12 0 -14 54 -48 73 -48 7
1 1 7 -13 15 -14 8 -19 14 -12 15 7 0 20 -4 30 -10 9 -5 30 -15 46 -20 16 -6
26 -13 23 -16 -3 -3 -15 0 -27 6 -12 6 -24 10 -26 8 -2 -3 12 -12 32 -21 20
-10 32 -12 28 -6 -5 9 1 10 22 5 l29 -7 -34 25 c-44 33 -29 33 28 1 23 -14 51
-25 61 -25 13 0 17 -5 13 -19 -5 -20 -5 -20 -26 0 -23 21 -23 21 -52 10 -15
-6 -3 -14 60 -39 44 -17 82 -28 84 -26 3 2 -5 13 -17 24 -28 27 -28 31 3 17
14 -7 25 -15 25 -19 0 -5 6 -8 14 -8 7 0 20 -8 27 -17 10 -11 10 -14 2 -9 -7
4 -13 3 -13 -2 0 -6 11 -9 24 -8 13 0 23 3 20 5 -2 2 4 10 14 18 9 8 12 12 5
9 -14 -8 -79 30 -87 49 -3 8 -12 15 -21 15 -8 0 -15 5 -15 10 0 13 3 13 35 -2
14 -6 25 -16 25 -21 0 -6 3 -7 6 -4 4 4 19 -2 35 -13 20 -15 29 -17 33 -8 3 9
8 8 16 -4 12 -19 40 -24 40 -8 0 7 8 6 23 -2 12 -6 30 -13 39 -15 21 -3 158
-63 176 -76 6 -5 12 -15 12 -21 0 -6 -7 -3 -14 6 -7 10 -23 18 -34 18 -11 0
-24 5 -27 11 -4 6 -13 8 -21 5 -8 -3 -24 0 -35 7 -16 10 -21 9 -29 -3 -9 -13
-11 -13 -21 0 -9 13 -10 13 -6 -2 3 -9 1 -18 -5 -20 -15 -5 -2 -38 14 -38 10
0 10 2 -1 9 -9 6 -10 11 -2 15 6 4 32 -3 58 -15 27 -13 53 -23 59 -24 6 0 19
-8 28 -18 10 -9 23 -17 31 -17 7 0 30 -9 52 -19 82 -41 130 -61 149 -61 10 0
28 -7 38 -15 10 -8 22 -12 27 -10 4 3 10 1 14 -5 8 -12 85 -13 85 -1 0 7 -27
15 -87 23 -7 1 -13 5 -13 10 0 4 -8 8 -19 8 -10 0 -24 7 -31 15 -7 8 -19 15
-26 15 -8 0 -14 5 -14 11 0 6 -8 8 -17 5 -10 -3 -25 -1 -33 4 -12 8 -12 10 -1
10 20 0 -28 35 -63 47 -17 5 -32 15 -34 21 -5 17 14 15 32 -3 8 -8 24 -15 35
-15 12 0 21 -4 21 -10 0 -5 7 -10 16 -10 10 0 14 6 10 15 -9 24 13 17 25 -8
10 -23 82 -67 109 -67 20 0 112 -48 127 -67 7 -10 17 -12 27 -6 22 12 4 36
-28 36 -15 0 -29 3 -32 8 -3 5 1 9 10 9 8 0 16 6 19 13 3 9 7 9 18 1 8 -6 25
-15 39 -19 14 -4 49 -18 78 -31 29 -13 63 -23 75 -23 17 1 18 2 5 6 -10 2 -18
9 -18 14 0 5 -8 9 -17 9 -9 0 -14 3 -10 6 7 7 67 -18 67 -27 0 -4 43 -7 95 -8
59 0 93 3 90 9 -4 6 -14 10 -23 10 -9 0 -24 5 -32 10 -10 6 -2 8 25 3 22 -3
47 -12 55 -19 10 -8 42 -13 89 -12 45 0 68 4 60 9 -11 7 -10 9 4 9 9 0 17 -4
17 -10 0 -6 162 -9 430 -10 l430 0 0 367 0 368 -113 39 c-61 21 -231 81 -377
133 -146 53 -364 130 -486 172 -122 42 -229 82 -238 90 -14 12 -17 29 -16 80
3 86 2 93 -10 86 -5 -3 -10 -42 -10 -85 l0 -79 -75 26 -75 25 0 366 c0 201 -2
363 -4 361 -2 -2 -6 -141 -7 -309 -3 -312 -10 -412 -19 -285 l-5 69 -165 53
c-91 30 -173 52 -183 49 -9 -2 -15 0 -12 4 6 10 -51 31 -60 22 -3 -4 -9 -1
-13 5 -5 8 -19 9 -45 3 -21 -4 -39 -4 -43 1 -3 5 -18 9 -33 9 -20 0 -30 6 -34
20 -3 11 -20 27 -39 35 -36 15 -32 18 22 16 27 -1 31 1 20 8 -8 6 -12 11 -7
12 4 1 10 2 15 3 19 4 69 40 86 63 11 15 14 23 8 19 -7 -4 -12 -3 -12 2 0 12
-49 34 -61 27 -5 -4 -9 3 -9 14 0 11 -8 25 -17 30 -14 8 -15 11 -3 11 11 0 10
4 -5 17 l-20 16 20 -8 c11 -4 33 -10 49 -13 16 -3 41 -17 54 -31 18 -18 23
-21 19 -8 -6 15 -3 17 16 11 12 -4 33 -8 47 -10 14 -2 43 -7 65 -13 22 -5 54
-13 70 -17 36 -10 46 -11 65 -13 12 -1 13 -3 1 -10 -18 -11 21 -25 64 -23 17
1 25 -1 20 -5 -18 -13 -15 -51 3 -57 9 -3 -1 -2 -23 2 -22 4 -74 8 -115 8
-166 3 -158 1 -175 34 l-16 30 -26 -24 c-22 -21 -24 -27 -14 -40 8 -9 19 -16
26 -16 8 0 15 -5 17 -10 2 -6 14 -11 28 -12 30 -2 50 -15 50 -34 0 -11 -9 -13
-39 -8 -92 15 -28 -25 84 -53 6 -1 21 -5 34 -9 17 -5 22 -4 17 4 -4 7 -2 12 3
12 6 0 11 -6 11 -14 0 -16 1 -17 147 -66 l111 -38 1 484 2 484 -94 0 c-58 0
-97 -4 -105 -12 -42 -42 -164 -14 -184 42 -5 16 -13 29 -16 28 -9 -3 -89 39
-124 64 -16 11 -28 27 -28 37 0 9 22 38 49 65 l49 48 77 -16 c98 -20 104 -20
98 2 -4 16 5 16 126 -8 71 -14 133 -29 138 -34 4 -5 -3 -6 -17 -3 -143 33
-239 43 -218 22 2 -3 49 -14 104 -25 54 -11 109 -22 120 -25 21 -5 22 -1 23
82 2 83 -8 109 -16 41 -4 -38 -8 -43 -25 -32 -7 5 -24 10 -38 11 -36 4 -109
23 -153 39 -20 8 -48 14 -60 14 -25 0 -77 21 -77 32 0 3 9 4 19 1 16 -4 19 0
17 26 -1 18 4 37 13 44 12 10 13 9 6 -3 -6 -11 -5 -12 4 -4 9 8 9 18 1 38 -17
46 -11 54 9 11 39 -84 122 -128 231 -123 l70 3 0 187 0 188 -41 30 c-73 52
-156 52 -206 0 -32 -34 -58 -37 -92 -11 -28 22 -13 38 20 20 15 -8 19 -8 15 0
-4 7 1 11 13 11 12 0 38 9 58 20 63 33 162 21 215 -27 17 -15 18 -14 18 25 0
24 -5 42 -11 42 -6 0 -9 -7 -5 -15 7 -19 6 -19 -57 1 -68 22 -85 38 -32 31 22
-3 49 -8 60 -12 11 -3 7 1 -10 9 -35 18 -151 21 -191 6 -37 -14 -44 -4 -8 11
43 18 172 16 217 -4 l37 -16 0 229 0 229 28 13 c17 8 28 22 30 38 2 20 1 22
-8 10 -9 -12 -10 -9 -8 15 3 25 -1 31 -22 33 -21 3 -22 2 -11 -11 7 -9 11 -28
9 -44 l-3 -28 -88 -3 -89 -3 4 38 c3 21 1 61 -2 88 l-7 50 -3 -45 c-2 -25 -3
-53 -4 -62 -2 -38 -21 -16 -32 38 -6 31 -18 63 -28 69 -15 11 -16 60 -14 566
l3 554 25 0 c20 0 26 -6 30 -30 5 -27 9 -30 45 -33 22 -2 64 -1 93 3 l52 6 0
40 0 40 -67 -5 c-237 -19 -421 -17 -407 5 3 5 14 9 25 9 11 0 18 4 15 9 -4 5
9 21 26 37 18 15 33 31 33 35 0 5 23 21 50 35 28 14 55 33 62 41 6 8 13 14 15
13 1 -1 15 3 30 9 15 6 53 18 85 27 32 9 67 25 79 35 11 11 26 19 32 19 7 0
12 11 12 25 0 18 -5 25 -20 25 -20 0 -392 -33 -835 -75 -321 -31 -452 -40
-445 -32 6 7 19 9 188 27 62 7 111 15 108 17 -2 2 -79 -1 -170 -8 -126 -9
-170 -9 -179 0 -8 8 -6 11 8 11 14 0 16 3 7 12 -15 15 3 48 26 48 16 0 62 40
62 54 0 11 -28 6 -33 -6 -4 -10 -6 -10 -6 0 -1 7 8 20 18 29 11 9 17 22 14 29
-3 8 1 14 11 14 10 0 13 -5 9 -17 -6 -16 -5 -16 10 -4 11 8 15 21 12 32 -4 11
-2 19 4 19 6 0 11 -8 12 -17 0 -15 2 -15 9 2 14 32 11 38 -15 33 -14 -3 -25
-1 -25 3 0 5 7 9 15 9 8 0 15 8 15 19 0 23 25 47 35 31 13 -21 27 -10 20 17
-5 23 -4 25 9 14 13 -11 16 -11 16 2 0 9 8 21 18 26 14 9 11 10 -16 11 -18 0
-31 4 -28 8 6 10 71 25 211 48 323 55 256 54 -145 -2z m489 -682 l1 -84 -30 7
-30 7 -2 -594 -3 -593 -49 93 c-44 84 -51 92 -77 92 l-29 0 0 -125 0 -125 25
0 c24 0 24 2 27 93 l3 92 53 -102 c40 -79 52 -113 52 -147 0 -41 -2 -45 -26
-48 -29 -3 -39 -17 -48 -60 -4 -18 -11 -25 -23 -23 -10 1 -26 -6 -36 -16 -11
-12 -32 -19 -52 -19 -28 0 -35 -4 -35 -19 0 -10 -7 -24 -15 -31 -13 -11 -15
-8 -15 14 0 14 -4 26 -10 26 -5 0 -10 -4 -10 -10 0 -17 -18 -11 -23 8 -3 9 -5
3 -6 -14 -1 -34 -31 -102 -31 -71 0 9 -4 17 -9 17 -12 0 -21 -25 -21 -57 0
-21 -3 -23 -14 -13 -8 6 -17 21 -19 33 -3 15 -5 11 -6 -11 -1 -29 -4 -33 -22
-27 -15 5 -19 4 -15 -4 4 -6 1 -14 -7 -17 -10 -4 -13 -22 -11 -77 3 -68 15
-101 22 -57 7 40 22 19 22 -30 0 -27 -4 -50 -9 -50 -19 0 -48 65 -47 103 1 20
-2 37 -6 37 -5 0 -8 -29 -7 -64 1 -50 5 -63 15 -59 8 3 14 1 14 -5 0 -5 -7
-12 -15 -16 -8 -3 -14 -13 -14 -23 1 -17 2 -17 6 0 2 9 9 17 15 17 5 0 7 -7 4
-16 -3 -9 -6 -28 -6 -42 0 -21 -2 -24 -10 -12 -7 11 -10 4 -10 -27 0 -24 5
-43 13 -46 9 -3 9 -9 -1 -26 -7 -12 -10 -26 -6 -32 12 -20 16 -71 5 -64 -8 4
-12 -61 -13 -217 -1 -123 -3 -248 -4 -278 -1 -30 -2 -108 -3 -172 -1 -126 -15
-156 -26 -58 -4 33 -11 60 -16 60 -5 0 -9 9 -9 20 0 11 7 20 15 20 12 0 15 13
15 55 0 40 -4 57 -15 61 -13 5 -15 122 -15 965 0 846 2 959 15 959 21 0 21 95
1 107 -12 6 -15 47 -18 200 -3 176 -2 192 15 197 26 7 25 106 -2 113 -17 4
-19 16 -20 114 0 100 2 112 22 132 13 13 24 39 27 67 6 56 12 57 169 40 95
-11 115 -10 122 1 7 11 9 11 9 -2 0 -12 20 -18 93 -28 50 -7 99 -13 107 -13 8
-1 20 -8 27 -17 10 -13 13 -8 14 34 l2 50 7 -55 c5 -30 8 -92 9 -138z m-712
153 c19 -5 21 -11 21 -85 0 -89 -33 -210 -55 -203 -9 3 -13 -5 -13 -24 0 -15
0 -488 0 -1050 0 -682 -3 -1023 -10 -1023 -6 0 -10 34 -10 83 0 45 -2 550 -4
1122 -2 572 -2 1072 1 1110 5 76 12 83 70 70z m796 -269 c6 -44 14 -56 37 -56
10 0 22 -5 26 -11 5 -9 -3 -10 -30 -5 -29 6 -36 4 -36 -9 0 -8 8 -15 19 -15
14 0 17 -6 13 -25 -2 -14 -8 -25 -13 -25 -5 0 -6 -7 -3 -15 4 -8 10 -13 14
-10 12 8 19 -113 8 -152 -14 -51 -3 -99 25 -107 22 -6 22 -7 -5 -21 -17 -10
-25 -21 -22 -30 4 -8 2 -15 -4 -15 -6 0 -8 -9 -5 -19 3 -10 -1 -29 -7 -42 -7
-12 -14 -74 -16 -136 l-4 -113 37 -1 38 -2 -37 -10 -38 -11 0 -82 c0 -77 -1
-82 -20 -77 -15 4 -20 0 -20 -16 0 -11 -4 -21 -10 -21 -11 0 -15 1056 -4 1084
9 23 22 20 27 -6 3 -19 5 -17 6 7 l3 30 8 -28 c5 -15 11 -43 13 -61z m-716
-148 c-2 -13 -4 -5 -4 17 -1 22 1 32 4 23 2 -10 2 -28 0 -40z m0 -500 c-2 -13
-4 -5 -4 17 -1 22 1 32 4 23 2 -10 2 -28 0 -40z m0 -60 c-3 -8 -6 -5 -6 6 -1
11 2 17 5 13 3 -3 4 -12 1 -19z m490 -780 c-3 -8 -6 -5 -6 6 -1 11 2 17 5 13
3 -3 4 -12 1 -19z m8 -185 c-4 -71 -9 -130 -12 -133 -5 -6 -3 172 4 223 10 77
14 32 8 -90z m105 -37 c0 -31 -19 -86 -31 -86 -3 0 -5 37 -6 82 0 82 0 82 18
59 11 -13 19 -38 19 -55z m-440 19 c0 -8 -4 -15 -9 -15 -13 0 -22 16 -14 24
11 11 23 6 23 -9z m775 7 c-53 -42 -60 -46 -33 -19 16 15 31 27 35 27 4 0 3
-3 -2 -8z m-105 -102 c0 -5 -7 -10 -15 -10 -8 0 -15 5 -15 10 0 6 7 10 15 10
8 0 15 -4 15 -10z m-339 -150 l-8 -115 -2 111 c-1 96 4 133 15 121 2 -2 0 -55
-5 -117z m719 -56 c0 -92 -4 -153 -9 -149 -5 3 -17 -2 -26 -11 -21 -21 -97
-14 -127 12 -12 11 -18 13 -14 7 5 -9 2 -11 -8 -7 -22 8 -20 13 12 25 l27 11
-33 15 c-26 11 -32 18 -26 31 4 9 8 35 8 57 1 22 6 40 11 40 35 2 78 35 45 35
-16 0 -11 17 7 25 10 3 19 1 21 -4 2 -6 8 -11 14 -11 6 0 6 6 -2 15 -10 12 -9
15 4 15 9 0 20 10 25 22 5 14 10 17 15 10 11 -18 23 -14 29 9 3 12 10 18 16
14 7 -4 11 -62 11 -161z m-1055 134 c-4 -13 -7 -31 -8 -40 -1 -10 -5 -18 -9
-18 -7 0 -5 54 1 78 1 1 6 2 12 2 7 0 9 -8 4 -22z m959 14 c-6 -4 -14 -16 -18
-27 -6 -13 -10 -16 -13 -7 -6 15 14 42 31 42 8 0 8 -3 0 -8z m-49 -42 c3 -5
-1 -10 -9 -10 -9 0 -16 5 -16 10 0 6 4 10 9 10 6 0 13 -4 16 -10z m-232 -132
c23 -2 41 -7 40 -13 -3 -14 -53 -19 -66 -6 -20 20 -23 11 -26 -67 -1 -56 2
-82 12 -90 13 -11 215 -54 312 -67 79 -10 105 -16 105 -24 0 -7 -240 33 -355
59 -79 18 -85 27 -85 140 0 54 3 119 8 146 l7 49 3 -62 3 -62 42 -3z m-726 70
c-3 -8 -6 -5 -6 6 -1 11 2 17 5 13 3 -3 4 -12 1 -19z m53 -12 c0 -34 -15 -57
-22 -34 -6 18 3 68 13 68 5 0 9 -15 9 -34z m860 -140 c0 -3 -4 -8 -10 -11 -5
-3 -10 -1 -10 4 0 6 5 11 10 11 6 0 10 -2 10 -4z m-1223 -158 c-3 -7 -5 -2 -5
12 0 14 2 19 5 13 2 -7 2 -19 0 -25z m19 -77 c3 -25 1 -41 -6 -41 -5 0 -10 21
-10 47 0 55 10 52 16 -6z m4 -138 c0 -42 -2 -74 -4 -72 -8 10 -14 159 -5 154
5 -4 9 -40 9 -82z m669 -207 c-13 -14 -320 -143 -324 -137 -4 8 290 140 314
141 8 0 12 -2 10 -4z m-408 -333 c0 -60 2 -118 3 -131 2 -16 -1 -21 -11 -17
-8 3 -17 5 -19 5 -2 0 -4 5 -4 11 0 5 5 7 10 4 6 -3 10 -1 10 4 0 6 -4 11 -8
11 -5 0 -6 24 -2 53 4 28 6 78 5 110 -1 31 2 57 7 57 4 0 8 -48 9 -107z m901
-5 c-9 -9 -12 -7 -12 12 0 19 3 21 12 12 9 -9 9 -15 0 -24z m63 -38 c86 -20
80 -27 -7 -9 -85 17 -153 38 -174 54 -12 8 3 6 41 -7 33 -11 96 -28 140 -38z
m-395 -86 c0 -14 -3 -15 -17 -3 -10 7 -20 15 -22 16 -2 2 5 3 17 3 14 0 22 -6
22 -16z m-437 -98 c62 -19 174 -55 248 -79 74 -24 202 -65 284 -91 333 -106
460 -151 435 -154 -13 -2 -26 1 -28 7 -2 6 -7 9 -11 6 -4 -2 -111 30 -237 71
-126 41 -267 86 -314 99 -126 36 -528 174 -508 174 9 1 68 -15 131 -33z m265
-6 c19 0 87 -39 80 -46 -6 -5 -109 36 -123 49 -7 7 -4 8 8 3 10 -3 26 -6 35
-6z m322 -10 c0 -5 -4 -10 -10 -10 -5 0 -10 5 -10 10 0 6 5 10 10 10 6 0 10
-4 10 -10z m357 -26 c-3 -3 -12 -4 -19 -1 -8 3 -5 6 6 6 11 1 17 -2 13 -5z
m-147 -14 c0 -5 -5 -10 -11 -10 -5 0 -7 5 -4 10 3 6 8 10 11 10 2 0 4 -4 4
-10z m-385 -50 c3 -5 2 -10 -4 -10 -5 0 -13 5 -16 10 -3 6 -2 10 4 10 5 0 13
-4 16 -10z m296 -6 c7 -8 21 -13 31 -11 10 3 18 1 18 -4 0 -13 -61 -8 -83 7
-14 9 -15 13 -5 17 21 9 25 8 39 -9z m-1806 -343 c-6 -5 -25 10 -25 20 0 5 6
4 14 -3 8 -7 12 -15 11 -17z m130 -579 c-3 -3 -11 0 -18 7 -9 10 -8 11 6 5 10
-3 15 -9 12 -12z m-425 -14 c10 -6 7 -7 -10 -2 -14 3 -32 11 -40 16 -10 6 -7
7 10 2 14 -3 32 -11 40 -16z m491 -15 c24 -4 72 -34 65 -41 -3 -3 -12 1 -20 7
-10 9 -20 9 -33 2 -11 -5 -25 -6 -32 -2 -10 6 -9 10 4 14 10 5 14 3 9 -5 -4
-7 -3 -8 5 -4 15 10 4 27 -14 20 -8 -3 -19 4 -26 18 -11 21 -11 22 5 8 10 -8
27 -15 37 -17z m-684 1 c-3 -3 -12 -4 -19 -1 -8 3 -5 6 6 6 11 1 17 -2 13 -5z
m568 -12 c-3 -3 -11 0 -18 7 -9 10 -8 11 6 5 10 -3 15 -9 12 -12z m-460 -13
c-4 -5 1 -19 11 -30 9 -10 12 -19 6 -19 -6 0 -18 10 -26 22 -15 22 -13 38 5
38 6 0 7 -5 4 -11z m-65 -19 c0 -5 -4 -10 -10 -10 -5 0 -10 5 -10 10 0 6 5 10
10 10 6 0 10 -4 10 -10z m1795 0 c3 -5 2 -10 -4 -10 -5 0 -13 5 -16 10 -3 6
-2 10 4 10 5 0 13 -4 16 -10z m-1110 -10 c4 -6 -1 -7 -12 -4 -10 3 -2 -8 17
-25 19 -17 41 -31 48 -31 6 0 12 -5 12 -11 0 -7 -9 -5 -22 5 -13 9 -40 24 -62
33 -36 15 -37 17 -20 30 21 16 31 16 39 3z m420 -8 c-3 -3 -11 0 -18 7 -9 10
-8 11 6 5 10 -3 15 -9 12 -12z m-620 -1 c3 -5 1 -12 -5 -16 -5 -3 -10 1 -10 9
0 18 6 21 15 7z m540 -1 c-3 -5 -12 -10 -18 -10 -7 0 -6 4 3 10 19 12 23 12
15 0z m154 -25 c16 -8 48 -18 72 -21 28 -5 54 -17 72 -36 32 -31 28 -35 -11
-13 -15 8 -62 28 -104 46 -43 17 -78 33 -78 35 0 8 22 4 49 -11z m-124 -65 c3
-5 2 -10 -4 -10 -5 0 -13 5 -16 10 -3 6 -2 10 4 10 5 0 13 -4 16 -10z m352
-54 c-6 -17 -31 -13 -35 6 -2 12 2 15 18 11 11 -3 19 -11 17 -17z m220 -42
c-7 -7 -37 7 -37 17 0 6 9 5 21 -1 11 -7 19 -14 16 -16z m1177 -167 c3 3 6 -1
6 -10 0 -20 -9 -21 -32 -3 -24 18 -23 29 1 17 10 -6 21 -7 25 -4z m-549 -35
c-3 -3 -11 0 -18 7 -9 10 -8 11 6 5 10 -3 15 -9 12 -12z m709 -28 c3 -9 1 -12
-4 -9 -6 3 -10 1 -10 -5 0 -6 -5 -8 -12 -4 -9 6 -9 9 0 12 10 3 10 7 1 18 -10
12 -9 13 4 8 8 -3 18 -12 21 -20z m51 -14 c3 -6 -2 -8 -12 -5 -21 7 10 -9 42
-21 19 -6 18 -7 -5 -14 -18 -4 -30 -1 -42 13 -17 19 -16 37 2 37 5 0 12 -4 15
-10z m-320 -10 c-3 -5 -11 -10 -16 -10 -6 0 -7 5 -4 10 3 6 11 10 16 10 6 0 7
-4 4 -10z m45 -24 c0 -3 -4 -8 -10 -11 -5 -3 -10 -1 -10 4 0 6 5 11 10 11 6 0
10 -2 10 -4z m212 -4 c-7 -5 -10 -16 -6 -28 6 -18 6 -18 -9 1 -17 23 -14 35
11 35 13 0 14 -2 4 -8z m-502 -12 c0 -5 -6 -10 -14 -10 -8 0 -18 5 -21 10 -3
6 3 10 14 10 12 0 21 -4 21 -10z m386 -27 c-2 -2 -17 3 -35 10 -17 7 -29 16
-25 19 3 4 18 -1 34 -10 16 -9 27 -18 26 -19z m229 17 c3 -6 -4 -10 -17 -10
-18 0 -20 2 -8 10 19 12 18 12 25 0z m15 -34 c0 -3 -4 -8 -10 -11 -5 -3 -10
-1 -10 4 0 6 5 11 10 11 6 0 10 -2 10 -4z m50 -6 c0 -13 -11 -13 -30 0 -12 8
-11 10 8 10 12 0 22 -4 22 -10z"/>
<path d="M10232 3290 c0 -19 2 -27 5 -17 2 9 2 25 0 35 -3 9 -5 1 -5 -18z"/>
<path d="M10831 3984 c0 -11 3 -14 6 -6 3 7 2 16 -1 19 -3 4 -6 -2 -5 -13z"/>
<path d="M11332 3080 c0 -14 2 -19 5 -12 2 6 2 18 0 25 -3 6 -5 1 -5 -13z"/>
<path d="M11200 2920 c0 -5 5 -10 11 -10 5 0 7 5 4 10 -3 6 -8 10 -11 10 -2 0
-4 -4 -4 -10z"/>
<path d="M11160 2866 c0 -2 7 -7 16 -10 8 -3 12 -2 9 4 -6 10 -25 14 -25 6z"/>
<path d="M11270 2790 c-13 -8 -12 -10 3 -10 9 0 17 5 17 10 0 12 -1 12 -20 0z"/>
<path d="M10518 5333 c7 -3 16 -2 19 1 4 3 -2 6 -13 5 -11 0 -14 -3 -6 -6z"/>
<path d="M10393 5323 c9 -2 23 -2 30 0 6 3 -1 5 -18 5 -16 0 -22 -2 -12 -5z"/>
<path d="M6650 5307 c3 -3 46 -11 95 -18 50 -7 93 -17 96 -22 4 -5 12 0 18 12
11 20 10 21 -36 22 -26 0 -77 3 -113 6 -36 3 -63 3 -60 0z"/>
<path d="M2370 5213 c0 -16 5 -35 10 -43 7 -11 10 -4 10 28 0 23 -4 42 -10 42
-5 0 -10 -12 -10 -27z"/>
<path d="M6883 5133 c9 -2 23 -2 30 0 6 3 -1 5 -18 5 -16 0 -22 -2 -12 -5z"/>
<path d="M2584 5113 c3 -22 17 -28 26 -13 8 12 10 10 10 -7 0 -15 5 -21 14
-17 8 3 12 12 10 19 -4 8 3 15 18 17 13 2 0 6 -28 9 -37 3 -51 1 -50 -8z"/>
<path d="M2690 5104 c0 -8 9 -14 20 -14 11 0 20 -4 20 -10 0 -5 5 -10 11 -10
6 0 9 7 5 15 -3 9 0 15 9 15 8 0 15 -7 15 -16 0 -8 4 -13 9 -10 5 4 8 14 7 23
-3 22 -96 28 -96 7z"/>
<path d="M2800 5103 c0 -13 5 -23 10 -23 13 0 13 11 0 30 -8 12 -10 11 -10 -7z"/>
<path d="M2832 5085 c3 -28 28 -35 28 -7 0 11 7 18 20 18 11 0 20 -6 20 -13 0
-9 8 -11 26 -7 15 4 36 8 48 9 47 5 49 8 11 15 -27 5 -43 4 -48 -4 -6 -8 -10
-8 -14 2 -3 7 -23 12 -49 12 -41 0 -44 -2 -42 -25z"/>
<path d="M3079 5098 c-7 -16 -4 -48 4 -45 13 4 18 35 6 43 -5 3 -10 4 -10 2z"/>
<path d="M3040 5080 c0 -5 5 -10 10 -10 6 0 10 5 10 10 0 6 -4 10 -10 10 -5 0
-10 -4 -10 -10z"/>
<path d="M3112 5070 c0 -14 2 -19 5 -12 2 6 2 18 0 25 -3 6 -5 1 -5 -13z"/>
<path d="M3140 5075 c0 -8 5 -15 10 -15 6 0 10 7 10 15 0 8 -4 15 -10 15 -5 0
-10 -7 -10 -15z"/>
<path d="M3170 5075 c0 -8 5 -15 10 -15 6 0 10 5 10 10 0 6 5 10 10 10 6 0 10
-6 8 -12 -2 -7 2 -14 7 -15 6 -2 10 2 10 7 0 6 7 15 15 20 11 7 3 10 -27 10
-32 0 -43 -4 -43 -15z"/>
<path d="M2698 5073 c7 -3 16 -2 19 1 4 3 -2 6 -13 5 -11 0 -14 -3 -6 -6z"/>
<path d="M2870 5070 c0 -5 5 -10 10 -10 6 0 10 5 10 10 0 6 -4 10 -10 10 -5 0
-10 -4 -10 -10z"/>
<path d="M2990 5070 l-25 -8 27 -1 c15 -1 30 4 33 9 7 11 0 11 -35 0z"/>
<path d="M3270 5069 c0 -6 7 -9 15 -5 14 5 20 -5 16 -27 -1 -5 3 -6 8 -3 18
12 103 17 96 6 -3 -5 -1 -10 5 -10 7 0 10 7 6 15 -3 8 -1 15 4 15 6 0 10 -7
10 -15 0 -8 5 -15 10 -15 6 0 10 11 10 24 0 19 -5 24 -25 22 -14 0 -25 -5 -25
-11 0 -5 -5 -3 -10 5 -7 10 -12 12 -17 4 -5 -6 -18 -14 -30 -18 -17 -6 -23 -3
-23 8 0 10 -9 16 -25 16 -14 0 -25 -5 -25 -11z"/>
<path d="M2940 5060 c0 -5 5 -10 11 -10 5 0 7 5 4 10 -3 6 -8 10 -11 10 -2 0
-4 -4 -4 -10z"/>
<path d="M3240 5059 c0 -5 5 -7 10 -4 6 3 10 8 10 11 0 2 -4 4 -10 4 -5 0 -10
-5 -10 -11z"/>
<path d="M3490 5060 c0 -5 -7 -7 -15 -4 -8 4 -15 1 -15 -5 0 -6 9 -11 19 -11
11 0 22 -6 24 -12 3 -8 6 -5 6 6 1 15 4 16 16 6 13 -10 15 -9 15 9 0 16 -6 21
-25 21 -14 0 -25 -4 -25 -10z"/>
<path d="M3550 5045 c0 -29 6 -31 26 -10 9 9 11 15 4 15 -6 0 -8 5 -5 10 3 6
-1 10 -9 10 -10 0 -16 -9 -16 -25z"/>
<path d="M3158 5043 c6 -2 18 -2 25 0 6 3 1 5 -13 5 -14 0 -19 -2 -12 -5z"/>
<path d="M1351 4604 c0 -11 3 -14 6 -6 3 7 2 16 -1 19 -3 4 -6 -2 -5 -13z"/>
<path d="M1385 4610 c-3 -5 -1 -10 4 -10 6 0 11 5 11 10 0 6 -2 10 -4 10 -3 0
-8 -4 -11 -10z"/>
<path d="M1530 4600 c0 -5 5 -10 10 -10 6 0 10 5 10 10 0 6 -4 10 -10 10 -5 0
-10 -4 -10 -10z"/>
<path d="M1605 4600 c3 -5 8 -10 11 -10 2 0 4 5 4 10 0 6 -5 10 -11 10 -5 0
-7 -4 -4 -10z"/>
<path d="M1715 4590 c3 -5 13 -10 21 -10 8 0 14 5 14 10 0 6 -9 10 -21 10 -11
0 -17 -4 -14 -10z"/>
<path d="M1800 4589 c0 -5 16 -9 36 -9 19 0 33 4 30 8 -7 12 -66 13 -66 1z"/>
<path d="M1978 4583 c7 -3 16 -2 19 1 4 3 -2 6 -13 5 -11 0 -14 -3 -6 -6z"/>
<path d="M9608 4343 c6 -2 18 -2 25 0 6 3 1 5 -13 5 -14 0 -19 -2 -12 -5z"/>
<path d="M9518 4313 c7 -3 16 -2 19 1 4 3 -2 6 -13 5 -11 0 -14 -3 -6 -6z"/>
<path d="M3160 4039 c0 -7 -12 -10 -29 -7 -17 2 -28 1 -25 -4 9 -15 64 -9 64
7 0 8 -2 15 -5 15 -3 0 -5 -5 -5 -11z"/>
<path d="M3220 4034 l-45 -14 75 5 c41 2 76 4 78 5 2 0 1 4 -2 8 -7 12 -57 10
-106 -4z"/>
<path d="M3380 4039 c0 -5 9 -9 20 -9 11 0 20 2 20 4 0 2 -9 6 -20 9 -11 3
-20 1 -20 -4z"/>
<path d="M2786 4033 c-17 -17 1 -23 74 -23 44 0 80 4 80 8 0 8 -6 10 -91 17
-31 2 -59 1 -63 -2z"/>
<path d="M2950 4026 c0 -13 10 -16 53 -15 l52 0 -34 17 c-27 13 -35 14 -39 4
-3 -10 -7 -10 -18 -1 -11 9 -14 8 -14 -5z"/>
<path d="M2520 4009 c0 -21 3 -22 61 -15 34 3 91 6 125 6 50 0 64 3 64 15 0
13 -21 15 -125 15 -121 0 -125 -1 -125 -21z"/>
<path d="M1798 3992 c-36 -2 -48 -7 -48 -19 0 -12 8 -14 38 -10 20 4 93 7 162
9 69 1 148 5 175 8 142 15 -123 25 -327 12z"/>
<path d="M1528 3983 c-27 -2 -48 -10 -51 -18 -5 -10 9 -13 64 -13 61 0 69 2
69 19 0 12 -6 18 -17 17 -10 -1 -39 -3 -65 -5z"/>
<path d="M1360 3964 c-23 -13 -20 -14 40 -12 36 0 54 3 40 5 -14 3 -29 9 -34
14 -12 11 -15 11 -46 -7z"/>
<path d="M1673 3913 c9 -2 23 -2 30 0 6 3 -1 5 -18 5 -16 0 -22 -2 -12 -5z"/>
<path d="M3239 3916 c-2 -2 -128 -9 -279 -15 -391 -16 -440 -20 -440 -37 0 -8
5 -14 10 -14 6 0 10 -143 11 -407 1 -225 4 -419 8 -433 16 -57 20 67 15 453
l-6 397 66 0 66 0 1 -225 c1 -124 3 -229 4 -235 1 -5 3 -76 4 -157 0 -80 3
-144 6 -141 3 3 5 174 6 380 l0 376 22 6 c12 3 41 6 65 6 l42 0 0 -269 c0
-312 12 -421 20 -176 3 88 3 223 0 300 -3 77 -5 141 -5 142 1 2 29 6 63 9 56
6 62 5 63 -12 0 -10 2 -89 3 -174 4 -302 6 -383 11 -378 3 3 5 132 5 286 l0
282 33 1 c17 0 44 3 59 5 23 4 29 0 34 -21 3 -14 4 -39 2 -55 -3 -17 -1 -30 4
-30 4 0 8 25 8 55 l0 55 60 0 60 0 1 -202 c1 -212 3 -266 14 -276 3 -3 5 102
3 235 l-3 242 29 5 c16 3 43 6 62 6 l33 0 -3 -152 c-2 -84 0 -205 4 -268 5
-92 7 -63 8 151 l2 266 33 11 c26 8 12 10 -84 11 -64 1 -118 -1 -120 -3z"/>
<path d="M11383 3903 c9 -2 23 -2 30 0 6 3 -1 5 -18 5 -16 0 -22 -2 -12 -5z"/>
<path d="M870 3785 c0 -56 3 -75 13 -75 10 0 14 19 13 75 0 54 -4 75 -13 75
-9 0 -13 -21 -13 -75z"/>
<path d="M1991 3852 c-101 -3 -686 -40 -721 -45 -14 -2 -28 -5 -32 -5 -12 -3
-10 -132 2 -132 6 0 10 26 10 59 l0 59 71 4 c39 2 75 0 81 -3 11 -7 12 -195 2
-493 -6 -181 -4 -220 7 -227 10 -6 10 -9 2 -9 -9 0 -13 -17 -12 -52 0 -36 3
-47 8 -33 6 16 9 14 15 -15 7 -31 9 -32 16 -15 5 11 9 14 9 7 1 -20 21 -3 21
18 0 10 5 22 11 25 6 4 9 1 8 -6 -2 -8 0 -27 4 -43 8 -27 9 -28 27 -11 11 10
20 13 20 7 0 -6 7 -9 17 -5 13 5 15 2 11 -15 -4 -13 0 -23 8 -26 10 -4 14 4
15 32 2 74 4 90 12 98 4 4 8 -1 8 -12 1 -12 4 -7 9 11 8 30 8 29 9 -8 0 -21 4
-37 9 -35 4 2 21 10 37 17 17 7 42 19 57 27 32 17 55 18 61 2 4 -10 9 80 6
109 0 4 8 10 18 14 16 7 16 8 1 8 -16 1 -17 25 -15 329 l2 327 73 3 72 3 1
-358 c0 -197 4 -376 8 -398 l9 -40 2 40 c2 22 3 202 4 400 l1 360 73 3 72 3 0
-95 c0 -52 -4 -106 -10 -120 -6 -16 -6 -26 0 -26 5 0 9 -54 9 -125 0 -116 -1
-125 -19 -125 -24 0 -31 -11 -23 -38 7 -27 23 -19 23 11 0 18 2 19 10 7 5 -8
10 -61 10 -117 0 -62 4 -103 10 -103 6 0 10 90 10 250 0 160 4 250 10 250 6 0
10 7 10 15 0 8 -4 15 -10 15 -6 0 -10 40 -10 99 0 113 -1 111 86 111 l54 0 0
-59 c0 -33 5 -63 10 -66 6 -4 10 -3 9 2 -1 4 -1 36 0 70 1 49 4 62 18 65 20 4
-213 4 -326 0z m-453 -66 c-7 -8 -15 -14 -18 -14 -25 1 -30 -6 -30 -47 0 -40
3 -45 23 -45 18 0 19 -2 7 -10 -13 -8 -12 -10 3 -10 27 0 20 -18 -13 -35 -16
-9 -30 -23 -31 -33 0 -9 0 -54 -1 -99 0 -86 -11 -107 -24 -50 -8 34 -14 337
-7 350 2 4 27 7 54 7 42 0 48 -2 37 -14z m-61 -763 c-3 -10 -5 -4 -5 12 0 17
2 24 5 18 2 -7 2 -21 0 -30z m-60 -5 c-3 -8 -6 -5 -6 6 -1 11 2 17 5 13 3 -3
4 -12 1 -19z"/>
<path d="M3533 3765 c0 -44 2 -61 4 -37 2 23 2 59 0 80 -2 20 -4 1 -4 -43z"/>
<path d="M3127 3553 c3 -98 7 -180 9 -182 2 -2 4 77 4 177 0 100 -4 182 -8
182 -5 0 -7 -80 -5 -177z"/>
<path d="M2284 3654 c-4 -14 -2 -40 4 -57 9 -30 10 -28 11 26 1 61 -5 73 -15
31z"/>
<path d="M3534 3535 c0 -82 2 -115 3 -72 2 43 2 110 0 150 -1 40 -3 5 -3 -78z"/>
<path d="M1231 3313 c1 -170 5 -330 8 -358 l7 -50 5 40 c10 97 1 675 -11 675
-8 0 -10 -99 -9 -307z"/>
<path d="M2078 3550 c3 -49 1 -70 -7 -70 -6 0 -11 -5 -11 -11 0 -5 4 -8 9 -4
5 3 12 -5 14 -17 3 -13 5 19 5 70 -1 51 -4 94 -8 97 -4 2 -5 -27 -2 -65z"/>
<path d="M6836 3535 c-9 -45 1 -95 19 -95 16 0 24 39 16 86 -8 49 -27 54 -35
9z"/>
<path d="M2280 3504 c0 -8 5 -12 10 -9 6 3 10 10 10 16 0 5 -4 9 -10 9 -5 0
-10 -7 -10 -16z"/>
<path d="M1878 3377 c3 -66 0 -112 -7 -125 -7 -14 -8 -23 -1 -27 17 -10 11
-53 -7 -58 -17 -4 -17 -5 0 -6 21 -1 24 -46 2 -55 -20 -7 -7 -36 17 -36 19 0
20 7 18 168 -2 178 -7 242 -19 242 -4 0 -6 -47 -3 -103z"/>
<path d="M2287 3473 c-3 -5 -1 -17 4 -28 7 -17 8 -17 8 8 1 27 -4 34 -12 20z"/>
<path d="M2030 3320 c0 -5 7 -10 15 -10 8 0 15 5 15 10 0 6 -7 10 -15 10 -8 0
-15 -4 -15 -10z"/>
<path d="M2992 3260 c0 -14 2 -19 5 -12 2 6 2 18 0 25 -3 6 -5 1 -5 -13z"/>
<path d="M2030 3250 c0 -5 4 -10 9 -10 6 0 13 5 16 10 3 6 -1 10 -9 10 -9 0
-16 -4 -16 -10z"/>
<path d="M2210 3221 c0 -12 5 -21 10 -21 6 0 10 6 10 14 0 8 -4 18 -10 21 -5
3 -10 -3 -10 -14z"/>
<path d="M9902 3180 c0 -14 2 -19 5 -12 2 6 2 18 0 25 -3 6 -5 1 -5 -13z"/>
<path d="M2030 3179 c0 -5 5 -7 10 -4 6 3 10 8 10 11 0 2 -4 4 -10 4 -5 0 -10
-5 -10 -11z"/>
<path d="M7440 3179 c-19 -5 -129 -29 -245 -54 -115 -25 -234 -51 -262 -58
l-53 -12 0 -107 0 -107 34 -7 c19 -3 39 -3 45 1 6 3 11 1 11 -5 0 -6 4 -9 9
-6 15 9 99 -6 118 -21 16 -12 15 -13 -12 -8 -34 7 -17 -7 24 -20 17 -5 21 -4
16 5 -5 8 -2 11 11 7 11 -3 36 -8 58 -12 32 -5 38 -4 33 9 -5 11 8 9 61 -10
37 -13 77 -24 90 -24 13 0 33 -5 45 -12 21 -10 21 -10 7 7 -14 17 -13 18 30
10 25 -4 54 -8 65 -9 11 -1 31 -6 45 -10 23 -8 38 -11 79 -15 7 0 11 -7 7 -16
-3 -8 -1 -15 3 -15 5 0 11 5 13 12 3 7 14 9 33 4 23 -6 26 -9 14 -17 -9 -6 -5
-7 16 -3 17 3 66 -4 110 -14 44 -11 82 -15 83 -11 2 5 13 9 24 9 17 0 18 2 8
15 -14 17 -8 31 9 20 6 -3 11 -20 11 -37 0 -17 2 -29 4 -27 8 9 17 315 11 374
-7 58 -9 63 -34 69 -14 3 -125 28 -246 56 -121 27 -224 50 -230 49 -5 -1 -26
-5 -45 -10z m474 -460 c-3 -5 -14 -9 -25 -9 -10 0 -19 4 -19 9 0 5 11 9 25 9
13 0 22 -4 19 -9z m-31 -20 c20 -5 37 -14 37 -19 0 -13 -1 -13 -51 10 -49 22
-44 25 14 9z"/>
<path d="M2030 3144 c0 -8 5 -12 10 -9 6 4 8 11 5 16 -9 14 -15 11 -15 -7z"/>
<path d="M2036 3104 c-8 -22 -8 -54 2 -54 4 0 7 16 8 35 1 39 -1 42 -10 19z"/>
<path d="M1916 3035 c-15 -8 -34 -15 -41 -15 -24 0 -36 -26 -25 -54 13 -35 30
-33 30 4 0 26 3 29 25 28 14 -1 25 -7 25 -12 0 -5 3 -7 6 -3 4 4 13 67 10 67
-1 0 -14 -7 -30 -15z"/>
<path d="M9902 2935 c0 -16 2 -22 5 -12 2 9 2 23 0 30 -3 6 -5 -1 -5 -18z"/>
<path d="M1402 2910 c0 -14 2 -19 5 -12 2 6 2 18 0 25 -3 6 -5 1 -5 -13z"/>
<path d="M2528 2883 c7 -3 16 -2 19 1 4 3 -2 6 -13 5 -11 0 -14 -3 -6 -6z"/>
<path d="M4420 2876 c0 -8 5 -18 10 -21 6 -3 10 3 10 14 0 12 -4 21 -10 21 -5
0 -10 -6 -10 -14z"/>
<path d="M2386 2826 c-4 -15 -17 -28 -33 -34 -27 -9 -27 -9 10 -10 36 0 37 1
37 34 0 40 -5 44 -14 10z"/>
<path d="M3838 2783 c7 -3 16 -2 19 1 4 3 -2 6 -13 5 -11 0 -14 -3 -6 -6z"/>
<path d="M7250 2750 c0 -13 7 -20 19 -20 11 0 28 -3 38 -6 15 -5 15 -4 3 5
-13 9 -12 11 5 11 14 1 10 5 -14 15 -44 20 -51 19 -51 -5z"/>
<path d="M3643 2753 c9 -2 23 -2 30 0 6 3 -1 5 -18 5 -16 0 -22 -2 -12 -5z"/>
<path d="M3430 2729 c-63 -10 -263 -41 -445 -69 -411 -64 -420 -65 -530 -85
-49 -9 -164 -27 -255 -40 -91 -14 -253 -38 -360 -55 -107 -17 -316 -49 -465
-71 -148 -21 -293 -43 -322 -49 -28 -5 -91 -7 -138 -4 -61 4 -85 2 -80 -5 3
-6 10 -9 14 -7 4 3 13 0 21 -6 11 -7 6 -8 -17 -4 -21 3 -33 1 -33 -5 0 -6 -6
-9 -14 -6 -8 3 -30 2 -48 -4 -18 -5 -51 -11 -73 -13 -22 -3 -49 -7 -60 -11
-16 -6 -17 -5 -5 4 12 9 10 11 -13 11 -18 0 -26 -4 -21 -11 4 -7 -2 -10 -17
-8 -13 2 -30 0 -36 -4 -9 -6 -11 -3 -7 7 3 9 13 16 22 16 8 0 13 2 10 5 -3 3
-40 -1 -82 -8 -42 -7 -75 -15 -72 -17 9 -9 -149 -5 -163 4 -10 7 -12 6 -6 -4
6 -10 2 -12 -16 -7 -13 4 -32 7 -42 7 -10 0 -15 5 -11 11 3 6 17 8 33 4 20 -5
23 -4 15 5 -9 9 -31 9 -90 0 -140 -20 -124 0 -124 -160 0 -78 4 -141 10 -145
10 -6 57 35 53 47 -1 3 4 9 12 12 8 3 15 1 15 -4 0 -6 5 -10 10 -10 6 0 10 8
10 18 0 14 2 15 10 2 7 -12 11 -10 18 10 9 23 9 23 14 2 4 -12 11 -22 18 -22
6 0 8 5 5 10 -3 6 -2 10 4 10 5 0 13 -4 16 -10 11 -17 45 -12 44 8 0 10 -3 12
-6 5 -8 -22 -33 -14 -33 10 0 16 3 18 9 8 5 -7 13 -11 19 -7 6 3 15 -1 20 -11
9 -15 13 -14 40 9 17 14 29 28 26 31 -12 12 37 26 83 25 37 -2 57 3 82 21 17
13 35 20 38 17 4 -3 14 1 23 9 10 9 39 18 66 21 26 2 56 12 65 20 10 9 26 14
36 13 10 -2 28 2 40 9 14 8 24 8 28 2 7 -11 46 -5 130 21 33 10 76 20 95 23
19 3 67 12 105 21 104 24 230 49 400 79 50 9 96 19 104 22 8 2 44 7 80 10 36
3 73 8 81 11 8 3 42 9 75 14 76 11 299 46 345 54 19 4 69 13 110 20 41 8 116
17 165 21 50 3 106 7 125 9 68 5 266 36 323 51 32 8 62 12 67 9 5 -3 11 -1 14
4 3 4 43 11 88 15 46 4 112 16 148 26 62 17 141 30 223 35 21 1 44 8 50 14 6
6 25 11 42 12 16 1 41 5 55 9 48 15 -49 9 -170 -11z m-2945 -449 c3 -6 -1 -7
-9 -4 -18 7 -21 14 -7 14 6 0 13 -4 16 -10z m-220 -178 c-3 -3 -11 0 -18 7 -9
10 -8 11 6 5 10 -3 15 -9 12 -12z"/>
<path d="M7450 2732 c0 -5 18 -13 41 -19 22 -6 37 -7 32 -3 -13 12 -73 30 -73
22z"/>
<path d="M6886 2695 c4 -8 12 -15 20 -15 20 0 17 7 -6 20 -16 9 -18 8 -14 -5z"/>
<path d="M7243 2697 c-3 -6 -1 -7 5 -3 7 4 12 1 12 -8 0 -11 9 -16 29 -16 45
0 45 15 0 27 -27 7 -41 7 -46 0z"/>
<path d="M7615 2700 c3 -5 10 -10 16 -10 5 0 9 5 9 10 0 6 -7 10 -16 10 -8 0
-12 -4 -9 -10z"/>
<path d="M7636 2669 c5 -8 -9 -13 -28 -10 -4 0 -5 -6 -2 -14 4 -10 1 -14 -7
-12 -8 2 -11 2 -6 0 4 -3 5 -9 2 -14 -7 -11 24 0 44 15 12 9 13 7 8 -7 -6 -15
-3 -18 15 -15 30 4 34 26 6 37 -16 7 -18 10 -6 10 9 1 20 -3 23 -9 3 -5 21
-10 38 -9 l32 1 -30 10 c-59 19 -95 26 -89 17z"/>
<path d="M7170 2644 c0 -16 9 -18 28 -5 10 6 9 10 -7 14 -14 3 -21 0 -21 -9z"/>
<path d="M7548 2643 c7 -3 16 -2 19 1 4 3 -2 6 -13 5 -11 0 -14 -3 -6 -6z"/>
<path d="M7760 2635 c0 -2 19 -9 42 -15 29 -8 37 -14 28 -20 -9 -6 0 -12 31
-20 24 -6 59 -15 77 -20 24 -6 32 -5 32 5 0 11 -30 25 -65 30 -5 1 -19 5 -30
9 -100 38 -115 42 -115 31z"/>
<path d="M893 2620 c-13 -5 -23 -14 -23 -20 0 -11 30 -11 75 0 l30 8 -33 1
c-19 1 -31 5 -27 11 7 12 7 12 -22 0z"/>
<path d="M7250 2620 c-12 -8 -12 -10 5 -10 11 0 32 -6 47 -14 15 -8 40 -17 57
-21 17 -4 29 -10 26 -15 -3 -4 20 -11 50 -15 30 -3 55 -10 55 -15 0 -8 86 -29
141 -34 14 -2 31 -6 37 -10 14 -9 102 -4 102 6 0 4 -7 11 -16 16 -18 10 -54 5
-54 -8 0 -6 -125 31 -220 65 -19 7 -71 23 -115 35 -44 13 -84 24 -90 26 -5 2
-17 -1 -25 -6z"/>
<path d="M1088 2613 c7 -3 16 -2 19 1 4 3 -2 6 -13 5 -11 0 -14 -3 -6 -6z"/>
<path d="M7660 2586 c0 -2 7 -7 16 -10 8 -3 12 -2 9 4 -6 10 -25 14 -25 6z"/>
<path d="M7981 2564 c0 -11 3 -14 6 -6 3 7 2 16 -1 19 -3 4 -6 -2 -5 -13z"/>
<path d="M10917 2543 c-11 -10 -8 -20 7 -26 10 -4 12 0 9 14 -6 21 -7 22 -16
12z"/>
<path d="M7250 2536 c0 -2 7 -7 16 -10 8 -3 12 -2 9 4 -6 10 -25 14 -25 6z"/>
<path d="M7295 2520 c3 -5 19 -13 36 -19 26 -9 29 -9 20 3 -12 14 -64 29 -56
16z"/>
<path d="M7790 2489 c0 -5 5 -7 10 -4 6 3 10 8 10 11 0 2 -4 4 -10 4 -5 0 -10
-5 -10 -11z"/>
<path d="M6886 2462 c-12 -20 35 -45 109 -58 22 -4 51 -15 64 -25 13 -11 32
-19 42 -19 11 0 19 -4 19 -10 0 -5 18 -10 40 -10 29 0 40 -4 40 -15 0 -9 9
-15 25 -15 14 0 28 -7 31 -15 3 -8 21 -17 40 -21 19 -3 38 -12 42 -19 8 -14
95 -45 131 -46 26 -1 26 -1 -3 -11 -22 -8 -31 -8 -34 1 -7 22 -19 11 -19 -19
0 -17 6 -30 13 -30 19 0 23 -24 6 -36 -11 -8 -12 -13 -4 -18 7 -4 12 -3 12 3
0 5 14 3 30 -5 17 -9 38 -13 48 -11 13 3 9 8 -15 18 -34 14 -44 29 -19 29 7 0
30 -7 51 -16 27 -11 41 -12 48 -5 16 16 27 13 20 -5 -4 -12 0 -14 22 -8 18 4
26 3 22 -3 -4 -6 3 -8 17 -6 13 3 38 -3 55 -11 17 -9 36 -14 41 -11 5 3 11 1
15 -5 8 -12 25 -13 25 -1 0 4 -21 14 -47 22 -27 7 -63 21 -81 31 -18 10 -39
18 -46 18 -7 0 -20 7 -27 17 -13 15 -12 15 7 5 12 -6 24 -9 28 -5 8 8 -44 34
-55 27 -5 -3 -6 2 -3 10 4 11 0 14 -13 11 -11 -2 -25 0 -32 5 -24 14 27 18 55
4 34 -18 106 -35 99 -24 -3 5 1 11 7 14 7 3 3 3 -10 0 -23 -6 -86 18 -97 36
-8 13 1 13 25 0 11 -6 21 -6 24 -1 3 5 -9 11 -27 15 -17 4 -33 2 -35 -2 -3 -9
-65 8 -78 21 -4 4 -16 7 -27 7 -11 0 -45 12 -76 26 -31 15 -74 35 -96 46 -22
10 -31 16 -20 13 15 -5 17 -3 8 6 -8 8 -19 9 -42 1 -24 -9 -41 -8 -72 3 -23 8
-55 15 -71 15 -17 0 -27 4 -23 10 3 6 -1 10 -10 10 -8 0 -23 9 -32 20 -10 11
-27 20 -39 20 -12 0 -38 7 -57 15 -42 17 -44 18 -51 7z"/>
<path d="M7808 2463 c7 -3 16 -2 19 1 4 3 -2 6 -13 5 -11 0 -14 -3 -6 -6z"/>
<path d="M7877 2450 c3 -11 10 -23 16 -27 7 -4 8 0 4 11 -4 10 -7 22 -7 27 0
5 -4 9 -9 9 -5 0 -7 -9 -4 -20z"/>
<path d="M7910 2445 c0 -9 4 -14 9 -10 5 3 11 -5 13 -17 2 -17 11 -24 31 -26
42 -5 34 24 -13 48 -35 18 -40 18 -40 5z"/>
<path d="M7040 2440 c0 -6 7 -10 15 -10 8 0 15 2 15 4 0 2 -7 6 -15 10 -8 3
-15 1 -15 -4z"/>
<path d="M11155 2400 c3 -5 8 -10 11 -10 2 0 4 5 4 10 0 6 -5 10 -11 10 -5 0
-7 -4 -4 -10z"/>
<path d="M7360 2375 l-25 -14 27 -1 c14 0 28 -6 31 -12 2 -7 4 -1 4 15 1 31
-2 32 -37 12z"/>
<path d="M7421 2364 c0 -11 3 -14 6 -6 3 7 2 16 -1 19 -3 4 -6 -2 -5 -13z"/>
<path d="M6980 2350 c0 -11 4 -20 9 -20 6 0 9 9 8 20 -1 11 -5 20 -9 20 -4 0
-8 -9 -8 -20z"/>
<path d="M6883 2337 c0 -20 8 -26 56 -40 51 -15 52 -16 14 -12 -23 3 -48 8
-56 11 -18 7 -17 -20 1 -38 15 -15 42 -19 42 -7 0 5 5 9 11 9 6 0 8 -7 5 -16
-4 -11 2 -10 25 6 16 12 33 19 36 16 4 -3 1 -6 -5 -6 -28 0 -8 -18 26 -23 20
-3 48 -9 62 -12 19 -5 22 -4 10 4 -13 9 -13 11 3 11 9 0 17 -7 17 -15 0 -18
16 -20 23 -2 4 9 6 9 6 0 1 -7 7 -10 15 -7 7 3 16 -2 19 -10 4 -9 17 -16 29
-17 22 0 22 -1 3 -9 -20 -9 -7 -15 23 -11 6 1 12 -2 12 -7 0 -5 11 -9 25 -9
15 0 22 4 18 11 -3 6 0 6 8 -1 14 -14 39 -17 39 -5 0 7 -17 15 -95 48 -22 9
-58 24 -80 34 -23 10 -47 20 -55 22 -8 2 -17 6 -20 9 -3 3 -38 16 -79 29 -41
12 -89 31 -107 42 l-31 19 0 -24z"/>
<path d="M7457 2346 c-4 -9 3 -13 21 -13 15 0 36 -3 47 -8 18 -7 18 -6 5 7
-22 22 -67 31 -73 14z"/>
<path d="M765 2340 c-13 -6 -15 -9 -5 -9 8 0 22 4 30 9 18 12 2 12 -25 0z"/>
<path d="M250 2319 c0 -5 5 -7 10 -4 6 3 10 8 10 11 0 2 -4 4 -10 4 -5 0 -10
-5 -10 -11z"/>
<path d="M7114 2318 c-4 -7 -4 -10 1 -6 4 4 14 0 22 -10 8 -9 11 -11 7 -3 -5
11 -1 13 22 7 19 -4 24 -3 14 3 -31 18 -58 22 -66 9z"/>
<path d="M7273 2235 c0 -7 8 -10 19 -7 10 2 18 6 18 7 0 1 -8 5 -18 7 -11 3
-19 0 -19 -7z"/>
<path d="M7008 2223 c6 -2 18 -2 25 0 6 3 1 5 -13 5 -14 0 -19 -2 -12 -5z"/>
<path d="M7330 2215 c0 -7 11 -15 25 -17 32 -7 32 4 0 19 -20 9 -25 8 -25 -2z"/>
<path d="M7033 2205 c-12 -9 -9 -11 14 -9 40 2 43 3 43 13 0 13 -38 10 -57 -4z"/>
<path d="M7658 2213 c6 -2 18 -2 25 0 6 3 1 5 -13 5 -14 0 -19 -2 -12 -5z"/>
<path d="M7710 2212 c0 -10 70 -36 77 -28 3 3 -3 8 -13 11 -10 4 -27 11 -36
16 -22 11 -28 11 -28 1z"/>
<path d="M7107 2203 c-4 -3 -7 -11 -7 -17 0 -6 5 -5 12 2 6 6 9 14 7 17 -3 3
-9 2 -12 -2z"/>
<path d="M7136 2176 c3 -9 11 -16 16 -16 13 0 5 23 -10 28 -7 2 -10 -2 -6 -12z"/>
<path d="M7905 2180 c3 -5 8 -10 11 -10 2 0 4 5 4 10 0 6 -5 10 -11 10 -5 0
-7 -4 -4 -10z"/>
<path d="M6889 2148 c-1 -18 -3 -44 -4 -57 -2 -18 4 -26 26 -35 16 -6 29 -14
29 -18 0 -13 -40 -9 -41 5 -1 6 -5 -1 -8 -18 -10 -39 -1 -238 10 -246 5 -3 -3
-12 -18 -20 -16 -8 -32 -19 -38 -25 -10 -11 -56 -29 -175 -72 l-54 -19 31 -7
c56 -13 242 -3 245 12 2 10 9 8 27 -7 29 -25 37 -26 45 -5 8 22 9 20 -24 34
-17 7 -29 15 -27 17 3 2 16 -2 31 -8 20 -10 29 -10 38 -1 8 8 8 12 2 12 -6 0
-23 11 -38 24 -24 20 -25 24 -11 30 9 3 14 10 10 15 -3 5 0 13 6 16 15 10 60
-15 52 -28 -4 -6 0 -8 11 -4 13 5 20 -1 29 -22 11 -25 14 -27 26 -13 12 13 11
17 -10 33 -13 10 -30 19 -36 19 -7 0 -13 4 -13 9 0 6 12 8 28 7 38 -5 39 -5
24 -15 -10 -6 -4 -12 20 -24 18 -9 27 -17 21 -17 -7 0 -13 -10 -13 -22 0 -13
4 -18 8 -13 4 6 19 12 35 13 19 1 27 -3 28 -16 0 -14 2 -14 9 3 8 19 9 19 9
-2 1 -25 15 -30 27 -11 4 7 3 8 -4 4 -7 -4 -12 -1 -12 8 0 20 9 20 50 0 26
-13 37 -14 51 -5 12 7 19 7 19 1 0 -5 14 -10 30 -10 17 0 30 -5 30 -11 0 -7
-10 -9 -27 -5 -21 5 -24 4 -13 -4 8 -6 31 -8 51 -4 22 3 40 1 44 -5 3 -6 14
-11 23 -11 13 0 12 5 -8 20 l-25 21 30 -7 c17 -4 39 -11 50 -16 11 -5 7 1 -10
14 -30 23 -33 24 -60 27 -8 0 -15 5 -15 11 0 5 7 7 15 4 9 -4 15 0 15 10 0 12
23 4 97 -34 107 -55 113 -57 113 -35 0 10 -6 12 -17 8 -17 -7 -17 -6 -1 11 19
19 38 14 38 -10 0 -8 4 -13 9 -10 5 3 29 -5 54 -19 24 -14 51 -24 58 -22 8 2
11 2 6 0 -9 -6 1 -23 14 -23 6 0 7 5 3 12 -5 8 -2 9 9 5 10 -4 24 -10 32 -13
8 -3 15 -1 15 6 0 7 8 9 23 5 19 -5 20 -5 4 5 -10 7 -25 9 -33 6 -8 -3 -14 1
-14 10 0 12 6 15 23 9 48 -15 67 -17 67 -8 0 6 -19 15 -42 22 -30 10 -38 15
-27 22 19 12 32 11 23 -2 -4 -8 0 -9 15 -4 12 4 21 2 21 -4 0 -6 7 -7 17 -4
11 4 14 3 9 -5 -4 -7 -1 -12 8 -12 8 0 17 -6 19 -12 3 -7 5 5 4 27 0 22 -2 34
-5 27 -6 -18 -25 -15 -45 8 -9 11 -24 20 -33 20 -9 0 -28 9 -43 19 -15 11 -34
18 -42 17 -26 -5 -64 -25 -50 -25 8 -1 12 -3 10 -6 -9 -8 -80 16 -74 26 4 6
13 5 24 -1 23 -12 35 -1 19 17 -8 10 -8 17 0 25 16 16 15 33 -1 20 -10 -9 -19
-7 -35 4 -12 8 -32 14 -45 11 -22 -4 -22 -4 3 -15 l25 -11 -23 0 c-16 -1 -26
6 -29 18 -3 11 -11 17 -18 15 -7 -3 -15 -1 -18 3 -8 12 10 39 20 30 4 -5 1
-12 -7 -17 -21 -13 -3 -12 21 1 11 5 17 15 13 21 -4 6 1 8 15 3 12 -3 21 -2
21 4 0 14 -59 31 -101 29 -41 -1 -62 8 -53 24 4 6 1 9 -6 6 -8 -2 -16 -10 -18
-18 -3 -7 0 -10 7 -6 7 5 11 -1 11 -13 0 -12 5 -21 11 -21 5 0 7 5 4 10 -10
16 11 11 36 -9 l23 -18 -40 2 c-56 3 -57 3 -50 20 3 9 0 15 -10 15 -8 0 -12
-4 -9 -10 3 -5 -1 -10 -9 -10 -9 0 -16 4 -16 8 0 5 -10 14 -22 20 -13 6 -17
11 -10 11 7 1 11 5 8 9 -3 5 2 9 10 9 9 0 13 -6 10 -14 -3 -8 -1 -11 4 -8 16
10 12 45 -4 39 -9 -3 -18 5 -24 23 -6 15 -11 22 -11 16 -1 -7 -6 -13 -12 -13
-6 0 -9 6 -6 14 4 9 -1 15 -11 15 -37 1 -52 5 -52 12 0 6 -35 19 -65 24 -5 1
-19 -4 -31 -11 -19 -12 -21 -11 -16 13 4 20 1 25 -9 21 -8 -3 -20 1 -27 8 -11
12 -10 14 5 14 15 0 16 2 3 10 -22 14 -27 12 -33 -10 -3 -11 -11 -20 -17 -20
-9 0 -10 3 -1 14 17 20 -22 28 -48 10 -12 -9 -22 -11 -26 -4 -3 5 0 10 7 10
10 0 9 3 -2 11 -12 9 -11 10 8 6 12 -3 22 -2 22 3 0 10 -59 22 -73 13 -5 -3
-7 -1 -4 4 8 13 -26 23 -43 13 -7 -4 -21 -5 -31 -3 -15 4 -16 9 -9 24 8 15 7
17 -5 13 -8 -4 -15 -16 -15 -27 0 -21 0 -21 -21 1 -11 12 -17 27 -14 32 3 6 1
10 -4 10 -6 0 -12 -15 -12 -32z m445 -197 c4 -5 -5 -4 -19 2 -14 7 -25 16 -25
20 0 9 36 -9 44 -22z m91 -71 c3 -5 1 -10 -4 -10 -6 0 -11 5 -11 10 0 6 2 10
4 10 3 0 8 -4 11 -10z m-30 -10 c3 -5 2 -10 -4 -10 -5 0 -13 5 -16 10 -3 6 -2
10 4 10 5 0 13 -4 16 -10z m225 -100 c0 -5 -4 -10 -10 -10 -5 0 -10 5 -10 10
0 6 5 10 10 10 6 0 10 -4 10 -10z m-262 -25 c23 -10 42 -22 42 -27 0 -4 -2 -8
-4 -8 -8 0 -96 52 -96 57 0 2 3 3 8 1 4 -3 26 -13 50 -23z m332 -6 c0 -13 -13
-11 -35 5 -18 13 -18 14 8 9 15 -3 27 -9 27 -14z m-75 1 c8 -13 -5 -13 -25 0
-13 8 -13 10 2 10 9 0 20 -4 23 -10z m-8 -35 c0 -8 -4 -12 -9 -9 -5 3 -6 10
-3 15 9 13 12 11 12 -6z m123 -35 c0 -5 -4 -10 -10 -10 -5 0 -10 5 -10 10 0 6
5 10 10 10 6 0 10 -4 10 -10z m98 -25 c3 -3 6 -14 7 -25 2 -20 -7 -18 -37 8
-9 7 -21 11 -26 8 -5 -3 -9 1 -9 9 0 9 10 12 30 9 16 -2 32 -6 35 -9z"/>
<path d="M6984 2171 c3 -5 16 -11 28 -14 22 -6 22 -5 4 8 -22 17 -40 20 -32 6z"/>
<path d="M7720 2173 c-23 -5 -21 -6 15 -20 22 -8 51 -16 65 -17 14 0 28 -5 32
-10 4 -6 16 -5 30 1 23 11 23 12 -7 14 -16 1 -36 2 -42 2 -7 -1 -13 2 -13 7 0
6 -48 32 -53 29 -1 -1 -13 -4 -27 -6z m50 -13 c8 -5 11 -10 5 -10 -5 0 -17 5
-25 10 -8 5 -10 10 -5 10 6 0 17 -5 25 -10z"/>
<path d="M7360 2151 c0 -10 24 -21 43 -21 7 0 3 7 -7 15 -22 17 -36 19 -36 6z"/>
<path d="M7967 2140 c8 -31 23 -34 23 -6 0 16 -6 26 -14 26 -9 0 -12 -7 -9
-20z"/>
<path d="M7270 2109 c0 -5 5 -7 10 -4 6 3 10 8 10 11 0 2 -4 4 -10 4 -5 0 -10
-5 -10 -11z"/>
<path d="M7900 2110 c20 -13 33 -13 25 0 -3 6 -14 10 -23 10 -15 0 -15 -2 -2
-10z"/>
<path d="M7974 2092 c-9 -5 -8 -11 2 -20 12 -11 14 -9 14 8 0 22 0 23 -16 12z"/>
<path d="M7395 2060 c3 -5 16 -10 28 -9 21 0 21 1 2 9 -28 12 -37 12 -30 0z"/>
<path d="M7580 2055 c7 -9 15 -13 17 -11 7 7 -7 26 -19 26 -6 0 -6 -6 2 -15z"/>
<path d="M7830 2050 c0 -5 5 -10 11 -10 5 0 7 5 4 10 -3 6 -8 10 -11 10 -2 0
-4 -4 -4 -10z"/>
<path d="M7660 2031 c0 -6 6 -11 13 -11 6 -1 1 -7 -12 -14 -16 -9 -20 -16 -12
-20 6 -4 8 -12 5 -18 -4 -6 1 -8 15 -3 12 4 21 2 21 -4 0 -12 -29 -15 -54 -5
-9 3 -13 10 -10 15 3 5 -10 9 -28 8 -27 0 -29 -2 -13 -9 20 -8 20 -8 1 -16
-12 -5 -21 -3 -24 4 -2 6 -10 8 -18 5 -16 -6 -9 -23 10 -23 8 0 40 -12 72 -27
33 -15 64 -28 69 -28 26 -3 62 -20 76 -37 9 -10 23 -16 31 -13 13 5 116 -34
169 -65 13 -7 18 -4 22 11 3 10 1 21 -4 24 -4 3 -6 13 -3 23 5 14 4 15 -5 2
-7 -9 -14 -11 -18 -5 -5 6 -19 11 -33 12 -53 6 -70 14 -76 38 -3 14 -12 25
-18 25 -7 0 -12 10 -12 23 1 18 -5 23 -31 25 -20 2 -33 9 -33 17 0 9 -6 12
-15 9 -10 -4 -15 0 -15 11 0 14 -6 16 -31 11 -26 -5 -29 -4 -20 8 9 10 8 16
-4 26 -10 9 -15 9 -15 1z m95 -92 c10 -16 -3 -23 -18 -11 -8 7 -16 9 -19 6 -3
-3 -9 -1 -13 5 -4 7 4 11 19 11 14 0 28 -5 31 -11z"/>
<path d="M7942 2014 c10 -10 20 -16 22 -13 3 3 -5 11 -17 18 -21 13 -21 12 -5
-5z"/>
<path d="M7805 2009 c4 -5 12 -9 18 -9 7 0 32 -11 57 -24 71 -37 90 -41 90
-18 0 19 -20 27 -90 38 -8 1 -30 7 -48 13 -19 6 -30 6 -27 0z m130 -39 c13 -6
15 -9 5 -9 -8 0 -22 4 -30 9 -18 12 -2 12 25 0z"/>
<path d="M9841 1925 c0 -12 5 -27 12 -34 8 -10 8 -12 0 -7 -7 4 -11 -1 -10
-13 2 -35 27 -10 27 28 0 25 -3 32 -9 22 -7 -11 -10 -10 -14 5 -4 17 -5 17 -6
-1z"/>
<path d="M7491 1914 c0 -11 3 -14 6 -6 3 7 2 16 -1 19 -3 4 -6 -2 -5 -13z"/>
<path d="M7906 1901 c-6 -10 24 -25 32 -16 3 3 0 5 -7 5 -7 0 -9 5 -6 10 3 6
2 10 -4 10 -5 0 -12 -4 -15 -9z"/>
<path d="M9795 1877 c-13 -10 -15 -16 -6 -21 9 -6 9 -11 0 -22 -18 -22 6 -16
26 6 12 13 14 20 5 20 -7 0 -10 7 -6 15 7 18 5 19 -19 2z"/>
<path d="M7728 1823 c6 -2 18 -2 25 0 6 3 1 5 -13 5 -14 0 -19 -2 -12 -5z"/>
<path d="M7765 1769 c-4 -6 -5 -13 -2 -16 7 -7 27 6 27 18 0 12 -17 12 -25 -2z"/>
<path d="M7920 1769 c0 -5 5 -7 10 -4 6 3 10 8 10 11 0 2 -4 4 -10 4 -5 0 -10
-5 -10 -11z"/>
<path d="M7867 1734 c10 -7 27 -14 39 -14 11 0 25 -5 32 -12 9 -9 9 -7 0 12
-9 20 -19 25 -50 27 -35 1 -37 0 -21 -13z"/>
<path d="M6964 1721 c3 -5 16 -11 28 -14 22 -6 22 -5 4 8 -22 17 -40 20 -32 6z"/>
<path d="M11107 1709 c3 -10 9 -16 14 -13 13 8 11 21 -5 27 -10 4 -12 0 -9
-14z"/>
<path d="M7455 1700 c3 -5 11 -10 16 -10 6 0 7 5 4 10 -3 6 -11 10 -16 10 -6
0 -7 -4 -4 -10z"/>
<path d="M11190 1695 c7 -8 17 -12 22 -9 6 4 5 10 -3 15 -22 14 -33 10 -19 -6z"/>
<path d="M7030 1691 c0 -6 4 -13 10 -16 6 -3 7 1 4 9 -7 18 -14 21 -14 7z"/>
<path d="M10834 1653 l-21 -28 34 -16 c33 -17 44 -11 20 10 -8 6 -17 8 -20 4
-4 -3 -7 -2 -7 4 0 15 26 34 35 25 4 -4 6 -1 3 7 -7 25 -23 23 -44 -6z"/>
<path d="M7228 1658 c5 -5 16 -8 23 -6 8 3 3 7 -10 11 -17 4 -21 3 -13 -5z"/>
<path d="M7830 1570 c0 -5 5 -10 11 -10 5 0 7 5 4 10 -3 6 -8 10 -11 10 -2 0
-4 -4 -4 -10z"/>
<path d="M7924 1554 c24 -17 37 -18 30 -1 -2 7 -15 13 -27 14 -21 2 -21 1 -3
-13z"/>
<path d="M9172 1277 c-8 -10 -6 -13 7 -13 11 0 17 6 14 13 -3 7 -6 13 -8 13
-1 0 -7 -6 -13 -13z"/>
<path d="M8164 830 c0 -52 1 -74 3 -47 2 26 2 68 0 95 -2 26 -3 4 -3 -48z"/>
<path d="M9030 591 c0 -10 30 -24 37 -17 3 2 -5 9 -16 16 -12 6 -21 7 -21 1z"/>
<path d="M8940 540 c0 -10 7 -20 15 -24 13 -5 14 -2 4 15 -10 19 -9 20 10 9
12 -6 21 -15 21 -20 0 -6 5 -10 11 -10 6 0 8 7 5 16 -5 13 0 15 26 12 18 -3
42 -8 53 -12 11 -4 7 1 -10 10 -16 10 -54 19 -82 20 -45 2 -53 -1 -53 -16z"/>
<path d="M9333 505 c0 -10 6 -14 16 -10 8 3 12 3 9 -1 -10 -9 10 -44 25 -44 8
0 7 4 -3 10 -8 5 -12 12 -8 15 4 4 30 -5 59 -19 28 -15 57 -25 63 -23 6 3 -1
10 -16 17 -16 7 -28 17 -28 22 0 4 -5 8 -10 8 -6 0 -30 9 -52 20 -50 24 -55
24 -55 5z"/>
<path d="M9670 495 c0 -10 41 -25 52 -19 8 5 5 10 -8 15 -22 9 -44 11 -44 4z"/>
<path d="M9470 476 c0 -2 7 -7 16 -10 8 -3 12 -2 9 4 -6 10 -25 14 -25 6z"/>
<path d="M9876 451 c-3 -5 1 -12 10 -15 20 -8 29 -1 19 13 -8 13 -22 14 -29 2z"/>
<path d="M9408 438 c5 -5 16 -8 23 -6 8 3 3 7 -10 11 -17 4 -21 3 -13 -5z"/>
<path d="M9510 425 c0 -7 61 -37 66 -33 2 3 -12 12 -31 21 -19 9 -35 15 -35
12z"/>
<path d="M9742 411 c-10 -6 -6 -11 17 -19 18 -6 45 -21 61 -32 17 -12 30 -17
30 -12 0 13 -34 42 -49 42 -8 0 -11 6 -7 15 6 17 -29 21 -52 6z"/>
<path d="M9996 395 c16 -14 40 -25 54 -25 20 0 22 -2 10 -11 -13 -9 -13 -10 0
-6 8 2 23 -2 33 -11 14 -12 17 -13 17 -1 0 13 -42 39 -63 39 -5 0 -20 9 -34
20 -37 29 -51 25 -17 -5z"/>
<path d="M9840 390 c8 -5 24 -10 36 -10 11 0 24 -4 30 -9 5 -5 20 -12 34 -15
15 -4 8 2 -15 14 -42 22 -113 39 -85 20z"/>
<path d="M10153 390 c-26 -11 -31 -30 -8 -30 8 0 15 -4 15 -9 0 -4 11 -6 25
-3 14 2 25 9 25 14 0 6 -9 8 -21 5 -17 -5 -20 -2 -16 14 3 10 4 19 4 18 -1 0
-12 -4 -24 -9z"/>
<path d="M9870 360 c0 -5 7 -10 16 -10 8 0 12 5 9 10 -3 6 -10 10 -16 10 -5 0
-9 -4 -9 -10z"/>
<path d="M9650 350 c8 -5 20 -10 25 -10 6 0 3 5 -5 10 -8 5 -19 10 -25 10 -5
0 -3 -5 5 -10z"/>
<path d="M10230 330 c0 -6 4 -8 10 -5 5 3 17 -3 27 -15 10 -11 21 -20 26 -20
5 0 4 6 -2 13 -6 8 -9 16 -6 19 3 2 -1 5 -7 5 -7 0 -21 4 -30 8 -11 4 -18 3
-18 -5z"/>
<path d="M9888 323 c7 -3 16 -2 19 1 4 3 -2 6 -13 5 -11 0 -14 -3 -6 -6z"/>
<path d="M9748 313 c7 -3 16 -2 19 1 4 3 -2 6 -13 5 -11 0 -14 -3 -6 -6z"/>
<path d="M10316 297 c3 -10 9 -15 12 -12 3 3 0 11 -7 18 -10 9 -11 8 -5 -6z"/>
<path d="M10034 265 c11 -8 25 -15 30 -15 6 0 2 7 -8 15 -11 8 -25 15 -30 15
-6 0 -2 -7 8 -15z"/>
<path d="M10740 260 c0 -5 5 -10 11 -10 5 0 7 5 4 10 -3 6 -8 10 -11 10 -2 0
-4 -4 -4 -10z"/>
<path d="M10396 245 c4 -8 10 -12 15 -9 11 6 2 24 -11 24 -5 0 -7 -7 -4 -15z"/>
<path d="M10087 239 c7 -7 15 -10 18 -7 3 3 -2 9 -12 12 -14 6 -15 5 -6 -5z"/>
<path d="M10560 230 c8 -5 22 -10 30 -10 13 0 13 1 0 10 -8 5 -22 10 -30 10
-13 0 -13 -1 0 -10z"/>
<path d="M10621 236 c8 -8 93 -35 97 -31 6 5 -67 35 -86 35 -8 0 -13 -2 -11
-4z"/>
<path d="M6326 174 c-8 -22 -4 -25 11 -9 7 8 9 16 4 19 -5 3 -12 -1 -15 -10z"/>
<path d="M10650 186 c0 -2 9 -6 20 -9 11 -3 18 -1 14 4 -5 9 -34 13 -34 5z"/>
<path d="M7000 145 c0 -8 4 -15 10 -15 5 0 7 7 4 15 -4 8 -8 15 -10 15 -2 0
-4 -7 -4 -15z"/>
<path d="M10740 145 c0 -3 16 -12 35 -20 19 -8 51 -22 70 -30 62 -27 37 -7
-31 25 -68 31 -74 33 -74 25z"/>
<path d="M10891 106 c2 -2 15 -9 29 -15 24 -11 24 -11 6 3 -16 13 -49 24 -35
12z"/>
<path d="M6371 81 c3 -8 15 -18 27 -22 18 -7 22 -5 22 11 0 11 -4 20 -10 20
-5 0 -10 -5 -10 -11 0 -8 -6 -7 -17 2 -14 12 -16 12 -12 0z"/>
<path d="M147 57 c-3 -8 1 -14 8 -14 7 0 11 6 8 14 -3 7 -6 13 -8 13 -2 0 -5
-6 -8 -13z"/>
<path d="M11377 27 c5 -24 10 -27 39 -25 26 2 31 5 22 15 -9 11 -13 12 -20 1
-6 -10 -13 -7 -27 11 l-19 25 5 -27z"/>
<path d="M6595 20 c3 -5 14 -10 23 -10 15 0 15 2 2 10 -20 13 -33 13 -25 0z"/>
<path d="M6531 10 c-9 -5 -4 -7 13 -7 29 0 32 2 13 10 -8 3 -20 2 -26 -3z"/>
</g>
</svg>
