<?xml version="1.0" standalone="no"?>
<!DOCTYPE svg PUBLIC "-//W3C//DTD SVG 20010904//EN"
 "http://www.w3.org/TR/2001/REC-SVG-20010904/DTD/svg10.dtd">
<svg version="1.0" xmlns="http://www.w3.org/2000/svg"
 width="360.000000pt" height="240.000000pt" viewBox="0 0 360.000000 240.000000"
 preserveAspectRatio="xMidYMid meet">

<g transform="translate(0.000000,240.000000) scale(0.100000,-0.100000)"
fill="#000000" stroke="none">
<path d="M2543 1834 c-20 -9 -15 -38 8 -52 12 -8 18 -9 14 -3 -4 7 7 11 32 10
37 -1 37 -2 8 -8 -16 -3 -25 -9 -19 -13 6 -4 21 -4 33 -1 18 4 21 12 19 37 -3
29 -6 31 -43 33 -22 1 -46 0 -52 -3z"/>
<path d="M878 1632 l15 -49 51 34 c28 18 62 33 76 34 46 1 -8 16 -86 23 l-71
7 15 -49z"/>
<path d="M2285 1670 l-50 -7 41 -1 c33 -2 43 -6 47 -23 3 -12 10 -18 16 -14
12 7 15 56 4 53 -5 0 -30 -4 -58 -8z"/>
<path d="M1698 1653 c12 -2 30 -2 40 0 9 3 -1 5 -23 4 -22 0 -30 -2 -17 -4z"/>
<path d="M2633 1560 c0 -25 2 -35 4 -22 2 12 2 32 0 45 -2 12 -4 2 -4 -23z"/>
<path d="M694 1392 c2 -103 5 -312 5 -466 1 -256 2 -278 18 -272 9 4 20 1 24
-6 7 -10 11 -10 21 0 6 6 8 12 2 12 -5 0 -8 128 -7 333 3 523 3 517 16 479
l10 -34 13 29 12 28 2 -25 1 -25 10 24 c11 28 4 55 -11 46 -6 -3 -13 1 -16 10
-5 13 -9 13 -22 3 -12 -10 -14 -10 -8 0 4 6 3 12 -3 12 -6 0 -8 7 -5 15 4 8 1
15 -5 15 -6 0 -11 -6 -11 -12 0 -9 -3 -9 -9 1 -5 8 -17 16 -26 17 -14 2 -15
-17 -11 -184z"/>
<path d="M890 1560 c0 -6 7 -25 16 -42 9 -17 18 -54 21 -82 7 -62 13 -73 13
-23 0 29 4 37 18 37 14 0 15 2 2 10 -8 5 -13 10 -10 10 3 0 169 2 370 5 485 6
450 5 420 15 -19 6 -10 8 35 8 51 -1 55 -2 25 -8 -25 -5 -28 -8 -12 -9 13 0
33 -6 44 -12 18 -10 20 -9 15 5 -7 18 -12 18 178 16 172 -1 279 -10 286 -21 5
-9 18 20 19 41 0 3 -295 4 -656 2 -360 -2 -680 -1 -710 3 -44 5 -54 10 -54 25
0 10 -4 22 -10 25 -5 3 -10 1 -10 -5z m328 -67 c-10 -2 -26 -2 -35 0 -10 3 -2
5 17 5 19 0 27 -2 18 -5z m99 1 c-3 -3 -12 -4 -19 -1 -8 3 -5 6 6 6 11 1 17
-2 13 -5z m326 -1 c-23 -2 -64 -2 -90 0 -26 2 -7 3 42 3 50 0 71 -1 48 -3z"/>
<path d="M845 1490 c3 -5 8 -10 11 -10 2 0 4 5 4 10 0 6 -5 10 -11 10 -5 0 -7
-4 -4 -10z"/>
<path d="M870 1476 c0 -14 4 -26 8 -26 11 0 12 39 1 45 -5 4 -9 -5 -9 -19z"/>
<path d="M1031 1434 c0 -11 3 -14 6 -6 3 7 2 16 -1 19 -3 4 -6 -2 -5 -13z"/>
<path d="M3003 1368 c14 -11 17 -37 20 -173 l3 -160 2 173 c2 171 2 172 -20
172 -20 0 -20 -1 -5 -12z"/>
<path d="M2572 1107 c-1 -33 -8 -64 -15 -72 -12 -11 -13 -5 -9 36 3 32 1 49
-7 49 -7 0 -11 -90 -13 -306 l-3 -306 -87 89 c-63 63 -88 95 -88 113 0 38 -38
152 -39 118 -1 -36 -19 -45 -30 -16 -9 20 -10 18 -11 -17 0 -22 -4 -45 -8 -51
-4 -6 -38 -12 -77 -13 -38 -1 -73 -5 -78 -8 -18 -11 -99 -15 -92 -4 4 8 -21
11 -79 11 l-86 0 0 62 c0 34 -2 59 -4 57 -3 -3 -10 -54 -16 -116 0 -2 -90 -3
-200 -3 l-200 0 0 25 c0 14 -4 25 -10 25 -5 0 -10 -11 -10 -25 l0 -26 -190 1
c-113 1 -188 5 -185 11 4 5 -1 9 -9 9 -19 0 -21 16 -3 23 6 3 2 6 -10 6 -13 1
-23 6 -23 12 0 6 -7 9 -15 5 -8 -3 -14 -2 -14 2 1 4 -2 18 -6 31 -7 21 -10 20
-31 -25 -13 -27 -23 -57 -23 -66 -1 -9 -22 -29 -47 -44 -27 -16 -43 -32 -40
-40 3 -9 0 -11 -11 -7 -10 4 -14 2 -10 -4 4 -7 -15 -25 -44 -43 -33 -20 -49
-36 -45 -45 3 -10 -30 -36 -107 -83 -131 -81 -307 -185 -321 -191 -6 -2 -16
-9 -23 -15 -6 -6 -66 -42 -132 -81 l-121 -70 0 -57 0 -58 1800 0 1800 0 0 125
c0 84 -4 125 -11 125 -6 0 -18 9 -27 21 -17 20 -52 19 -52 -2 0 -5 -7 -9 -15
-9 -8 0 -15 3 -15 8 0 4 -15 13 -32 20 -18 8 -44 18 -58 25 -14 6 -27 11 -30
12 -3 1 -16 6 -30 12 -14 6 -45 19 -70 29 -25 9 -50 21 -55 25 -7 5 -11 -1
-10 -18 0 -15 6 -28 13 -31 6 -2 10 -8 6 -13 -3 -5 0 -9 7 -9 7 0 5 -6 -5 -13
-15 -11 -16 -17 -7 -35 6 -11 20 -23 30 -27 11 -3 22 -12 25 -21 3 -8 18 -19
33 -26 22 -9 24 -12 11 -15 -17 -4 -27 2 -70 40 -13 13 -28 17 -45 12 -16 -4
-22 -2 -18 5 4 6 -7 10 -29 10 -26 0 -34 4 -30 14 3 8 -4 16 -18 20 -38 10
-48 7 -41 -11 5 -12 2 -15 -10 -10 -10 4 -14 2 -11 -6 2 -7 -6 -12 -23 -13
-16 -1 -22 1 -15 3 21 8 13 21 -13 19 -29 -1 -31 -8 -10 -26 17 -14 20 -30 5
-30 -5 0 -10 8 -10 17 0 9 -3 13 -7 9 -5 -4 -8 -18 -8 -29 0 -16 -7 -23 -24
-25 -19 -3 -21 -6 -10 -14 11 -7 8 -9 -8 -5 -13 3 -25 2 -28 -3 -2 -4 14 -10
37 -14 22 -4 38 -10 34 -14 -13 -12 -85 -8 -90 5 -3 7 -14 13 -25 13 -10 0
-21 7 -25 15 -4 10 -19 15 -48 14 -38 0 -41 -2 -20 -11 23 -11 30 -28 11 -28
-29 0 -52 53 -26 63 6 3 -3 4 -21 2 -28 -3 -35 0 -42 21 -6 14 -14 22 -20 19
-6 -4 -7 2 -1 18 6 14 5 43 -1 73 -9 46 -6 102 8 150 4 17 -1 23 -28 32 -24 8
-27 10 -9 9 l24 -2 -1 200 c-1 145 2 202 11 207 9 6 9 8 0 8 -9 0 -13 26 -15
93 -1 50 -3 73 -5 50 -2 -24 -8 -43 -13 -43 -5 0 -11 19 -13 43 l-4 42 -1 -42
c-3 -66 -21 -51 -25 20 l-3 62 -2 -58z m28 -157 c0 -5 -5 -10 -11 -10 -5 0 -7
5 -4 10 3 6 8 10 11 10 2 0 4 -4 4 -10z m27 -52 c-2 -13 -4 -3 -4 22 0 25 2
35 4 23 2 -13 2 -33 0 -45z m-27 -8 c0 -5 -4 -10 -10 -10 -5 0 -10 5 -10 10 0
6 5 10 10 10 6 0 10 -4 10 -10z m-1695 -192 c-11 -6 -32 -20 -47 -30 -16 -11
-28 -16 -28 -11 0 9 70 52 85 52 6 0 1 -5 -10 -11z m1351 -79 c8 -7 14 -22 13
-33 -1 -12 5 -39 15 -61 21 -48 29 -95 16 -95 -6 0 -10 6 -10 14 0 8 -5 18
-11 21 -7 5 -9 -3 -7 -21 2 -21 8 -28 20 -26 23 4 34 -19 14 -30 -9 -5 -16
-16 -16 -23 0 -8 -5 -15 -11 -15 -6 0 -9 7 -5 15 3 8 1 15 -4 15 -6 0 -8 -16
-4 -40 4 -27 3 -40 -5 -40 -6 0 -11 5 -11 10 0 6 -4 10 -9 10 -4 0 -6 -12 -3
-26 4 -23 2 -25 -17 -19 -17 5 -21 2 -22 -17 -3 -48 -4 -53 -21 -52 -13 1 -18
-6 -18 -23 0 -21 -2 -23 -15 -13 -12 10 -16 9 -21 -4 -4 -10 -13 -15 -20 -12
-9 3 -14 -2 -14 -14 0 -23 -50 -36 -80 -20 -16 9 -25 9 -33 1 -6 -6 -21 -11
-34 -11 -25 0 -31 -15 -10 -23 7 -3 5 -6 -5 -6 -13 -1 -18 7 -19 27 l-1 27 -7
-25 c-10 -37 -46 -39 -59 -3 -6 15 -11 22 -11 15 -1 -15 -25 -42 -37 -42 -5 0
-3 5 4 12 7 7 12 18 12 25 0 26 -16 12 -37 -35 -13 -26 -22 -40 -22 -32 1 8 0
31 -1 50 -2 35 -2 35 -9 6 -8 -37 -28 -45 -40 -14 -8 19 -10 20 -10 4 -1 -14
-6 -17 -23 -12 -13 3 -33 6 -45 6 -14 0 -23 7 -26 23 -4 21 -4 20 -6 -3 -1
-33 -34 -54 -61 -40 -11 6 -20 13 -20 16 0 3 5 2 10 -1 6 -3 10 -1 10 5 0 6
-12 15 -26 20 -14 6 -22 14 -19 20 3 5 -1 20 -9 32 -13 18 -16 19 -16 5 0 -9
-4 -17 -10 -17 -5 0 -12 -11 -16 -25 -3 -14 -12 -25 -20 -25 -8 0 -11 6 -8 15
4 8 1 15 -5 15 -6 0 -11 -7 -11 -15 0 -11 -12 -15 -50 -15 -27 0 -50 5 -50 10
0 6 4 10 8 10 4 0 9 13 10 30 2 30 -12 41 -22 18 -3 -7 -3 -1 0 14 6 26 5 27
-25 15 -17 -6 -31 -18 -31 -27 0 -13 -2 -13 -11 0 -8 11 -12 12 -16 3 -8 -21
-23 -14 -23 10 0 13 -9 32 -20 42 -10 9 -19 20 -18 24 2 12 -16 45 -35 64 -14
14 -22 16 -30 8 -6 -6 -24 -11 -39 -11 -24 0 -27 2 -16 14 9 10 15 11 20 2 13
-18 9 4 -4 27 -7 12 -13 31 -15 41 -5 28 -13 33 -23 16 -5 -8 -12 -11 -15 -8
-4 4 3 17 14 30 18 18 24 20 30 9 7 -10 9 -7 8 11 -2 19 -7 24 -22 21 -13 -2
-11 0 5 7 28 11 64 58 37 47 -9 -3 -21 1 -27 8 -9 11 -9 18 3 30 9 8 22 16 29
17 7 1 -43 5 -112 8 -113 4 -123 6 -101 19 18 10 76 14 220 16 108 2 206 0
219 -2 19 -5 21 -8 10 -22 -12 -14 -11 -15 5 -2 26 21 38 22 274 28 185 4 214
3 236 -12 24 -15 26 -15 32 3 5 19 14 20 201 17 138 -2 199 -7 210 -16z
m-1227 -98 c7 -5 9 -11 5 -14 -5 -3 -15 1 -22 9 -14 16 -5 18 17 5z m1292
-168 c-12 -20 -14 -14 -5 12 4 9 9 14 11 11 3 -2 0 -13 -6 -23z m-11 -47 c0
-6 -5 -4 -10 4 -8 12 -10 9 -10 -12 0 -15 -5 -30 -12 -34 -8 -5 -9 0 -5 17 4
13 7 32 7 43 0 15 3 16 15 6 8 -7 15 -18 15 -24z m-1037 -166 c3 -11 1 -18 -4
-14 -5 3 -9 12 -9 20 0 20 7 17 13 -6z m2057 10 c0 -5 -2 -10 -4 -10 -3 0 -8
5 -11 10 -3 6 -1 10 4 10 6 0 11 -4 11 -10z m45 -9 c3 -5 1 -12 -5 -16 -5 -3
-10 1 -10 9 0 18 6 21 15 7z m-1331 -57 c9 -3 16 -14 16 -23 -1 -14 -2 -14
-11 2 -11 19 -49 24 -49 6 0 -8 -5 -8 -15 1 -11 9 -15 9 -15 1 0 -7 -4 -9 -10
-6 -32 20 39 36 84 19z m-227 -20 c-3 -3 -12 -4 -19 -1 -8 3 -5 6 6 6 11 1 17
-2 13 -5z"/>
<path d="M1375 150 c-3 -5 -1 -10 4 -10 6 0 11 5 11 10 0 6 -2 10 -4 10 -3 0
-8 -4 -11 -10z"/>
<path d="M1328 123 c7 -3 16 -2 19 1 4 3 -2 6 -13 5 -11 0 -14 -3 -6 -6z"/>
<path d="M3022 940 c0 -14 2 -19 5 -12 2 6 2 18 0 25 -3 6 -5 1 -5 -13z"/>
<path d="M1268 913 c-58 -32 -57 -43 1 -14 25 13 59 21 91 21 27 0 50 5 50 10
0 21 -94 10 -142 -17z"/>
<path d="M1450 930 c0 -6 68 -10 185 -10 117 0 185 4 185 10 0 6 -68 10 -185
10 -117 0 -185 -4 -185 -10z"/>
<path d="M1866 929 c7 -11 211 -6 222 6 3 3 -47 5 -112 5 -84 0 -115 -3 -110
-11z"/>
<path d="M2900 936 c0 -8 71 -12 76 -4 3 4 -13 8 -35 8 -23 0 -41 -2 -41 -4z"/>
<path d="M3060 931 c0 -5 6 -13 13 -18 16 -13 336 -77 344 -69 10 10 6 11
-162 46 -88 18 -164 37 -169 41 -13 12 -26 11 -26 0z"/>
<path d="M705 630 c-3 -6 1 -7 9 -4 18 7 21 14 7 14 -6 0 -13 -4 -16 -10z"/>
<path d="M3165 380 c-3 -5 1 -10 10 -10 9 0 13 5 10 10 -3 6 -8 10 -10 10 -2
0 -7 -4 -10 -10z"/>
<path d="M3450 360 c-11 -8 -8 -9 13 -4 27 6 39 -9 15 -20 -7 -3 1 -3 17 0 24
5 27 3 15 -6 -13 -10 -12 -11 3 -6 10 3 24 6 30 6 17 0 -26 28 -54 34 -13 4
-31 2 -39 -4z"/>
<path d="M3450 320 c8 -5 20 -10 25 -10 6 0 3 5 -5 10 -8 5 -19 10 -25 10 -5
0 -3 -5 5 -10z"/>
<path d="M3486 303 c-11 -11 -6 -23 9 -23 8 0 15 4 15 9 0 13 -16 22 -24 14z"/>
<path d="M2927 204 c6 -15 23 -19 23 -5 0 5 -7 11 -14 14 -10 4 -13 1 -9 -9z"/>
<path d="M2890 200 c0 -5 5 -10 11 -10 5 0 7 5 4 10 -3 6 -8 10 -11 10 -2 0
-4 -4 -4 -10z"/>
</g>
</svg>
