<?xml version="1.0" standalone="no"?>
<!DOCTYPE svg PUBLIC "-//W3C//DTD SVG 20010904//EN"
 "http://www.w3.org/TR/2001/REC-SVG-20010904/DTD/svg10.dtd">
<svg version="1.0" xmlns="http://www.w3.org/2000/svg"
 width="899.000000pt" height="600.000000pt" viewBox="0 0 899.000000 600.000000"
 preserveAspectRatio="xMidYMid meet">

<g transform="translate(0.000000,600.000000) scale(0.100000,-0.100000)"
fill="#000000" stroke="none">
<path d="M8960 5280 c0 -5 7 -10 15 -10 8 0 15 5 15 10 0 6 -7 10 -15 10 -8 0
-15 -4 -15 -10z"/>
<path d="M8905 5260 c-3 -5 3 -10 14 -10 12 0 21 5 21 10 0 6 -6 10 -14 10 -8
0 -18 -4 -21 -10z"/>
<path d="M6585 4490 c-3 -5 -1 -10 4 -10 6 0 11 5 11 10 0 6 -2 10 -4 10 -3 0
-8 -4 -11 -10z"/>
<path d="M6476 4481 c-3 -4 7 -6 22 -5 15 2 21 1 15 -2 -28 -13 -11 -21 22
-12 19 6 32 15 29 20 -7 11 -81 11 -88 -1z"/>
<path d="M6320 4430 c-11 -7 -6 -8 18 -4 33 7 47 -11 15 -19 -13 -3 -14 -5 -3
-6 8 0 33 8 55 18 l40 19 -55 1 c-30 0 -62 -4 -70 -9z"/>
<path d="M7287 3944 c3 -9 9 -12 12 -7 3 4 10 11 15 16 5 4 0 7 -12 7 -15 0
-20 -4 -15 -16z"/>
<path d="M6220 3744 c0 -28 15 -25 23 6 3 13 0 20 -9 20 -8 0 -14 -10 -14 -26z"/>
<path d="M6020 3720 c-22 -7 -21 -8 12 -9 20 -1 40 4 43 9 7 12 -19 12 -55 0z"/>
<path d="M5958 3703 c6 -2 18 -2 25 0 6 3 1 5 -13 5 -14 0 -19 -2 -12 -5z"/>
<path d="M5845 3685 l-50 -14 55 4 c30 3 56 5 58 5 1 0 2 5 2 10 0 12 -1 12
-65 -5z"/>
<path d="M5660 3642 c0 -10 5 -10 23 -1 33 17 33 19 4 17 -15 -1 -27 -8 -27
-16z"/>
<path d="M6231 3150 c-2 -206 -3 -543 -1 -749 l3 -374 -22 6 c-27 7 -74 -16
-77 -38 -1 -8 7 -17 19 -19 12 -3 33 -7 47 -10 14 -2 48 -11 75 -19 l50 -15
-37 -1 c-20 -1 -40 -6 -44 -13 -5 -8 3 -9 32 -3 55 11 206 13 191 2 -8 -6 -6
-7 6 -3 10 3 24 6 30 7 7 0 1 5 -12 10 -13 5 -40 7 -60 3 -24 -3 -31 -2 -23 4
11 7 10 10 -3 16 -9 3 -24 6 -33 5 -11 -1 -8 -4 8 -9 17 -6 9 -7 -25 -3 -27 3
-51 10 -53 14 -2 5 -16 9 -30 9 -15 0 -34 5 -42 10 -26 16 98 3 220 -24 63
-13 205 -44 315 -67 207 -44 285 -69 285 -91 0 -8 -3 -9 -8 -3 -4 6 -29 11
-57 12 l-50 2 56 -18 c31 -10 72 -20 91 -24 35 -5 36 -4 29 20 -5 17 -15 27
-31 30 -14 2 -28 10 -33 18 -4 8 -16 15 -25 15 -10 0 -23 5 -29 11 -5 5 -37
14 -69 19 -54 8 -162 31 -274 58 -25 6 -108 25 -185 42 -77 17 -158 36 -180
41 l-40 10 -3 284 c-4 283 -3 285 17 285 12 0 21 5 21 10 0 6 -4 10 -10 10
-16 0 -11 32 8 46 16 13 16 15 0 28 -31 23 -22 46 18 46 41 0 37 15 -6 25 -25
5 -30 12 -30 35 0 16 6 31 13 33 6 3 2 6 -10 6 l-23 1 -3 343 -2 342 -4 -375z"/>
<path d="M7292 3470 c0 -14 2 -19 5 -12 2 6 2 18 0 25 -3 6 -5 1 -5 -13z"/>
<path d="M5663 3400 c0 -25 2 -35 4 -22 2 12 2 32 0 45 -2 12 -4 2 -4 -23z"/>
<path d="M7291 3424 c0 -11 3 -14 6 -6 3 7 2 16 -1 19 -3 4 -6 -2 -5 -13z"/>
<path d="M7730 3390 c0 -11 2 -20 4 -20 2 0 6 9 9 20 3 11 1 20 -4 20 -5 0 -9
-9 -9 -20z"/>
<path d="M6192 3380 c0 -14 2 -19 5 -12 2 6 2 18 0 25 -3 6 -5 1 -5 -13z"/>
<path d="M6008 3352 c-21 -2 -38 -6 -38 -10 0 -10 93 -2 104 8 5 5 1 8 -10 7
-10 -1 -36 -3 -56 -5z"/>
<path d="M5893 3333 c9 -2 25 -2 35 0 9 3 1 5 -18 5 -19 0 -27 -2 -17 -5z"/>
<path d="M5663 3295 c0 -22 2 -30 4 -17 2 12 2 30 0 40 -3 9 -5 -1 -4 -23z"/>
<path d="M5662 3225 c0 -16 2 -22 5 -12 2 9 2 23 0 30 -3 6 -5 -1 -5 -18z"/>
<path d="M7288 3089 c-3 -99 5 -345 11 -324 1 6 5 53 7 105 6 100 12 116 47
123 12 2 8 4 -10 3 -28 -2 -32 1 -36 34 -3 19 -6 62 -7 95 -2 95 -8 76 -12
-36z"/>
<path d="M2180 3130 c-9 -6 -10 -10 -3 -10 6 0 15 5 18 10 8 12 4 12 -15 0z"/>
<path d="M5882 3085 c0 -16 2 -22 5 -12 2 9 2 23 0 30 -3 6 -5 -1 -5 -18z"/>
<path d="M2070 3076 c0 -13 6 -27 13 -29 10 -4 10 -6 0 -6 -18 -1 -16 -21 1
-21 7 0 20 -10 29 -22 16 -25 15 -30 5 90 -2 14 -13 5 -13 -10 0 -6 -6 -12
-13 -14 -7 -1 -8 0 -3 2 12 6 3 34 -10 34 -5 0 -9 -11 -9 -24z"/>
<path d="M2146 3048 c3 -4 11 -5 19 -1 21 7 19 12 -4 10 -11 0 -18 -5 -15 -9z"/>
<path d="M2200 3045 c0 -8 2 -15 4 -15 2 0 6 7 10 15 3 8 1 15 -4 15 -6 0 -10
-7 -10 -15z"/>
<path d="M2393 3029 c-2 -23 3 -25 10 -4 4 8 3 16 -1 19 -4 3 -9 -4 -9 -15z"/>
<path d="M5881 3018 c-1 -27 -3 -28 -53 -29 -67 -1 -96 -4 -104 -11 -3 -3 45
-4 106 -3 62 2 114 6 118 9 3 3 -9 6 -26 6 -26 0 -31 4 -35 28 l-4 27 -2 -27z"/>
<path d="M7736 3023 c5 -20 1 -23 -23 -24 -23 -2 -24 -2 -5 -6 21 -4 22 -10
23 -86 1 -45 4 -72 6 -59 2 12 8 22 13 22 10 0 5 73 -6 92 -4 7 -4 10 1 6 4
-4 13 -1 19 7 8 11 39 15 127 16 64 1 123 5 130 10 8 5 -42 8 -123 8 -100 0
-138 -3 -138 -12 -1 -7 -7 2 -15 18 -10 19 -13 22 -9 8z"/>
<path d="M7608 3003 c7 -3 16 -2 19 1 4 3 -2 6 -13 5 -11 0 -14 -3 -6 -6z"/>
<path d="M5660 2968 c0 -25 3 -29 10 -18 13 20 13 50 0 50 -5 0 -10 -15 -10
-32z"/>
<path d="M7408 2993 c7 -3 16 -2 19 1 4 3 -2 6 -13 5 -11 0 -14 -3 -6 -6z"/>
<path d="M7453 2993 c9 -2 23 -2 30 0 6 3 -1 5 -18 5 -16 0 -22 -2 -12 -5z"/>
<path d="M5960 2983 c0 -5 27 -8 60 -8 33 0 60 3 60 8 0 4 -27 7 -60 7 -33 0
-60 -3 -60 -7z"/>
<path d="M8001 2938 c2 -28 2 -29 6 -8 3 14 10 28 17 32 7 5 5 8 -6 8 -14 0
-18 -8 -17 -32z"/>
<path d="M5882 2935 c0 -16 2 -22 5 -12 2 9 2 23 0 30 -3 6 -5 -1 -5 -18z"/>
<path d="M1683 2943 c-18 -6 -16 -30 2 -30 8 0 12 4 9 8 -2 4 1 9 8 11 7 3 8
7 3 10 -6 3 -16 3 -22 1z"/>
<path d="M1886 2935 c5 -11 1 -14 -12 -9 -18 5 -18 5 -1 -6 14 -9 22 -9 33 0
20 17 18 30 -6 30 -13 0 -18 -5 -14 -15z"/>
<path d="M2075 2940 c-6 -9 0 -14 17 -12 3 1 8 -5 11 -12 3 -8 -1 -13 -11 -12
-15 1 -17 -12 -18 -99 -1 -55 3 -107 7 -115 5 -10 8 1 9 32 0 42 2 46 21 41
19 -5 20 -3 11 14 -6 11 -18 25 -27 33 -11 9 -12 16 -4 26 6 7 8 22 4 34 -4
12 -2 20 5 20 6 0 8 -4 5 -10 -3 -5 -1 -10 4 -10 6 0 11 -7 11 -15 0 -8 -4
-15 -10 -15 -5 0 -10 -4 -10 -10 0 -12 22 -9 32 5 5 6 8 3 8 -7 0 -9 -6 -18
-12 -21 -10 -3 -10 -7 0 -19 7 -9 10 -22 6 -31 -6 -16 11 -57 30 -69 16 -11
28 -10 21 2 -4 6 -2 17 4 24 9 10 7 15 -5 20 -10 4 -21 1 -26 -6 -5 -9 -8 -4
-8 15 0 29 9 34 27 16 14 -14 25 3 30 48 3 30 1 33 -23 33 -26 0 -26 1 -10 25
11 16 12 25 5 25 -8 0 -8 4 1 15 10 12 9 15 -6 15 -13 1 -10 5 10 13 28 12 26
13 -37 15 -37 2 -68 -2 -72 -8z m69 -26 c3 -8 2 -12 -4 -9 -6 3 -10 10 -10 16
0 14 7 11 14 -7z m21 -34 c3 -5 1 -10 -4 -10 -6 0 -11 5 -11 10 0 6 2 10 4 10
3 0 8 -4 11 -10z m4 -68 c7 -13 6 -19 -2 -19 -7 0 -13 9 -13 19 0 10 1 18 3
18 1 0 7 -8 12 -18z"/>
<path d="M2226 2942 c-3 -5 1 -9 9 -9 8 0 15 4 15 9 0 4 -4 8 -9 8 -6 0 -12
-4 -15 -8z"/>
<path d="M2265 2940 c-3 -5 -1 -10 4 -10 6 0 11 5 11 10 0 6 -2 10 -4 10 -3 0
-8 -4 -11 -10z"/>
<path d="M2445 2940 c4 -6 11 -8 16 -5 14 9 11 15 -7 15 -8 0 -12 -5 -9 -10z"/>
<path d="M2510 2941 c0 -5 7 -11 15 -15 9 -3 15 0 15 9 0 8 -7 15 -15 15 -8 0
-15 -4 -15 -9z"/>
<path d="M6940 2940 c0 -5 5 -10 10 -10 6 0 10 5 10 10 0 6 -4 10 -10 10 -5 0
-10 -4 -10 -10z"/>
<path d="M7389 2931 c11 -7 9 -13 -8 -30 -11 -11 -21 -27 -21 -33 0 -7 12 -1
26 14 27 26 28 58 2 58 -10 0 -10 -2 1 -9z"/>
<path d="M6981 2904 c0 -11 3 -14 6 -6 3 7 2 16 -1 19 -3 4 -6 -2 -5 -13z"/>
<path d="M1791 2901 c-1 -8 -8 -11 -20 -8 -10 2 -26 0 -35 -5 -10 -6 -16 -5
-16 2 0 17 -16 11 -17 -7 -1 -10 -4 -30 -7 -46 -6 -27 -6 -27 12 -10 13 12 16
22 9 30 -7 10 -2 12 21 7 17 -4 32 -1 36 5 4 6 12 11 17 11 6 0 7 -4 4 -10 -3
-5 1 -10 9 -10 9 0 16 5 16 10 0 6 -4 10 -9 10 -5 0 -12 8 -14 18 -3 9 -5 11
-6 3z"/>
<path d="M5845 2885 c5 -22 4 -26 -4 -15 -14 20 -20 10 -10 -17 11 -30 54 -33
46 -3 -3 11 -1 23 4 26 5 3 9 11 9 17 0 7 -4 6 -10 -3 -9 -13 -12 -12 -26 5
-15 19 -15 19 -9 -10z"/>
<path d="M5960 2892 c0 -10 13 -25 28 -34 l29 -17 0 29 c0 20 -5 30 -15 30
-10 0 -13 -7 -9 -21 4 -16 3 -18 -8 -9 -8 6 -11 18 -8 26 3 8 0 14 -6 14 -6 0
-11 -8 -11 -18z"/>
<path d="M6534 2885 c-3 -8 -4 -20 -2 -27 3 -7 7 -1 10 15 6 29 1 36 -8 12z"/>
<path d="M7467 2886 c-3 -8 1 -20 9 -26 12 -10 14 -8 14 14 0 28 -14 35 -23
12z"/>
<path d="M7410 2865 c-16 -17 -19 -25 -9 -25 21 0 42 16 45 34 3 23 -9 20 -36
-9z"/>
<path d="M1660 2799 c0 -71 3 -88 16 -93 13 -5 14 -3 7 6 -13 17 -16 71 -3 63
5 -3 5 7 -1 25 -6 17 -9 36 -6 44 3 7 1 19 -4 27 -5 9 -9 -18 -9 -72z"/>
<path d="M6566 2863 c-6 -14 -5 -15 5 -6 7 7 10 15 7 18 -3 3 -9 -2 -12 -12z"/>
<path d="M1825 2860 c-3 -5 -3 -10 2 -10 12 0 -20 -20 -32 -20 -5 0 -3 5 5 10
9 6 10 10 3 10 -6 0 -14 -4 -17 -8 -10 -17 11 -30 47 -29 33 1 36 3 22 13 -12
9 -13 13 -3 17 11 4 11 6 0 6 -7 1 -10 6 -7 11 3 6 2 10 -4 10 -5 0 -13 -4
-16 -10z"/>
<path d="M7024 2805 c1 -85 16 -85 16 0 0 36 -4 65 -9 65 -4 0 -8 -29 -7 -65z"/>
<path d="M6435 2850 c3 -5 8 -10 11 -10 2 0 4 5 4 10 0 6 -5 10 -11 10 -5 0
-7 -4 -4 -10z"/>
<path d="M6501 2844 c0 -11 3 -14 6 -6 3 7 2 16 -1 19 -3 4 -6 -2 -5 -13z"/>
<path d="M7428 2827 c-16 -6 -28 -14 -28 -18 0 -10 58 10 66 22 6 11 -3 10
-38 -4z"/>
<path d="M1872 2789 c-13 -13 -25 -17 -38 -13 -10 4 -16 4 -12 -1 4 -4 27 -9
51 -10 34 -1 43 2 44 16 2 26 -24 31 -45 8z"/>
<path d="M2350 2800 c0 -5 5 -10 10 -10 6 0 10 5 10 10 0 6 -4 10 -10 10 -5 0
-10 -4 -10 -10z"/>
<path d="M5883 2770 c0 -25 2 -35 4 -22 2 12 2 32 0 45 -2 12 -4 2 -4 -23z"/>
<path d="M1808 2793 c7 -3 16 -2 19 1 4 3 -2 6 -13 5 -11 0 -14 -3 -6 -6z"/>
<path d="M2280 2770 c-13 -8 -12 -10 3 -10 9 0 17 5 17 10 0 12 -1 12 -20 0z"/>
<path d="M1774 2762 c4 -7 2 -12 -4 -12 -7 0 -10 -7 -6 -15 3 -10 -3 -17 -19
-21 -13 -3 -32 -15 -42 -27 -10 -11 -13 -17 -6 -14 6 4 13 2 15 -5 2 -6 10 -8
17 -4 7 5 10 15 7 23 -4 8 -1 11 5 7 6 -3 19 3 30 15 13 14 15 21 7 21 -8 0
-6 5 5 11 9 5 21 8 26 4 5 -3 12 -1 16 5 3 5 0 10 -9 10 -8 0 -22 3 -32 7 -12
4 -15 3 -10 -5z"/>
<path d="M2221 2751 c-9 -15 -7 -20 9 -24 16 -4 20 0 20 19 0 29 -15 31 -29 5z"/>
<path d="M1741 2734 c0 -11 3 -14 6 -6 3 7 2 16 -1 19 -3 4 -6 -2 -5 -13z"/>
<path d="M2270 2719 c0 -28 1 -29 16 -14 9 8 13 22 10 30 -10 26 -26 16 -26
-16z"/>
<path d="M1860 2723 c-31 -12 -37 -35 -14 -57 21 -22 34 -20 34 4 0 11 -5 20
-11 20 -5 0 -8 4 -4 10 3 5 13 6 23 3 15 -6 15 -5 3 10 -7 9 -14 17 -15 16 0
0 -8 -3 -16 -6z"/>
<path d="M1795 2696 c-9 -14 -24 -26 -33 -28 -11 -3 -7 -6 11 -10 21 -4 27 -2
23 8 -3 7 4 20 15 28 12 8 16 16 10 20 -5 4 -17 -4 -26 -18z"/>
<path d="M2104 2704 c3 -9 6 -18 6 -20 0 -2 4 -4 9 -4 5 0 7 9 4 20 -3 11 -10
20 -15 20 -6 0 -7 -7 -4 -16z"/>
<path d="M2520 2709 c0 -5 5 -7 10 -4 6 3 10 8 10 11 0 2 -4 4 -10 4 -5 0 -10
-5 -10 -11z"/>
<path d="M7237 2686 c-3 -8 -2 -27 3 -43 8 -26 8 -25 9 15 1 43 -3 52 -12 28z"/>
<path d="M5870 2640 c-13 -8 -12 -10 3 -10 9 0 17 5 17 10 0 12 -1 12 -20 0z"/>
<path d="M5750 2620 c8 -5 24 -10 34 -10 26 0 18 6 -19 14 -22 5 -26 4 -15 -4z"/>
<path d="M5828 2583 c6 -2 18 -2 25 0 6 3 1 5 -13 5 -14 0 -19 -2 -12 -5z"/>
<path d="M6058 2563 c6 -2 18 -2 25 0 6 3 1 5 -13 5 -14 0 -19 -2 -12 -5z"/>
<path d="M6351 2501 c-17 -11 18 -17 111 -20 83 -2 120 -9 130 -25 5 -7 8 -5
8 6 0 22 -16 26 -130 34 -52 3 -97 8 -100 9 -3 2 -12 0 -19 -4z"/>
<path d="M7701 2496 c11 -9 69 -14 69 -6 0 6 -16 10 -37 10 -20 0 -34 -2 -32
-4z"/>
<path d="M6190 2440 c0 -11 5 -20 10 -20 6 0 10 9 10 20 0 11 -4 20 -10 20 -5
0 -10 -9 -10 -20z"/>
<path d="M7810 2451 c0 -11 52 -21 99 -20 l36 1 -30 8 c-51 14 -105 19 -105
11z"/>
<path d="M7955 2450 c11 -5 27 -9 35 -9 9 0 8 4 -5 9 -11 5 -27 9 -35 9 -9 0
-8 -4 5 -9z"/>
<path d="M6880 2400 c0 -5 7 -10 16 -10 8 0 12 5 9 10 -3 6 -10 10 -16 10 -5
0 -9 -4 -9 -10z"/>
<path d="M2995 2185 c-9 -3 -215 -32 -392 -54 -29 -4 -56 -11 -60 -15 -4 -5
16 -5 45 -1 35 5 52 3 52 -4 0 -6 -14 -11 -32 -11 -54 0 -26 -8 47 -14 47 -4
65 -2 55 4 -8 5 -11 10 -6 10 5 0 2 8 -5 17 -12 15 -12 16 4 10 10 -4 23 -7
28 -7 6 0 8 -4 5 -9 -9 -14 35 -21 56 -10 22 12 79 2 91 -15 5 -6 6 -1 2 12
-8 27 6 29 30 2 13 -14 21 -17 31 -9 8 7 14 7 19 -1 9 -15 44 -12 61 5 11 11
21 12 33 5 10 -5 21 -7 24 -4 3 3 15 3 27 -1 12 -4 19 -9 16 -12 -7 -8 42 -33
63 -33 13 1 12 3 -4 12 -11 6 -22 14 -25 18 -10 13 -141 110 -148 109 -4 0
-11 -2 -17 -4z m-320 -75 c3 -5 -1 -10 -10 -10 -9 0 -13 5 -10 10 3 6 8 10 10
10 2 0 7 -4 10 -10z"/>
<path d="M5190 2174 c-36 -7 -112 -23 -170 -34 -58 -12 -148 -30 -200 -40
-162 -33 -398 -77 -555 -104 -277 -48 -597 -109 -647 -123 -37 -10 -15 -19 46
-20 35 0 93 -5 128 -12 34 -6 103 -15 152 -21 79 -9 93 -13 116 -38 14 -16 31
-27 38 -24 7 2 19 -2 27 -8 11 -9 15 -9 15 -1 0 12 62 15 74 4 4 -5 34 -6 66
-5 39 3 68 -1 88 -12 34 -18 112 -22 112 -6 0 16 73 12 98 -6 13 -9 26 -13 29
-10 10 10 -29 46 -48 46 -22 0 -60 30 -53 42 7 10 54 11 54 0 0 -13 63 -32
106 -33 36 0 95 -17 66 -18 -7 -1 -10 -6 -6 -12 3 -6 22 -9 40 -7 19 2 34 0
34 -4 0 -4 18 -8 40 -8 22 0 40 5 40 10 0 6 -17 10 -38 10 -25 0 -50 9 -72 25
-19 14 -41 25 -50 25 -9 0 -25 7 -36 15 -18 13 -17 14 17 15 55 0 99 -11 99
-25 0 -18 52 -37 86 -30 23 4 25 3 9 -4 -19 -9 -19 -10 3 -10 13 -1 36 -8 52
-17 20 -13 34 -14 55 -7 23 7 32 5 52 -13 13 -12 37 -24 54 -28 17 -3 44 -15
60 -27 19 -13 29 -16 29 -8 0 8 9 4 23 -8 35 -32 62 -43 109 -43 24 0 49 -4
57 -9 16 -10 60 24 47 36 -4 5 -41 8 -82 8 -47 0 -74 4 -74 11 0 6 -11 17 -25
24 -20 11 -25 21 -25 54 0 38 -3 43 -38 58 -21 9 -55 20 -75 23 -20 4 -37 11
-37 16 0 11 73 12 84 2 12 -12 100 -43 123 -43 12 0 25 -4 28 -10 3 -5 16 -10
28 -10 21 1 21 1 3 15 -18 13 -17 14 9 21 15 4 52 4 84 1 64 -7 87 2 77 29 -4
10 -4 15 0 11 4 -4 12 3 18 15 15 29 46 35 63 12 7 -10 16 -14 20 -11 4 4 1
13 -5 19 -15 15 -16 38 -1 38 6 0 9 -7 5 -15 -4 -12 3 -15 29 -15 19 0 35 -4
35 -10 0 -5 5 -10 12 -10 9 0 9 3 0 12 -16 16 -16 33 1 21 18 -15 135 -23 170
-11 18 5 39 12 47 14 12 4 12 6 0 14 -9 5 1 7 26 3 31 -4 45 -1 59 13 13 13
20 15 23 6 5 -17 30 -15 48 3 9 8 24 15 35 15 10 0 19 6 19 14 0 25 -28 37
-84 39 -31 1 -56 4 -56 8 0 9 -90 33 -259 69 -78 17 -214 48 -302 70 -87 22
-159 40 -161 39 -2 -1 -32 -7 -68 -15z m910 -198 c0 -3 -4 -8 -10 -11 -5 -3
-10 -1 -10 4 0 6 5 11 10 11 6 0 10 -2 10 -4z m-652 -46 c7 -12 8 -20 2 -20
-5 0 -10 4 -10 8 0 5 -12 13 -27 19 l-28 11 25 1 c15 1 30 -7 38 -19z m-242
-57 c-3 -4 -6 -1 -6 5 0 7 -8 12 -17 12 -15 0 -16 2 -3 10 10 6 17 4 23 -6 5
-9 6 -18 3 -21z m291 11 c-3 -3 -12 -4 -19 -1 -8 3 -5 6 6 6 11 1 17 -2 13 -5z
m-857 -49 c0 -9 -6 -12 -15 -9 -8 4 -15 10 -15 15 0 5 7 9 15 9 8 0 15 -7 15
-15z m850 11 c0 -2 -11 -6 -25 -8 -13 -3 -22 -1 -19 3 5 9 44 13 44 5z m-260
-16 c12 -8 11 -10 -7 -10 -13 0 -23 5 -23 10 0 13 11 13 30 0z m47 -16 c-3 -3
-12 -4 -19 -1 -8 3 -5 6 6 6 11 1 17 -2 13 -5z m-1047 -34 c11 -7 3 -10 -30
-10 -33 0 -41 3 -30 10 8 5 22 10 30 10 8 0 22 -5 30 -10z m828 -2 c-16 -10
-95 -10 -101 0 -3 4 22 7 54 8 33 0 54 -3 47 -8z m62 -8 c0 -5 -2 -10 -4 -10
-3 0 -8 5 -11 10 -3 6 -1 10 4 10 6 0 11 -4 11 -10z m-10 -20 c8 -5 11 -12 7
-16 -3 -4 -12 -2 -19 4 -7 5 -24 12 -38 15 -23 4 -22 4 5 5 17 1 37 -2 45 -8z
m90 -26 c0 -9 -7 -14 -17 -12 -25 5 -28 28 -4 28 12 0 21 -6 21 -16z"/>
<path d="M2455 2110 c-30 -8 -30 -8 8 -9 20 0 37 -5 37 -10 0 -5 8 -12 18 -16
13 -5 14 -3 5 6 -6 6 -9 18 -6 25 6 15 -13 17 -62 4z"/>
<path d="M2378 2093 c7 -3 16 -2 19 1 4 3 -2 6 -13 5 -11 0 -14 -3 -6 -6z"/>
<path d="M2520 2040 c20 -13 40 -13 40 0 0 6 -12 10 -27 10 -22 0 -25 -2 -13
-10z"/>
<path d="M6328 1963 c6 -2 18 -2 25 0 6 3 1 5 -13 5 -14 0 -19 -2 -12 -5z"/>
<path d="M6550 1897 c10 -11 90 -25 90 -16 0 5 -10 9 -22 9 -13 0 -34 3 -48 7
-14 3 -23 3 -20 0z"/>
<path d="M5985 1880 c3 -5 8 -10 11 -10 2 0 4 5 4 10 0 6 -5 10 -11 10 -5 0
-7 -4 -4 -10z"/>
<path d="M6207 1877 c-3 -8 -1 -20 4 -28 5 -8 9 -32 9 -54 1 -32 3 -36 10 -19
4 12 16 24 25 28 14 5 15 9 6 20 -9 11 -9 15 1 19 8 4 7 6 -4 6 -22 1 -24 21
-3 21 8 0 15 5 15 10 0 15 -57 12 -63 -3z"/>
<path d="M3646 1841 c-4 -5 3 -7 14 -4 23 6 26 13 6 13 -8 0 -17 -4 -20 -9z"/>
<path d="M5730 1840 c19 -13 30 -13 30 0 0 6 -10 10 -22 10 -19 0 -20 -2 -8
-10z"/>
<path d="M6940 1836 c0 -2 7 -7 16 -10 8 -3 12 -2 9 4 -6 10 -25 14 -25 6z"/>
<path d="M5688 1813 c7 -3 16 -2 19 1 4 3 -2 6 -13 5 -11 0 -14 -3 -6 -6z"/>
<path d="M6998 1813 c7 -3 16 -2 19 1 4 3 -2 6 -13 5 -11 0 -14 -3 -6 -6z"/>
<path d="M5460 1770 c-11 -7 -6 -10 20 -10 26 0 31 3 20 10 -8 5 -17 10 -20
10 -3 0 -12 -5 -20 -10z"/>
<path d="M4648 1753 c6 -2 18 -2 25 0 6 3 1 5 -13 5 -14 0 -19 -2 -12 -5z"/>
<path d="M5250 1720 c0 -29 4 -40 15 -40 8 0 15 9 15 20 0 11 5 20 11 20 6 0
13 -9 16 -20 4 -14 14 -20 32 -20 14 0 43 -3 64 -6 30 -5 37 -4 37 10 0 12
-10 16 -39 16 -22 0 -41 3 -43 8 -3 8 -88 52 -100 52 -5 0 -8 -18 -8 -40z"/>
<path d="M7158 1741 c12 -11 22 -26 22 -35 0 -10 9 -16 23 -17 17 -1 15 -3 -8
-8 l-30 -6 33 -23 c17 -13 32 -30 32 -38 0 -8 5 -14 10 -14 6 0 9 -5 8 -11 -3
-12 16 -20 90 -39 44 -11 54 -25 25 -33 -12 -3 -9 -5 8 -6 15 0 32 -8 40 -17
8 -9 21 -13 35 -10 14 4 36 -2 58 -14 19 -12 47 -23 63 -26 15 -3 30 -9 31
-15 2 -5 12 -9 23 -9 11 0 27 -4 37 -9 9 -5 26 -13 37 -17 18 -6 18 -8 3 -11
-29 -7 -20 -22 17 -29 50 -9 52 -21 5 -26 -22 -2 -40 0 -40 4 0 5 -9 8 -19 8
-11 0 -21 4 -23 9 -4 13 -36 18 -40 6 -2 -5 7 -11 19 -13 12 -2 27 -10 33 -18
7 -8 27 -14 45 -14 40 0 67 -9 60 -20 -8 -13 33 -23 61 -16 19 5 24 3 24 -14
0 -11 7 -20 15 -20 8 0 22 -8 32 -18 11 -11 31 -18 52 -17 23 1 40 -5 56 -21
17 -17 39 -24 94 -30 75 -7 93 -20 39 -27 -19 -2 -14 -3 10 -2 40 2 56 -8 30
-18 -7 -3 7 -6 32 -7 25 -1 39 -4 33 -7 -24 -9 -13 -23 12 -17 16 4 34 0 50
-10 13 -9 36 -16 50 -16 15 0 24 -4 20 -10 -3 -5 3 -10 14 -10 12 0 21 -4 21
-10 0 -5 18 -10 40 -10 23 0 40 -5 40 -11 0 -13 -60 -4 -105 16 -16 8 -54 17
-82 20 -29 4 -53 11 -53 16 0 5 -19 9 -42 9 -47 -1 -37 -14 17 -23 41 -7 65
-17 65 -28 0 -5 9 -9 20 -9 14 0 20 -7 20 -21 0 -15 4 -19 15 -15 8 3 22 9 32
13 11 4 14 3 9 -5 -4 -7 -2 -12 5 -12 7 0 5 -8 -6 -20 -17 -19 -17 -21 -1 -39
13 -14 14 -21 5 -27 -7 -4 8 -14 40 -26 45 -17 68 -38 41 -38 -5 0 -10 -4 -10
-10 0 -5 7 -10 15 -10 8 0 15 9 15 20 0 23 1 24 35 8 24 -11 25 -13 8 -20 -13
-6 -9 -7 13 -5 23 2 31 0 27 -10 -3 -7 -17 -13 -32 -14 -26 0 -26 -1 -4 -11
18 -8 28 -7 50 7 23 15 26 16 15 2 -12 -14 -10 -19 18 -35 17 -11 50 -23 73
-28 l42 -8 -35 -4 c-56 -6 -63 -25 -7 -20 49 3 59 -4 30 -21 -10 -6 -12 -11
-5 -11 6 0 12 -6 12 -14 0 -13 -4 -13 -27 0 -36 18 -49 18 -57 -2 -4 -10 -2
-13 6 -8 7 5 8 3 3 -5 -5 -8 -19 -11 -39 -7 -50 10 -101 5 -118 -12 -14 -14
30 -72 54 -72 10 0 18 -4 18 -10 0 -5 11 -10 24 -10 13 0 27 -7 30 -16 5 -14
0 -16 -36 -11 l-43 6 40 -19 c52 -25 65 -25 65 3 0 17 10 28 36 41 40 19 60
12 30 -10 -17 -12 -18 -14 -3 -14 9 0 17 5 17 10 0 6 7 10 15 10 8 0 15 -4 15
-10 0 -5 15 -10 33 -10 24 0 35 -6 42 -22 6 -13 19 -25 29 -27 21 -3 53 -31
39 -32 -74 -6 -93 -3 -93 14 0 20 -4 21 -31 7 -14 -8 -27 -6 -50 5 -17 9 -38
14 -47 10 -15 -6 -15 -8 2 -21 11 -8 28 -14 37 -14 10 0 40 -11 67 -25 28 -14
57 -25 66 -25 9 0 16 -4 16 -10 0 -5 -7 -10 -16 -10 -19 0 -117 41 -125 53 -3
4 -24 7 -45 5 l-39 -3 42 -13 c55 -16 70 -37 20 -28 -20 4 -54 2 -74 -4 -37
-11 -38 -12 -34 -56 2 -35 0 -44 -13 -44 -9 0 -16 7 -16 15 0 11 -13 15 -54
15 -33 0 -56 5 -58 12 -2 6 -17 13 -34 14 -16 1 -37 5 -46 9 -12 5 -18 2 -18
-8 0 -8 10 -17 21 -20 15 -4 20 -11 16 -21 -4 -10 -1 -16 7 -16 8 0 21 -11 30
-24 8 -14 25 -27 36 -31 23 -7 27 -25 6 -25 -8 0 -24 -16 -36 -37 -17 -29 -18
-38 -8 -44 10 -7 9 -9 -4 -9 -32 0 -19 -19 17 -26 39 -7 54 -22 35 -34 -7 -5
107 -9 253 -9 l267 -2 0 145 c0 129 -2 145 -17 149 -17 4 -17 5 0 6 16 1 17
33 17 525 l0 525 -57 11 c-60 11 -75 14 -228 50 -49 12 -142 32 -205 45 -63
13 -169 37 -235 53 -66 16 -140 33 -165 37 -25 4 -88 17 -140 30 -52 13 -135
33 -185 44 -49 11 -160 35 -245 54 -85 19 -198 43 -250 52 -52 10 -99 22 -104
26 -6 5 -17 9 -25 9 -12 -1 -10 -5 7 -19z m158 -164 c4 -4 -2 -7 -14 -7 -12 0
-22 4 -22 9 0 10 26 9 36 -2z m483 -223 c10 -9 -35 -3 -49 6 -11 8 -7 9 15 4
17 -4 32 -8 34 -10z m151 -34 c12 -8 12 -10 -5 -10 -11 0 -27 5 -35 10 -12 8
-12 10 5 10 11 0 27 -5 35 -10z m160 -46 c0 -2 -7 -4 -15 -4 -8 0 -15 4 -15
10 0 5 7 7 15 4 8 -4 15 -8 15 -10z m323 -311 c-7 -2 -19 -2 -25 0 -7 3 -2 5
12 5 14 0 19 -2 13 -5z m28 -45 c1 -7 1 -18 0 -25 -1 -6 8 -14 19 -18 11 -3
20 -11 20 -16 0 -13 -13 -11 -36 6 -10 8 -29 15 -41 15 -18 0 -23 6 -23 25 0
21 5 25 30 25 17 0 31 -6 31 -12z m112 -45 c-7 -2 -21 -2 -30 0 -10 3 -4 5 12
5 17 0 24 -2 18 -5z m207 -253 c0 -13 -7 -20 -20 -20 -13 0 -20 7 -20 20 0 13
7 20 20 20 13 0 20 -7 20 -20z m-80 -30 c0 -5 -6 -10 -14 -10 -8 0 -18 5 -21
10 -3 6 3 10 14 10 12 0 21 -4 21 -10z m20 -25 c0 -8 -4 -15 -10 -15 -5 0 -7
7 -4 15 4 8 8 15 10 15 2 0 4 -7 4 -15z m140 -185 c0 -5 -6 -10 -14 -10 -8 0
-18 5 -21 10 -3 6 3 10 14 10 12 0 21 -4 21 -10z m108 -15 c-3 -3 -9 2 -12 12
-6 14 -5 15 5 6 7 -7 10 -15 7 -18z m-295 -42 c-7 -2 -19 -2 -25 0 -7 3 -2 5
12 5 14 0 19 -2 13 -5z m131 -9 c5 -13 3 -14 -6 -6 -7 5 -22 12 -33 15 -16 4
-14 5 6 6 17 1 29 -5 33 -15z m111 6 c13 -5 14 -9 5 -9 -8 0 -24 4 -35 9 -13
5 -14 9 -5 9 8 0 24 -4 35 -9z m-245 -105 c0 -12 -29 -3 -34 10 -4 13 -2 14
14 5 11 -6 20 -13 20 -15z"/>
<path d="M5608 1713 c7 -3 16 -2 19 1 4 3 -2 6 -13 5 -11 0 -14 -3 -6 -6z"/>
<path d="M4648 1703 c7 -3 16 -2 19 1 4 3 -2 6 -13 5 -11 0 -14 -3 -6 -6z"/>
<path d="M4943 1703 c9 -2 17 -9 17 -14 0 -5 8 -9 17 -9 15 0 14 2 -3 15 -10
8 -26 14 -34 14 -11 -1 -10 -3 3 -6z"/>
<path d="M5665 1700 c3 -5 8 -10 11 -10 2 0 4 5 4 10 0 6 -5 10 -11 10 -5 0
-7 -4 -4 -10z"/>
<path d="M6198 1663 c7 -3 16 -2 19 1 4 3 -2 6 -13 5 -11 0 -14 -3 -6 -6z"/>
<path d="M5520 1650 c0 -5 5 -10 10 -10 6 0 10 5 10 10 0 6 -4 10 -10 10 -5 0
-10 -4 -10 -10z"/>
<path d="M5580 1631 c0 -12 28 -22 35 -12 3 5 -2 12 -11 15 -21 8 -24 8 -24
-3z"/>
<path d="M4415 1620 c11 -5 27 -9 35 -9 13 -1 13 0 0 9 -8 5 -24 9 -35 9 l-20
0 20 -9z"/>
<path d="M6208 1613 c7 -3 16 -2 19 1 4 3 -2 6 -13 5 -11 0 -14 -3 -6 -6z"/>
<path d="M4290 1539 c-34 -12 -70 -18 -94 -15 -24 3 -35 1 -26 -4 9 -6 -21
-19 -93 -41 -59 -18 -105 -34 -103 -36 2 -2 44 8 92 23 49 15 109 29 134 32
25 2 47 8 50 12 3 4 31 15 63 24 31 9 57 19 57 21 0 9 -24 4 -80 -16z"/>
<path d="M4855 1550 c3 -5 10 -10 16 -10 5 0 9 5 9 10 0 6 -7 10 -16 10 -8 0
-12 -4 -9 -10z"/>
<path d="M7500 1428 c-21 -9 -22 -12 -8 -15 10 -3 25 3 34 11 18 18 10 19 -26
4z"/>
<path d="M3818 1412 c15 -2 22 -9 18 -17 -3 -9 0 -12 10 -8 9 3 26 0 38 -7 13
-6 32 -10 42 -7 14 3 10 6 -14 12 -20 5 -31 13 -28 20 3 8 -10 12 -42 12 -26
0 -37 -2 -24 -5z"/>
<path d="M3658 1393 c6 -2 12 -12 12 -21 0 -14 2 -15 9 -2 12 18 5 30 -17 29
-11 0 -12 -3 -4 -6z"/>
<path d="M7425 1390 c3 -5 16 -10 28 -9 21 0 21 1 2 9 -28 12 -37 12 -30 0z"/>
<path d="M3965 1340 c-4 -7 -19 -10 -36 -6 -16 3 -29 4 -29 1 0 -13 141 -68
175 -68 22 0 33 -2 25 -5 -24 -8 -41 -30 -30 -37 5 -3 10 -1 10 4 0 16 49 13
66 -3 7 -8 19 -16 26 -19 7 -2 10 -8 6 -12 -4 -4 -17 2 -29 14 -23 21 -49 28
-49 13 0 -12 108 -57 300 -127 41 -16 80 -31 85 -36 6 -4 74 -32 152 -62 171
-67 199 -81 213 -107 9 -17 7 -22 -17 -32 -15 -7 -30 -13 -32 -15 -7 -4 64
-63 77 -63 8 0 12 -6 9 -12 -2 -7 -14 -12 -25 -10 -15 2 -22 -2 -22 -12 0 -11
8 -15 25 -14 14 1 25 8 25 15 0 17 17 17 27 0 4 -8 17 -19 28 -25 15 -8 16
-11 5 -12 -9 0 -21 5 -27 11 -18 18 -46 2 -40 -22 5 -18 2 -20 -26 -13 -18 3
-38 11 -44 16 -10 8 -13 3 -13 -18 0 -28 -2 -29 -47 -30 -27 0 -61 -3 -78 -6
-16 -3 -24 -3 -17 -1 21 8 13 23 -13 23 -25 0 -54 22 -72 55 -9 16 -14 16 -55
-9 -48 -28 -82 -32 -137 -16 -32 9 -33 8 -17 -9 18 -20 21 -41 6 -41 -16 0
-205 -92 -208 -101 -2 -5 -12 -9 -22 -9 -10 0 -22 -4 -25 -10 -8 -12 -8 -12
34 0 30 8 36 6 68 -25 22 -22 33 -40 30 -52 -4 -14 -5 -13 -6 5 -1 24 -21 31
-21 7 0 -10 -10 -15 -30 -15 -34 0 -38 -7 -13 -26 26 -18 7 -30 -22 -14 -23
12 -27 11 -47 -9 -18 -21 -22 -21 -30 -7 -5 9 -16 16 -24 16 -8 0 -13 -4 -10
-8 3 -5 -6 -26 -19 -48 -24 -38 -24 -38 -25 -11 0 27 0 27 -65 25 -48 -1 -69
3 -83 15 -18 16 -18 16 -15 -16 2 -17 0 -26 -3 -19 -3 6 -12 12 -19 12 -8 0
-39 31 -69 69 -57 72 -87 100 -68 65 6 -11 19 -28 29 -39 11 -11 22 -27 26
-35 4 -8 19 -33 32 -55 14 -22 28 -48 32 -57 3 -10 9 -15 14 -12 5 3 9 -2 9
-10 0 -26 -20 -29 -41 -5 -10 12 -19 17 -19 11 0 -6 -12 -12 -27 -14 -32 -4
-46 -38 -16 -38 16 0 18 -6 15 -40 -4 -37 -2 -40 22 -40 24 0 26 -4 26 -40 0
-29 4 -40 15 -40 12 0 13 -5 3 -24 -20 -45 -38 -40 -38 9 0 26 -5 45 -11 45
-7 0 -8 -11 -4 -30 5 -23 3 -30 -9 -30 -9 0 -16 7 -16 15 0 8 -4 15 -10 15 -5
0 -10 7 -10 15 0 8 -4 15 -8 15 -5 0 -15 11 -22 25 -9 18 -22 25 -42 25 -33 0
-36 -10 -8 -28 11 -7 20 -21 20 -32 0 -11 6 -20 14 -20 9 0 17 -15 21 -40 l7
-40 1111 0 1112 1 -27 22 c-67 55 -121 90 -115 73 4 -10 3 -15 -4 -11 -5 4 -7
15 -4 26 5 15 1 19 -14 19 -12 0 -21 5 -21 10 0 6 -8 14 -18 18 -11 4 -41 26
-67 50 -27 23 -40 39 -29 35 10 -4 25 -13 33 -21 8 -7 33 -25 55 -39 23 -14
43 -29 46 -33 3 -4 39 -30 80 -58 41 -27 84 -59 94 -71 18 -20 29 -21 168 -21
l149 0 -15 22 c-21 30 -20 38 4 38 16 0 20 -7 20 -30 l0 -30 80 0 c74 0 80 2
80 20 0 19 -5 21 -51 19 -43 -2 -55 1 -70 19 -9 12 -22 22 -28 22 -17 0 -13
17 5 24 32 12 1 26 -60 26 -39 0 -69 5 -82 15 -18 14 -17 14 14 15 31 0 32 2
32 39 0 32 -4 40 -22 45 -34 9 -36 8 -68 -26 l-30 -31 -22 23 c-15 16 -18 25
-10 28 7 2 12 21 12 42 0 21 3 41 8 43 4 3 5 -15 3 -39 -3 -39 -1 -44 18 -44
18 0 21 6 22 43 0 23 3 36 6 29 2 -6 9 -9 15 -6 5 3 -4 15 -22 25 -17 11 -35
17 -41 14 -5 -4 -13 4 -18 17 -7 17 -10 19 -10 6 -1 -22 -17 -24 -25 -3 -3 8
-17 15 -31 15 -14 0 -25 5 -25 10 0 6 5 10 11 10 5 0 7 5 3 11 -4 7 -9 7 -13
2 -9 -14 -47 -33 -65 -33 -9 0 -16 9 -16 20 0 11 7 20 15 20 8 0 15 5 15 10 0
6 -7 13 -15 16 -8 4 -15 12 -15 20 0 8 -6 14 -13 14 -7 0 -26 14 -42 30 -16
17 -37 30 -47 30 -10 0 -18 5 -18 10 0 6 -8 10 -19 10 -10 0 -21 9 -24 20 -3
11 -17 24 -31 30 -14 5 -27 15 -27 22 -4 43 -18 68 -38 68 -14 -1 -14 -2 2
-14 9 -7 17 -19 17 -26 0 -9 -9 -5 -24 9 -14 13 -22 29 -20 36 3 7 -8 18 -25
25 -17 7 -31 16 -31 21 0 5 -7 9 -15 9 -8 0 -23 8 -33 18 -37 35 -76 49 -124
44 -27 -2 -48 -8 -48 -13 0 -5 -13 5 -30 23 -16 17 -30 35 -30 39 0 5 -9 9
-20 9 -12 0 -32 7 -45 16 -24 16 -55 15 -97 -1 -13 -5 -18 -2 -18 9 0 9 8 16
20 16 11 0 20 4 20 9 0 14 -48 41 -63 36 -7 -3 -27 1 -43 10 -16 8 -37 15 -46
15 -9 0 -20 5 -23 10 -3 6 -10 10 -16 10 -5 0 -9 -4 -9 -10 0 -5 7 -10 15 -10
17 0 20 -16 4 -26 -13 -8 -29 7 -33 30 -3 22 -37 39 -166 86 -58 20 -114 41
-125 45 -16 5 -17 5 -5 -4 11 -8 5 -9 -25 -4 -44 6 -80 22 -71 30 3 3 12 0 20
-6 8 -7 25 -11 38 -9 15 2 -17 19 -100 52 -67 27 -125 46 -129 42 -3 -3 -1 -6
6 -6 7 0 9 -5 5 -12 -4 -7 -3 -8 4 -4 7 4 12 2 12 -3 0 -13 -17 -13 -45 -1
-14 6 -15 9 -5 10 8 1 3 6 -12 12 -16 5 -28 16 -28 23 0 14 -29 24 -75 26 -24
0 -26 2 -11 8 18 7 18 8 -5 14 -34 9 -47 8 -30 -2 10 -6 2 -9 -22 -8 -21 0
-37 5 -37 9 0 4 -6 8 -13 8 -7 0 -22 7 -33 15 -18 14 -17 14 16 9 24 -4 30 -2
20 4 -27 17 -78 24 -85 12z m238 -97 c-7 -2 -19 -2 -25 0 -7 3 -2 5 12 5 14 0
19 -2 13 -5z m57 -67 c0 -3 -4 -8 -10 -11 -5 -3 -10 -1 -10 4 0 6 5 11 10 11
6 0 10 -2 10 -4z m150 -51 c-7 -8 -17 -15 -22 -15 -11 0 14 29 26 30 5 0 3 -7
-4 -15z m50 -16 c0 -6 7 -9 14 -6 10 4 13 1 9 -9 -7 -18 -13 -18 -43 6 l-25
20 23 0 c12 0 22 -5 22 -11z m222 -40 c19 -10 19 -11 1 -28 -28 -26 -50 -31
-77 -17 -27 14 -21 41 7 30 9 -3 14 -10 11 -15 -3 -5 4 -9 15 -9 25 0 37 18
17 26 -18 7 -22 24 -5 24 6 0 19 -5 31 -11z m325 -195 c-3 -3 -12 -4 -19 -1
-8 3 -5 6 6 6 11 1 17 -2 13 -5z m-127 -14 c0 -5 -5 -10 -11 -10 -5 0 -7 5 -4
10 3 6 8 10 11 10 2 0 4 -4 4 -10z m493 -67 c-7 -2 -19 -2 -25 0 -7 3 -2 5 12
5 14 0 19 -2 13 -5z m77 -43 c0 -5 -4 -10 -10 -10 -5 0 -10 5 -10 10 0 6 5 10
10 10 6 0 10 -4 10 -10z m45 -30 c3 -5 -1 -10 -9 -10 -8 0 -18 5 -21 10 -3 6
1 10 9 10 8 0 18 -4 21 -10z m-945 -24 c0 -3 -4 -8 -10 -11 -5 -3 -10 -1 -10
4 0 6 5 11 10 11 6 0 10 -2 10 -4z m278 -73 c-5 -25 -28 -28 -28 -4 0 12 6 21
16 21 9 0 14 -7 12 -17z m-68 -23 c0 -5 -4 -10 -10 -10 -5 0 -10 5 -10 10 0 6
5 10 10 10 6 0 10 -4 10 -10z m390 -36 c0 -2 -7 -4 -15 -4 -8 0 -15 4 -15 10
0 5 7 7 15 4 8 -4 15 -8 15 -10z m-330 -18 c0 -8 -4 -18 -10 -21 -5 -3 -10 3
-10 14 0 12 5 21 10 21 6 0 10 -6 10 -14z m940 -41 c0 -8 -4 -15 -9 -15 -13 0
-22 16 -14 24 11 11 23 6 23 -9z m150 -155 c12 -8 9 -10 -12 -10 -16 0 -28 5
-28 10 0 13 20 13 40 0z m70 -20 c0 -5 -9 -10 -21 -10 -11 0 -17 5 -14 10 3 6
13 10 21 10 8 0 14 -4 14 -10z m-420 -50 c14 -11 21 -20 15 -20 -5 0 -21 9
-35 20 -14 11 -20 20 -15 20 6 0 21 -9 35 -20z m-1776 -33 c7 -6 6 -7 -4 -4
-8 2 -16 12 -17 23 -2 13 -1 15 4 4 3 -8 11 -19 17 -23z m118 -89 c2 -13 8
-22 13 -22 12 2 39 -35 31 -43 -3 -3 -8 2 -12 11 -3 9 -10 14 -14 11 -13 -8
-42 26 -35 42 4 11 1 13 -10 9 -9 -3 -15 -1 -14 7 2 22 -13 57 -23 51 -16 -10
-28 18 -17 38 9 16 14 13 44 -32 18 -27 35 -60 37 -72z m1712 16 c3 -8 2 -12
-4 -9 -6 3 -10 10 -10 16 0 14 7 11 14 -7z m543 -109 c9 -25 -4 -29 -17 -6 -7
15 -7 21 0 21 6 0 13 -7 17 -15z"/>
<path d="M4938 1273 c7 -3 16 -2 19 1 4 3 -2 6 -13 5 -11 0 -14 -3 -6 -6z"/>
<path d="M3220 1250 c0 -5 4 -10 9 -10 6 0 13 5 16 10 3 6 -1 10 -9 10 -9 0
-16 -4 -16 -10z"/>
<path d="M3260 1250 c0 -5 7 -10 15 -10 8 0 15 5 15 10 0 6 -7 10 -15 10 -8 0
-15 -4 -15 -10z"/>
<path d="M4030 1250 c0 -5 5 -10 11 -10 5 0 7 5 4 10 -3 6 -8 10 -11 10 -2 0
-4 -4 -4 -10z"/>
<path d="M5037 1239 c7 -7 15 -10 18 -7 3 3 -2 9 -12 12 -14 6 -15 5 -6 -5z"/>
<path d="M8080 1080 c0 -5 9 -10 20 -10 11 0 20 5 20 10 0 6 -9 10 -20 10 -11
0 -20 -4 -20 -10z"/>
<path d="M5435 979 c10 -32 10 -32 34 -19 24 12 28 30 7 30 -8 0 -22 3 -31 7
-14 5 -16 2 -10 -18z"/>
<path d="M3790 986 c0 -2 7 -7 16 -10 8 -3 12 -2 9 4 -6 10 -25 14 -25 6z"/>
<path d="M5355 980 c3 -5 8 -10 11 -10 2 0 4 5 4 10 0 6 -5 10 -11 10 -5 0 -7
-4 -4 -10z"/>
<path d="M3831 966 c10 -9 89 -46 89 -41 0 5 -75 45 -86 45 -4 0 -5 -2 -3 -4z"/>
<path d="M5516 952 c-3 -5 -2 -12 2 -18 10 -13 112 -67 118 -61 6 5 -73 70
-97 79 -10 4 -20 4 -23 0z"/>
<path d="M8248 953 c7 -3 16 -2 19 1 4 3 -2 6 -13 5 -11 0 -14 -3 -6 -6z"/>
<path d="M8298 933 c24 -5 30 -28 10 -36 -7 -2 -10 -8 -6 -11 3 -4 16 2 28 14
18 18 20 24 9 31 -8 5 -25 8 -39 7 -23 -1 -24 -1 -2 -5z"/>
<path d="M3970 895 c25 -13 50 -24 55 -24 6 0 -10 11 -35 24 -25 13 -49 24
-55 24 -5 0 10 -11 35 -24z"/>
<path d="M5475 905 c22 -8 41 -15 43 -15 1 0 2 -9 2 -21 0 -14 6 -19 18 -17 9
1 28 -5 42 -15 30 -21 65 -24 38 -3 -10 7 -18 21 -18 30 0 10 -9 16 -25 16
-14 0 -43 9 -65 20 -22 11 -47 20 -57 20 -10 -1 0 -7 22 -15z"/>
<path d="M8245 910 c-4 -6 6 -10 22 -10 22 0 25 2 13 10 -19 12 -27 12 -35 0z"/>
<path d="M5410 874 c0 -3 7 -12 15 -20 8 -9 15 -24 15 -35 0 -15 7 -19 37 -19
35 0 36 0 18 20 -10 11 -26 22 -36 25 -11 4 -19 13 -19 21 0 8 -7 14 -15 14
-8 0 -15 -3 -15 -6z"/>
<path d="M4080 845 c0 -7 61 -37 66 -33 2 3 -12 12 -31 21 -19 9 -35 15 -35
12z"/>
<path d="M4174 796 c11 -9 24 -16 30 -16 12 0 7 5 -24 19 -24 11 -24 11 -6 -3z"/>
<path d="M5520 781 c0 -5 7 -11 15 -15 8 -3 15 -1 15 3 0 5 -7 11 -15 15 -8 3
-15 1 -15 -3z"/>
<path d="M8538 723 c7 -3 16 -2 19 1 4 3 -2 6 -13 5 -11 0 -14 -3 -6 -6z"/>
<path d="M8578 633 c6 -2 18 -2 25 0 6 3 1 5 -13 5 -14 0 -19 -2 -12 -5z"/>
<path d="M8455 600 c3 -5 10 -10 16 -10 5 0 9 5 9 10 0 6 -7 10 -16 10 -8 0
-12 -4 -9 -10z"/>
<path d="M3825 420 c3 -5 8 -10 11 -10 2 0 4 5 4 10 0 6 -5 10 -11 10 -5 0 -7
-4 -4 -10z"/>
<path d="M8548 423 c7 -3 16 -2 19 1 4 3 -2 6 -13 5 -11 0 -14 -3 -6 -6z"/>
<path d="M8543 336 c-4 -8 -26 -16 -48 -19 -36 -3 -35 -4 13 -5 46 -2 52 0 52
18 0 24 -6 26 -17 6z"/>
<path d="M2618 243 c7 -3 16 -2 19 1 4 3 -2 6 -13 5 -11 0 -14 -3 -6 -6z"/>
<path d="M3108 233 c-10 -2 -18 -9 -18 -14 0 -14 20 -11 36 6 16 15 13 16 -18
8z"/>
<path d="M6240 191 c0 -8 -7 -10 -20 -6 -14 5 -20 2 -20 -9 0 -21 36 -21 44 0
4 9 4 19 1 22 -3 3 -5 0 -5 -7z"/>
<path d="M2430 170 c0 -5 7 -10 16 -10 8 0 12 5 9 10 -3 6 -10 10 -16 10 -5 0
-9 -4 -9 -10z"/>
<path d="M3330 154 c0 -7 7 -25 15 -40 8 -16 15 -22 15 -14 -1 18 -29 70 -30
54z"/>
<path d="M8248 143 c6 -2 18 -2 25 0 6 3 1 5 -13 5 -14 0 -19 -2 -12 -5z"/>
<path d="M8298 133 c7 -3 16 -2 19 1 4 3 -2 6 -13 5 -11 0 -14 -3 -6 -6z"/>
<path d="M2715 106 c-26 -28 -29 -39 -7 -34 12 3 23 1 26 -6 2 -6 3 1 2 17 -3
33 -8 38 -21 23z"/>
<path d="M8308 113 c-43 -11 -4 -33 60 -33 25 0 32 4 32 20 0 17 -6 20 -37 19
-21 -1 -46 -3 -55 -6z"/>
<path d="M3360 69 c0 -5 5 -7 10 -4 6 3 10 8 10 11 0 2 -4 4 -10 4 -5 0 -10
-5 -10 -11z"/>
<path d="M3621 64 c0 -11 3 -14 6 -6 3 7 2 16 -1 19 -3 4 -6 -2 -5 -13z"/>
<path d="M3370 39 c0 -6 7 -17 15 -25 13 -14 17 -14 30 0 21 20 19 29 -5 21
-11 -4 -20 -2 -20 4 0 6 -4 11 -10 11 -5 0 -10 -5 -10 -11z"/>
<path d="M3630 21 c0 -15 6 -21 21 -21 25 0 22 33 -4 38 -12 2 -17 -3 -17 -17z"/>
<path d="M3601 14 c0 -11 3 -14 6 -6 3 7 2 16 -1 19 -3 4 -6 -2 -5 -13z"/>
<path d="M6466 21 c-4 -7 -5 -15 -2 -18 9 -9 19 4 14 18 -4 11 -6 11 -12 0z"/>
<path d="M200 10 c0 -5 5 -10 10 -10 6 0 10 5 10 10 0 6 -4 10 -10 10 -5 0
-10 -4 -10 -10z"/>
</g>
</svg>
