<?xml version="1.0" encoding="UTF-8" standalone="no"?>
<svg
   version="1.0"
   width="920.000000pt"
   height="590.000000pt"
   viewBox="0 0 920.000000 590.000000"
   preserveAspectRatio="xMidYMid meet"
   id="svg84"
   sodipodi:docname="-iZXRfDGUUybcAy4r.svg"
   xmlns:inkscape="http://www.inkscape.org/namespaces/inkscape"
   xmlns:sodipodi="http://sodipodi.sourceforge.net/DTD/sodipodi-0.dtd"
   xmlns="http://www.w3.org/2000/svg"
   xmlns:svg="http://www.w3.org/2000/svg">
  <defs
     id="defs88" />
  <sodipodi:namedview
     id="namedview86"
     pagecolor="#ffffff"
     bordercolor="#000000"
     borderopacity="0.25"
     inkscape:showpageshadow="2"
     inkscape:pageopacity="0.0"
     inkscape:pagecheckerboard="0"
     inkscape:deskcolor="#d1d1d1"
     inkscape:document-units="pt" />
  <g
     transform="translate(0.000000,590.000000) scale(0.100000,-0.100000)"
     fill="#000000"
     stroke="none"
     id="g82">
    <path
       d="M9093 5452 c-56 -70 -226 -282 -379 -472 -152 -190 -315 -392 -363 -450 -91 -110 -112 -138 -93 -126 13 8 35 35 540 664 222 277 402 505 400 507 -1 2 -49 -54 -105 -123z"
       id="path2" />
    <path
       d="M5170 5085 c-19 -8 -72 -28 -118 -45 -46 -18 -81 -34 -79 -36 5 -6 218 75 232 87 12 12 7 11 -35 -6z"
       id="path4" />
    <path
       d="M4720 4910 c-14 -4 -86 -31 -160 -59 -74 -29 -178 -68 -230 -87 -52 -20 -99 -41 -105 -46 -15 -16 17 -5 280 97 l240 92 28 -19 c15 -11 27 -17 27 -14 0 2 -12 13 -27 24 -20 13 -35 17 -53 12z"
       id="path6" />
    <path
       d="M3997 4643 c-48 -20 -85 -38 -83 -40 2 -3 46 12 96 32 67 27 95 34 103 26 6 -6 18 -11 27 -11 9 1 6 6 -10 15 -33 19 -31 19 -133 -22z"
       id="path8" />
    <path
       d="M8198 4393 c7 -3 16 -2 19 1 4 3 -2 6 -13 5 -11 0 -14 -3 -6 -6z"
       id="path10" />
    <path
       d="M298 4353 c7 -3 16 -2 19 1 4 3 -2 6 -13 5 -11 0 -14 -3 -6 -6z"
       id="path12" />
    <path
       d="M373 4338 c26 -6 47 -14 47 -19 0 -5 5 -9 10 -9 6 0 10 6 10 14 0 14 -45 27 -89 25 -17 -1 -9 -5 22 -11z"
       id="path14" />
    <path
       d="M8240 4340 c0 -5 -5 -10 -12 -10 -7 0 -27 -14 -45 -32 -18 -18 -33 -27 -33 -20 0 7 5 12 12 12 6 0 9 3 5 6 -3 3 -21 -5 -39 -19 -18 -13 -38 -22 -45 -20 -6 2 -21 -5 -33 -17 -11 -11 -35 -23 -53 -27 -18 -3 -40 -10 -50 -15 -12 -6 -19 -5 -23 7 -3 8 -10 15 -16 15 -5 0 -6 -4 -3 -10 3 -5 0 -11 -7 -11 -23 -3 -52 -8 -98 -19 -25 -6 -94 -18 -155 -28 -60 -9 -102 -18 -93 -20 9 -2 68 4 130 12 62 9 203 27 313 41 110 14 215 28 233 32 l33 5 -2 64 c-1 35 -6 64 -11 64 -4 0 -8 -4 -8 -10z"
       id="path16" />
    <path
       d="M8135 4188 c-66 -9 -288 -39 -493 -67 -206 -28 -379 -54 -384 -58 -7 -4 -9 -47 -4 -127 3 -67 6 -467 6 -889 0 -448 4 -766 9 -762 5 3 21 1 34 -4 14 -6 47 -12 74 -14 28 -2 56 -8 63 -12 9 -5 15 -4 18 3 2 7 8 10 13 6 5 -3 69 -14 142 -24 72 -10 151 -23 175 -28 23 -6 42 -8 42 -5 0 3 -9 19 -21 36 l-21 32 31 -34 c24 -27 40 -35 73 -38 52 -5 81 -20 74 -39 -4 -10 3 -14 27 -15 71 -2 85 -4 98 -15 22 -17 58 -23 63 -10 2 6 5 1 5 -11 1 -27 21 -31 21 -5 0 10 3 13 8 6 4 -6 16 -14 27 -19 19 -7 19 -8 -5 -15 -15 -4 -36 -1 -52 7 -35 17 -39 16 -31 -4 5 -13 3 -15 -13 -8 -10 4 -37 10 -59 11 -38 3 -38 3 -10 -6 17 -5 43 -12 58 -15 20 -4 27 -10 23 -21 -3 -9 -1 -12 4 -9 6 3 10 1 10 -4 0 -16 -26 -13 -43 3 -11 12 -15 11 -26 -6 -10 -17 -10 -19 6 -17 22 3 54 -11 49 -20 -3 -4 10 -8 27 -9 17 -2 44 -9 59 -17 15 -7 30 -9 33 -4 6 9 16 1110 16 1667 -1 203 3 351 8 348 5 -3 14 1 21 9 7 8 10 15 7 15 -4 0 5 21 18 46 27 51 30 71 14 94 -9 12 -10 11 -4 -5 5 -18 4 -18 -17 3 -21 21 -22 24 -6 36 9 7 14 17 10 22 -9 13 -36 12 -177 -8z m155 -42 c0 -3 -4 -16 -10 -30 -7 -19 -6 -26 3 -26 9 0 9 -2 0 -8 -6 -4 -13 -25 -16 -47 -3 -30 -4 -25 -5 22 -2 64 4 93 19 93 5 0 9 -2 9 -4z"
       id="path18" />
    <path
       d="M8350 4138 c0 -9 5 -20 10 -23 13 -8 13 5 0 25 -8 13 -10 13 -10 -2z"
       id="path20" />
    <path
       d="M7493 4123 c9 -2 23 -2 30 0 6 3 -1 5 -18 5 -16 0 -22 -2 -12 -5z"
       id="path22" />
    <path
       d="M7428 4113 c6 -2 18 -2 25 0 6 3 1 5 -13 5 -14 0 -19 -2 -12 -5z"
       id="path24" />
    <path
       d="M8327 4044 c-10 -14 -16 -30 -14 -37 3 -7 6 -4 6 6 1 9 5 17 10 17 8 0 24 30 19 35 -2 2 -11 -8 -21 -21z"
       id="path26" />
    <path
       d="M13 4053 c-10 -4 -13 -232 -13 -1099 0 -602 3 -1094 8 -1094 4 0 55 7 115 17 l107 17 -2 565 c-1 311 -5 510 -8 441 -4 -82 -9 -117 -14 -102 -5 12 -12 22 -16 22 -5 0 -11 14 -15 31 -4 18 -12 28 -19 26 -7 -3 -13 6 -14 22 -1 14 -7 28 -12 29 -6 2 -10 12 -10 23 0 10 -6 19 -12 19 -9 0 -8 3 2 10 8 5 11 12 7 16 -16 16 18 34 67 36 50 1 50 2 -14 7 -51 5 -66 10 -68 24 -3 15 5 17 62 17 36 0 66 3 66 8 0 4 -22 6 -50 5 -49 -1 -64 13 -30 29 10 5 7 7 -10 6 -73 -3 -75 -2 -78 53 -1 29 4 62 13 79 9 17 11 31 5 35 -5 3 -7 19 -3 35 3 19 1 30 -6 30 -8 0 -7 11 4 36 8 20 15 43 15 51 0 8 11 24 25 35 14 11 25 29 25 41 0 18 2 19 10 7 5 -8 10 -10 10 -5 0 6 -8 21 -17 34 -9 14 -11 21 -5 17 6 -3 13 -2 17 3 3 6 12 8 20 4 9 -3 15 1 15 11 0 10 6 13 15 10 8 -4 15 -14 15 -23 0 -14 2 -14 10 -1 13 19 13 467 1 475 -5 3 -12 1 -15 -3 -7 -11 -110 -13 -156 -3 -19 4 -41 6 -47 4z m207 -2012 l0 -139 -47 -6 c-140 -18 -151 -17 -118 8 8 6 16 23 17 37 2 15 10 34 17 42 11 14 9 15 -16 11 -27 -4 -27 -3 -9 11 11 8 26 15 33 15 11 0 11 4 2 22 -10 18 -9 20 6 14 16 -6 16 -4 4 11 -7 10 -9 15 -5 11 9 -8 46 28 46 43 0 4 9 11 20 14 11 3 20 12 20 20 0 11 8 18 28 24 1 1 2 -62 2 -138z"
       id="path28" />
    <path
       d="M110 1919 c0 -5 5 -7 10 -4 6 3 10 8 10 11 0 2 -4 4 -10 4 -5 0 -10 -5 -10 -11z"
       id="path30" />
    <path
       d="M7050 4039 c-25 -5 -245 -35 -490 -69 -245 -33 -476 -64 -515 -70 -38 -5 -176 -23 -305 -40 -129 -17 -245 -33 -258 -36 l-22 -4 2 -653 3 -652 22 -3 c12 -2 25 -12 28 -23 5 -13 15 -19 33 -18 15 1 68 -3 117 -9 100 -13 178 -22 245 -28 25 -2 88 -8 140 -14 52 -6 102 -9 110 -8 32 3 49 -3 53 -19 4 -17 5 -17 6 0 1 10 9 17 24 18 21 0 21 1 2 9 -17 7 -14 9 14 9 27 1 31 -2 22 -12 -11 -14 8 -17 284 -48 50 -5 101 -12 114 -15 17 -4 22 -1 18 8 -3 9 3 14 15 15 16 2 17 -1 8 -13 -10 -11 -9 -14 4 -14 12 0 16 -10 18 -37 l1 -38 4 34 4 33 71 -6 c99 -10 98 -10 99 -75 0 -31 5 -78 9 -106 6 -36 7 -20 4 58 -4 72 -2 107 5 107 6 0 11 -17 11 -37 0 -28 3 -34 10 -23 7 11 14 12 26 5 28 -18 83 13 84 47 0 25 2 27 40 22 l40 -5 0 304 c0 167 3 554 7 860 l6 557 -34 -1 c-19 -1 -54 -5 -79 -10z m-1153 -315 c-9 -9 -28 6 -21 18 4 6 10 6 17 -1 6 -6 8 -13 4 -17z m73 -24 c0 -5 -7 -10 -16 -10 -8 0 -12 5 -9 10 3 6 10 10 16 10 5 0 9 -4 9 -10z m602 -12 c2 -7 3 -28 3 -45 -1 -32 0 -33 36 -33 20 0 42 -6 48 -14 9 -11 -2 -15 -61 -25 -40 -6 -84 -13 -98 -15 -14 -3 35 -3 108 -1 72 2 132 1 132 -4 0 -11 -51 -21 -111 -21 -56 0 -63 -8 -51 -54 5 -18 8 -45 5 -59 -5 -28 -5 -28 -265 -41 l-98 -5 0 79 0 80 58 2 57 2 -57 3 c-58 4 -58 4 -58 36 0 40 10 78 19 73 3 -2 27 0 53 4 25 5 66 12 89 15 24 3 71 11 104 19 80 18 82 18 87 4z m-374 -313 c-2 -1 -101 -5 -220 -8 l-218 -6 1 112 c1 62 4 102 6 90 2 -13 10 -23 16 -23 8 0 8 -3 -1 -9 -11 -6 -9 -9 6 -13 13 -4 19 -2 16 6 -3 7 4 20 14 29 17 16 21 16 32 2 7 -8 16 -12 22 -9 5 3 15 0 23 -6 10 -8 15 -9 15 -2 0 6 12 12 27 14 22 2 29 9 33 33 5 30 6 30 80 36 97 8 139 18 142 32 1 7 4 -53 5 -132 2 -79 2 -145 1 -146z m-516 179 c37 -19 46 -18 51 9 2 12 5 -29 6 -90 1 -102 -1 -113 -16 -113 -14 0 -15 2 -5 9 9 5 12 27 10 72 -3 58 -5 64 -25 67 -18 3 -23 -2 -23 -17 0 -12 -5 -21 -10 -21 -7 0 -7 -7 0 -20 6 -12 8 -30 5 -41 -9 -26 -18 -17 -20 19 -4 104 -1 97 -52 113 -25 8 -48 20 -51 27 -5 17 90 6 130 -14z m1368 16 c0 -12 -42 -18 -177 -24 -65 -3 -113 -1 -113 5 0 11 30 18 95 22 113 8 195 6 195 -3z m-1357 -207 c-7 -2 -21 -2 -30 0 -10 3 -4 5 12 5 17 0 24 -2 18 -5z m767 -58 l0 -64 -82 -3 -82 -3 33 -37 c24 -27 39 -36 59 -35 17 1 27 -3 27 -12 0 -8 8 -15 18 -17 13 -2 16 2 12 16 -3 10 -1 21 5 25 6 4 10 -19 10 -68 l0 -74 -120 1 -120 1 0 27 c0 39 17 78 35 78 14 0 21 -29 16 -67 -1 -6 2 -14 7 -17 15 -9 13 69 -2 89 -13 17 -18 18 -35 7 -19 -11 -21 -10 -21 8 0 15 7 20 24 20 14 0 28 5 31 10 4 6 -7 10 -24 10 l-31 0 0 74 0 75 58 6 c31 3 66 7 77 9 11 2 39 4 63 5 l42 1 0 -65z m118 3 l-3 -61 -47 -4 -48 -4 0 65 0 66 50 0 51 0 -3 -62z m-619 -35 c-1 -43 -4 -67 -6 -53 -6 37 -24 80 -34 80 -5 0 -9 7 -9 15 0 25 -36 17 -49 -11 -6 -14 -9 -29 -7 -33 6 -10 -11 -37 -19 -29 -4 3 -9 25 -12 47 -6 40 -7 41 -47 43 -22 1 4 5 59 8 55 3 106 7 113 8 9 1 12 -19 11 -75z m51 65 c0 -9 3 -9 12 0 7 7 44 12 95 12 l84 0 -3 -77 -3 -78 -65 -6 -65 -6 68 -1 68 -2 -3 -72 -3 -73 -107 0 -108 0 0 78 c0 43 4 76 9 73 5 -3 16 5 25 19 16 24 16 25 -9 25 -24 0 -25 3 -25 60 0 47 3 60 15 60 8 0 15 -5 15 -12z m-327 -15 c-7 -2 -21 -2 -30 0 -10 3 -4 5 12 5 17 0 24 -2 18 -5z m207 -17 c0 -2 -7 -9 -15 -16 -13 -11 -14 -10 -9 4 5 14 24 23 24 12z m680 -196 c0 -76 -1 -80 -22 -80 -63 1 -68 7 -68 83 0 62 2 68 13 52 8 -10 19 -15 26 -11 6 4 14 0 17 -8 10 -26 24 -18 24 14 0 17 2 30 5 30 3 0 5 -36 5 -80z m537 -387 c-3 -10 -5 -4 -5 12 0 17 2 24 5 18 2 -7 2 -21 0 -30z m-680 -9 c-3 -3 -12 -4 -19 -1 -8 3 -5 6 6 6 11 1 17 -2 13 -5z m680 -96 c-3 -7 -5 -2 -5 12 0 14 2 19 5 13 2 -7 2 -19 0 -25z m-1244 -22 c4 -9 -8 -12 -43 -10 -46 3 -49 2 -53 -24 -3 -21 -4 -18 -6 11 0 21 3 36 8 33 5 -4 20 -2 32 2 28 11 56 5 62 -12z m97 4 c0 -21 -30 -29 -31 -7 0 6 -4 3 -9 -8 -8 -19 -9 -19 -9 3 -1 19 3 22 19 17 11 -4 20 -2 20 4 0 6 2 11 5 11 3 0 5 -9 5 -20z m-225 -20 c-3 -5 -12 -10 -18 -10 -7 0 -6 4 3 10 19 12 23 12 15 0z m1372 -12 c-3 -8 -6 -5 -6 6 -1 11 2 17 5 13 3 -3 4 -12 1 -19z m-596 -168 c44 -7 38 -8 -36 -4 -104 5 -167 12 -175 20 -6 7 131 -4 211 -16z m126 -16 c-3 -3 -12 -4 -19 -1 -8 3 -5 6 6 6 11 1 17 -2 13 -5z m176 -21 c-7 -2 -19 -2 -25 0 -7 3 -2 5 12 5 14 0 19 -2 13 -5z m195 -62 c10 -6 7 -10 -11 -13 -18 -4 -24 -1 -20 9 6 15 13 16 31 4z"
       id="path32" />
    <path
       d="M6388 3543 c18 -2 45 -2 60 0 15 2 0 4 -33 4 -33 0 -45 -2 -27 -4z"
       id="path34" />
    <path
       d="M6485 3450 c-17 -7 -14 -9 13 -9 20 -1 31 3 27 9 -7 12 -13 12 -40 0z"
       id="path36" />
    <path
       d="M5983 3513 c9 -2 25 -2 35 0 9 3 1 5 -18 5 -19 0 -27 -2 -17 -5z"
       id="path38" />
    <path
       d="M5773 3425 c-2 -48 0 -55 16 -55 15 0 19 7 18 43 0 39 -11 67 -26 67 -3 0 -7 -25 -8 -55z"
       id="path40" />
    <path
       d="M5876 3462 c-7 -12 15 -82 26 -82 4 0 8 14 8 30 0 20 -5 30 -15 30 -21 0 -19 18 3 23 15 4 15 5 0 6 -9 0 -19 -3 -22 -7z"
       id="path42" />
    <path
       d="M6072 3140 c0 -19 2 -27 5 -17 2 9 2 25 0 35 -3 9 -5 1 -5 -18z"
       id="path44" />
    <path
       d="M4343 3783 l-41 -4 -4 -62 c-6 -113 7 -1132 14 -1121 5 7 46 11 120 9 76 -1 105 1 88 7 -20 7 -22 11 -10 18 12 8 11 10 -7 10 -12 0 -25 5 -29 12 -4 6 -3 8 4 4 5 -3 12 -2 14 3 4 11 116 23 122 12 3 -4 6 -54 7 -110 1 -98 3 -103 25 -113 32 -15 39 -5 27 37 -7 21 -7 35 -1 37 5 2 12 223 17 548 4 300 9 475 10 390 1 -89 6 -146 10 -135 5 11 6 25 4 31 -2 6 3 17 12 24 20 17 19 34 -2 26 -16 -6 -16 -6 0 12 9 10 17 24 17 30 0 7 6 12 14 12 8 0 18 5 22 12 5 8 2 9 -12 4 -10 -4 -15 -4 -12 0 4 4 3 16 -3 28 -9 20 -9 20 4 3 14 -17 16 -17 30 4 12 16 22 20 41 15 28 -7 37 10 11 20 -27 11 -16 21 21 18 34 -2 35 -1 34 29 -3 51 -1 55 20 50 14 -4 23 2 31 21 7 15 21 26 33 27 12 0 15 3 9 6 -7 2 -13 9 -13 14 0 6 5 7 10 4 6 -3 10 -1 10 5 0 7 7 10 15 6 9 -3 15 0 15 8 0 15 -83 14 -255 -2 -49 -5 -97 -6 -105 -1 -8 4 -58 15 -110 24 -52 10 -99 21 -104 26 -10 9 -22 9 -103 2z m307 -123 c0 -5 -7 -10 -15 -10 -8 0 -15 5 -15 10 0 6 7 10 15 10 8 0 15 -4 15 -10z m225 -60 c8 -13 -5 -13 -25 0 -13 8 -13 10 2 10 9 0 20 -4 23 -10z m-256 -796 l1 -111 -79 1 c-44 1 -78 -1 -76 -4 3 -4 -21 -10 -52 -14 -32 -4 -67 -9 -80 -12 -18 -5 -23 -2 -23 14 0 20 24 32 68 32 13 0 21 4 17 10 -3 5 -11 7 -18 5 -23 -9 -40 11 -31 36 4 13 7 34 5 45 -3 25 20 37 55 28 18 -5 24 -2 24 10 0 9 -7 16 -15 16 -20 0 -19 7 5 37 19 25 20 25 20 4 0 -11 -5 -21 -12 -21 -6 0 0 -9 13 -20 19 -18 23 -31 24 -80 0 -33 2 -60 5 -60 9 0 35 20 27 20 -5 0 -5 6 0 13 4 6 9 20 10 31 2 10 9 33 17 50 8 17 20 66 26 109 7 42 17 77 22 77 5 0 6 -6 2 -12 -5 -9 -2 -9 9 1 10 7 18 29 19 50 2 61 16 -138 17 -255z m-279 10 c0 -8 -6 -14 -14 -14 -12 0 -14 10 -7 38 3 10 21 -11 21 -24z m-13 -74 c1 -11 -2 -20 -8 -20 -10 0 -12 23 -2 33 9 9 9 10 10 -13z m126 -87 c-7 -2 -19 -2 -25 0 -7 3 -2 5 12 5 14 0 19 -2 13 -5z"
       id="path46" />
    <path
       d="M4372 2790 c0 -14 2 -19 5 -12 2 6 2 18 0 25 -3 6 -5 1 -5 -13z"
       id="path48" />
    <path
       d="M5036 3742 c-3 -5 1 -9 9 -9 8 0 15 4 15 9 0 4 -4 8 -9 8 -6 0 -12 -4 -15 -8z"
       id="path50" />
    <path
       d="M5020 3700 c0 -5 5 -10 11 -10 5 0 7 5 4 10 -3 6 -8 10 -11 10 -2 0 -4 -4 -4 -10z"
       id="path52" />
    <path
       d="M4110 3340 l0 -80 48 0 c26 0 57 -3 70 -6 21 -6 22 -4 22 73 l0 80 -46 7 c-98 13 -94 16 -94 -74z"
       id="path54" />
    <path
       d="M86 3377 c3 -10 9 -15 12 -12 3 3 0 11 -7 18 -10 9 -11 8 -5 -6z"
       id="path56" />
    <path
       d="M8293 3343 c-19 -7 -18 -143 1 -143 11 0 15 18 18 68 4 70 1 82 -19 75z"
       id="path58" />
    <path
       d="M308 3323 c12 -2 32 -2 45 0 12 2 2 4 -23 4 -25 0 -35 -2 -22 -4z"
       id="path60" />
    <path
       d="M4738 3178 c-8 -22 4 -58 18 -58 20 0 17 38 -3 43 -17 4 -17 5 0 6 9 0 17 6 17 11 0 14 -28 12 -32 -2z"
       id="path62" />
    <path
       d="M340 3120 c0 -36 3 -40 25 -40 35 0 33 -28 -2 -32 -26 -3 -28 -5 -24 -48 4 -57 6 -60 41 -60 39 0 50 23 50 104 0 69 -12 116 -30 116 -6 0 -8 -4 -5 -10 3 -5 -1 -10 -9 -10 -8 0 -18 5 -21 10 -13 22 -25 8 -25 -30z m60 -23 c0 -5 -4 -5 -10 -2 -5 3 -10 14 -10 23 0 15 2 15 10 2 5 -8 10 -19 10 -23z m-7 -92 c1 -5 -6 -11 -15 -13 -11 -2 -18 3 -18 13 0 17 30 18 33 0z m0 -52 c-7 -2 -21 -2 -30 0 -10 3 -4 5 12 5 17 0 24 -2 18 -5z"
       id="path64" />
    <path
       d="M4310 2534 c0 -14 5 -22 13 -20 6 3 26 7 42 11 l30 7 -25 10 c-45 19 -60 17 -60 -8z"
       id="path66" />
    <path
       d="M4655 2420 c3 -5 8 -10 11 -10 2 0 4 5 4 10 0 6 -5 10 -11 10 -5 0 -7 -4 -4 -10z"
       id="path68" />
    <path
       d="M7870 2180 c0 -5 7 -10 16 -10 8 0 12 5 9 10 -3 6 -10 10 -16 10 -5 0 -9 -4 -9 -10z"
       id="path70" />
    <path
       d="M7918 2173 c6 -2 18 -2 25 0 6 3 1 5 -13 5 -14 0 -19 -2 -12 -5z"
       id="path72" />
    <path
       d="M6932 2070 c0 -14 2 -19 5 -12 2 6 2 18 0 25 -3 6 -5 1 -5 -13z"
       id="path74" />
    <path
       d="M7969 2047 c5 -5 19 -7 32 -5 20 3 19 5 -9 9 -20 3 -29 2 -23 -4z"
       id="path76" />
    <path
       d="M8035 2050 c-3 -5 1 -10 9 -10 9 0 16 5 16 10 0 6 -4 10 -9 10 -6 0 -13 -4 -16 -10z"
       id="path78" />
    <path
       d="M8026 2008 c5 -8 1 -9 -12 -4 -12 5 -16 4 -9 -3 6 -5 26 -11 45 -14 19 -2 27 -2 17 0 -10 3 -21 11 -24 19 -3 8 -9 14 -15 14 -5 0 -6 -5 -2 -12z"
       id="path80" />
  </g>
</svg>
